M48
; DRILL file {KiCad 5.1.9-73d0e3b20d~88~ubuntu16.04.1} date Tue Feb 23 03:34:38 2021
; FORMAT={-:-/ absolute / inch / decimal}
; #@! TF.CreationDate,2021-02-23T03:34:38+00:00
; #@! TF.GenerationSoftware,Kicad,Pcbnew,5.1.9-73d0e3b20d~88~ubuntu16.04.1
FMAT,2
INCH
T1C0.0100
T2C0.0236
T3C0.0400
T4C0.0256
T5C0.0390
%
G90
G05
T1
X4.745Y-5.06
X4.75Y-4.645
X4.775Y-5.074
X4.795Y-4.745
X4.796Y-4.78
X4.8089Y-4.875
X4.8099Y-4.8451
X4.815Y-4.725
X4.83Y-5.27
X4.865Y-4.725
X4.88Y-4.655
X4.8855Y-4.8395
X4.9051Y-5.1026
X4.93Y-5.095
X4.9334Y-5.21
X4.94Y-4.744
X4.956Y-5.0938
X4.965Y-4.915
X4.99Y-4.744
X5.005Y-5.095
X5.026Y-5.12
X5.034Y-4.784
X5.04Y-4.71
X5.04Y-4.932
X5.052Y-5.006
X5.0529Y-4.9546
X5.06Y-4.69
X5.06Y-4.84
X5.093Y-4.869
X5.094Y-4.652
X5.101Y-4.815
X5.221Y-5.088
X5.235Y-4.685
X5.3Y-4.64
T3
X4.65Y-4.7
X4.65Y-4.8
X4.65Y-4.9
X4.65Y-5.0
X4.65Y-5.1
X4.65Y-5.2
X4.65Y-5.3
X4.7Y-4.7
X4.7Y-4.8
X4.7Y-4.9
X4.7Y-5.0
X4.7Y-5.1
X4.7Y-5.2
X4.7Y-5.3
X5.3Y-4.7
X5.3Y-4.8
X5.3Y-4.9
X5.3Y-5.0
X5.3Y-5.1
X5.3Y-5.2
X5.3Y-5.3
X5.35Y-4.7
X5.35Y-4.8
X5.35Y-4.9
X5.35Y-5.0
X5.35Y-5.1
X5.35Y-5.2
X5.35Y-5.3
T4
X4.8862Y-5.2124
X5.1138Y-5.2124
T5
X5.09Y-5.05
X5.13Y-4.85
X5.17Y-5.05
T2
G00X4.8299Y-5.1711
M15
G01X4.8299Y-5.2144
M16
G05
G00X4.8299Y-5.3455
M15
G01X4.8299Y-5.3691
M16
G05
G00X5.1701Y-5.1711
M15
G01X5.1701Y-5.2144
M16
G05
G00X5.1701Y-5.3455
M15
G01X5.1701Y-5.3691
M16
G05
T0
M30
