G04 #@! TF.GenerationSoftware,KiCad,Pcbnew,5.1.9-73d0e3b20d~88~ubuntu16.04.1*
G04 #@! TF.CreationDate,2021-02-23T03:34:03+00:00*
G04 #@! TF.ProjectId,kuiic,6b756969-632e-46b6-9963-61645f706362,rev?*
G04 #@! TF.SameCoordinates,Original*
G04 #@! TF.FileFunction,Paste,Top*
G04 #@! TF.FilePolarity,Positive*
%FSLAX46Y46*%
G04 Gerber Fmt 4.6, Leading zero omitted, Abs format (unit mm)*
G04 Created by KiCad (PCBNEW 5.1.9-73d0e3b20d~88~ubuntu16.04.1) date 2021-02-23 03:34:03*
%MOMM*%
%LPD*%
G01*
G04 APERTURE LIST*
%ADD10R,0.400000X0.700000*%
%ADD11R,0.900000X1.250000*%
%ADD12R,0.600000X0.500000*%
%ADD13R,0.300000X1.150000*%
G04 APERTURE END LIST*
G04 #@! TO.C,R6*
G36*
G01*
X123328400Y-129928200D02*
X123328400Y-129558200D01*
G75*
G02*
X123463400Y-129423200I135000J0D01*
G01*
X123733400Y-129423200D01*
G75*
G02*
X123868400Y-129558200I0J-135000D01*
G01*
X123868400Y-129928200D01*
G75*
G02*
X123733400Y-130063200I-135000J0D01*
G01*
X123463400Y-130063200D01*
G75*
G02*
X123328400Y-129928200I0J135000D01*
G01*
G37*
G36*
G01*
X122308400Y-129928200D02*
X122308400Y-129558200D01*
G75*
G02*
X122443400Y-129423200I135000J0D01*
G01*
X122713400Y-129423200D01*
G75*
G02*
X122848400Y-129558200I0J-135000D01*
G01*
X122848400Y-129928200D01*
G75*
G02*
X122713400Y-130063200I-135000J0D01*
G01*
X122443400Y-130063200D01*
G75*
G02*
X122308400Y-129928200I0J135000D01*
G01*
G37*
G04 #@! TD*
D10*
G04 #@! TO.C,D2*
X121762000Y-133223000D03*
X121062000Y-133223000D03*
G04 #@! TD*
G04 #@! TO.C,R3*
G36*
G01*
X129300000Y-125545000D02*
X129300000Y-125915000D01*
G75*
G02*
X129165000Y-126050000I-135000J0D01*
G01*
X128895000Y-126050000D01*
G75*
G02*
X128760000Y-125915000I0J135000D01*
G01*
X128760000Y-125545000D01*
G75*
G02*
X128895000Y-125410000I135000J0D01*
G01*
X129165000Y-125410000D01*
G75*
G02*
X129300000Y-125545000I0J-135000D01*
G01*
G37*
G36*
G01*
X130320000Y-125545000D02*
X130320000Y-125915000D01*
G75*
G02*
X130185000Y-126050000I-135000J0D01*
G01*
X129915000Y-126050000D01*
G75*
G02*
X129780000Y-125915000I0J135000D01*
G01*
X129780000Y-125545000D01*
G75*
G02*
X129915000Y-125410000I135000J0D01*
G01*
X130185000Y-125410000D01*
G75*
G02*
X130320000Y-125545000I0J-135000D01*
G01*
G37*
G04 #@! TD*
G04 #@! TO.C,J1*
G36*
G01*
X126895000Y-121009000D02*
X126895000Y-122259000D01*
G75*
G02*
X126745000Y-122409000I-150000J0D01*
G01*
X126445000Y-122409000D01*
G75*
G02*
X126295000Y-122259000I0J150000D01*
G01*
X126295000Y-121009000D01*
G75*
G02*
X126445000Y-120859000I150000J0D01*
G01*
X126745000Y-120859000D01*
G75*
G02*
X126895000Y-121009000I0J-150000D01*
G01*
G37*
G36*
G01*
X125895000Y-121009000D02*
X125895000Y-122259000D01*
G75*
G02*
X125745000Y-122409000I-150000J0D01*
G01*
X125445000Y-122409000D01*
G75*
G02*
X125295000Y-122259000I0J150000D01*
G01*
X125295000Y-121009000D01*
G75*
G02*
X125445000Y-120859000I150000J0D01*
G01*
X125745000Y-120859000D01*
G75*
G02*
X125895000Y-121009000I0J-150000D01*
G01*
G37*
G36*
G01*
X124895000Y-121009000D02*
X124895000Y-122259000D01*
G75*
G02*
X124745000Y-122409000I-150000J0D01*
G01*
X124445000Y-122409000D01*
G75*
G02*
X124295000Y-122259000I0J150000D01*
G01*
X124295000Y-121009000D01*
G75*
G02*
X124445000Y-120859000I150000J0D01*
G01*
X124745000Y-120859000D01*
G75*
G02*
X124895000Y-121009000I0J-150000D01*
G01*
G37*
G36*
G01*
X123895000Y-121009000D02*
X123895000Y-122259000D01*
G75*
G02*
X123745000Y-122409000I-150000J0D01*
G01*
X123445000Y-122409000D01*
G75*
G02*
X123295000Y-122259000I0J150000D01*
G01*
X123295000Y-121009000D01*
G75*
G02*
X123445000Y-120859000I150000J0D01*
G01*
X123745000Y-120859000D01*
G75*
G02*
X123895000Y-121009000I0J-150000D01*
G01*
G37*
G36*
G01*
X128495000Y-117108999D02*
X128495000Y-118409001D01*
G75*
G02*
X128245001Y-118659000I-249999J0D01*
G01*
X127544999Y-118659000D01*
G75*
G02*
X127295000Y-118409001I0J249999D01*
G01*
X127295000Y-117108999D01*
G75*
G02*
X127544999Y-116859000I249999J0D01*
G01*
X128245001Y-116859000D01*
G75*
G02*
X128495000Y-117108999I0J-249999D01*
G01*
G37*
G36*
G01*
X122895000Y-117108999D02*
X122895000Y-118409001D01*
G75*
G02*
X122645001Y-118659000I-249999J0D01*
G01*
X121944999Y-118659000D01*
G75*
G02*
X121695000Y-118409001I0J249999D01*
G01*
X121695000Y-117108999D01*
G75*
G02*
X121944999Y-116859000I249999J0D01*
G01*
X122645001Y-116859000D01*
G75*
G02*
X122895000Y-117108999I0J-249999D01*
G01*
G37*
G04 #@! TD*
D11*
G04 #@! TO.C,SW1*
X131941000Y-117709000D03*
X130441000Y-117709000D03*
X131941000Y-121559000D03*
X130441000Y-121559000D03*
G04 #@! TD*
D12*
G04 #@! TO.C,D1*
X132526000Y-125665000D03*
X131126000Y-125665000D03*
X132526000Y-126365000D03*
X131126000Y-126365000D03*
X132526000Y-127065000D03*
X131126000Y-127065000D03*
G04 #@! TD*
G04 #@! TO.C,U1*
G36*
G01*
X126223500Y-125426000D02*
X125758500Y-125426000D01*
G75*
G02*
X125526000Y-125193500I0J232500D01*
G01*
X125526000Y-124728500D01*
G75*
G02*
X125758500Y-124496000I232500J0D01*
G01*
X126223500Y-124496000D01*
G75*
G02*
X126456000Y-124728500I0J-232500D01*
G01*
X126456000Y-125193500D01*
G75*
G02*
X126223500Y-125426000I-232500J0D01*
G01*
G37*
G36*
G01*
X125073500Y-125426000D02*
X124608500Y-125426000D01*
G75*
G02*
X124376000Y-125193500I0J232500D01*
G01*
X124376000Y-124728500D01*
G75*
G02*
X124608500Y-124496000I232500J0D01*
G01*
X125073500Y-124496000D01*
G75*
G02*
X125306000Y-124728500I0J-232500D01*
G01*
X125306000Y-125193500D01*
G75*
G02*
X125073500Y-125426000I-232500J0D01*
G01*
G37*
G36*
G01*
X123923500Y-125426000D02*
X123458500Y-125426000D01*
G75*
G02*
X123226000Y-125193500I0J232500D01*
G01*
X123226000Y-124728500D01*
G75*
G02*
X123458500Y-124496000I232500J0D01*
G01*
X123923500Y-124496000D01*
G75*
G02*
X124156000Y-124728500I0J-232500D01*
G01*
X124156000Y-125193500D01*
G75*
G02*
X123923500Y-125426000I-232500J0D01*
G01*
G37*
G36*
G01*
X126223500Y-126576000D02*
X125758500Y-126576000D01*
G75*
G02*
X125526000Y-126343500I0J232500D01*
G01*
X125526000Y-125878500D01*
G75*
G02*
X125758500Y-125646000I232500J0D01*
G01*
X126223500Y-125646000D01*
G75*
G02*
X126456000Y-125878500I0J-232500D01*
G01*
X126456000Y-126343500D01*
G75*
G02*
X126223500Y-126576000I-232500J0D01*
G01*
G37*
G36*
G01*
X125073500Y-126576000D02*
X124608500Y-126576000D01*
G75*
G02*
X124376000Y-126343500I0J232500D01*
G01*
X124376000Y-125878500D01*
G75*
G02*
X124608500Y-125646000I232500J0D01*
G01*
X125073500Y-125646000D01*
G75*
G02*
X125306000Y-125878500I0J-232500D01*
G01*
X125306000Y-126343500D01*
G75*
G02*
X125073500Y-126576000I-232500J0D01*
G01*
G37*
G36*
G01*
X123923500Y-126576000D02*
X123458500Y-126576000D01*
G75*
G02*
X123226000Y-126343500I0J232500D01*
G01*
X123226000Y-125878500D01*
G75*
G02*
X123458500Y-125646000I232500J0D01*
G01*
X123923500Y-125646000D01*
G75*
G02*
X124156000Y-125878500I0J-232500D01*
G01*
X124156000Y-126343500D01*
G75*
G02*
X123923500Y-126576000I-232500J0D01*
G01*
G37*
G36*
G01*
X126223500Y-127726000D02*
X125758500Y-127726000D01*
G75*
G02*
X125526000Y-127493500I0J232500D01*
G01*
X125526000Y-127028500D01*
G75*
G02*
X125758500Y-126796000I232500J0D01*
G01*
X126223500Y-126796000D01*
G75*
G02*
X126456000Y-127028500I0J-232500D01*
G01*
X126456000Y-127493500D01*
G75*
G02*
X126223500Y-127726000I-232500J0D01*
G01*
G37*
G36*
G01*
X125073500Y-127726000D02*
X124608500Y-127726000D01*
G75*
G02*
X124376000Y-127493500I0J232500D01*
G01*
X124376000Y-127028500D01*
G75*
G02*
X124608500Y-126796000I232500J0D01*
G01*
X125073500Y-126796000D01*
G75*
G02*
X125306000Y-127028500I0J-232500D01*
G01*
X125306000Y-127493500D01*
G75*
G02*
X125073500Y-127726000I-232500J0D01*
G01*
G37*
G36*
G01*
X123923500Y-127726000D02*
X123458500Y-127726000D01*
G75*
G02*
X123226000Y-127493500I0J232500D01*
G01*
X123226000Y-127028500D01*
G75*
G02*
X123458500Y-126796000I232500J0D01*
G01*
X123923500Y-126796000D01*
G75*
G02*
X124156000Y-127028500I0J-232500D01*
G01*
X124156000Y-127493500D01*
G75*
G02*
X123923500Y-127726000I-232500J0D01*
G01*
G37*
G36*
G01*
X122778500Y-127986000D02*
X122028500Y-127986000D01*
G75*
G02*
X121966000Y-127923500I0J62500D01*
G01*
X121966000Y-127798500D01*
G75*
G02*
X122028500Y-127736000I62500J0D01*
G01*
X122778500Y-127736000D01*
G75*
G02*
X122841000Y-127798500I0J-62500D01*
G01*
X122841000Y-127923500D01*
G75*
G02*
X122778500Y-127986000I-62500J0D01*
G01*
G37*
G36*
G01*
X122778500Y-127486000D02*
X122028500Y-127486000D01*
G75*
G02*
X121966000Y-127423500I0J62500D01*
G01*
X121966000Y-127298500D01*
G75*
G02*
X122028500Y-127236000I62500J0D01*
G01*
X122778500Y-127236000D01*
G75*
G02*
X122841000Y-127298500I0J-62500D01*
G01*
X122841000Y-127423500D01*
G75*
G02*
X122778500Y-127486000I-62500J0D01*
G01*
G37*
G36*
G01*
X122778500Y-126986000D02*
X122028500Y-126986000D01*
G75*
G02*
X121966000Y-126923500I0J62500D01*
G01*
X121966000Y-126798500D01*
G75*
G02*
X122028500Y-126736000I62500J0D01*
G01*
X122778500Y-126736000D01*
G75*
G02*
X122841000Y-126798500I0J-62500D01*
G01*
X122841000Y-126923500D01*
G75*
G02*
X122778500Y-126986000I-62500J0D01*
G01*
G37*
G36*
G01*
X122778500Y-126486000D02*
X122028500Y-126486000D01*
G75*
G02*
X121966000Y-126423500I0J62500D01*
G01*
X121966000Y-126298500D01*
G75*
G02*
X122028500Y-126236000I62500J0D01*
G01*
X122778500Y-126236000D01*
G75*
G02*
X122841000Y-126298500I0J-62500D01*
G01*
X122841000Y-126423500D01*
G75*
G02*
X122778500Y-126486000I-62500J0D01*
G01*
G37*
G36*
G01*
X122778500Y-125986000D02*
X122028500Y-125986000D01*
G75*
G02*
X121966000Y-125923500I0J62500D01*
G01*
X121966000Y-125798500D01*
G75*
G02*
X122028500Y-125736000I62500J0D01*
G01*
X122778500Y-125736000D01*
G75*
G02*
X122841000Y-125798500I0J-62500D01*
G01*
X122841000Y-125923500D01*
G75*
G02*
X122778500Y-125986000I-62500J0D01*
G01*
G37*
G36*
G01*
X122778500Y-125486000D02*
X122028500Y-125486000D01*
G75*
G02*
X121966000Y-125423500I0J62500D01*
G01*
X121966000Y-125298500D01*
G75*
G02*
X122028500Y-125236000I62500J0D01*
G01*
X122778500Y-125236000D01*
G75*
G02*
X122841000Y-125298500I0J-62500D01*
G01*
X122841000Y-125423500D01*
G75*
G02*
X122778500Y-125486000I-62500J0D01*
G01*
G37*
G36*
G01*
X122778500Y-124986000D02*
X122028500Y-124986000D01*
G75*
G02*
X121966000Y-124923500I0J62500D01*
G01*
X121966000Y-124798500D01*
G75*
G02*
X122028500Y-124736000I62500J0D01*
G01*
X122778500Y-124736000D01*
G75*
G02*
X122841000Y-124798500I0J-62500D01*
G01*
X122841000Y-124923500D01*
G75*
G02*
X122778500Y-124986000I-62500J0D01*
G01*
G37*
G36*
G01*
X122778500Y-124486000D02*
X122028500Y-124486000D01*
G75*
G02*
X121966000Y-124423500I0J62500D01*
G01*
X121966000Y-124298500D01*
G75*
G02*
X122028500Y-124236000I62500J0D01*
G01*
X122778500Y-124236000D01*
G75*
G02*
X122841000Y-124298500I0J-62500D01*
G01*
X122841000Y-124423500D01*
G75*
G02*
X122778500Y-124486000I-62500J0D01*
G01*
G37*
G36*
G01*
X123153500Y-124111000D02*
X123028500Y-124111000D01*
G75*
G02*
X122966000Y-124048500I0J62500D01*
G01*
X122966000Y-123298500D01*
G75*
G02*
X123028500Y-123236000I62500J0D01*
G01*
X123153500Y-123236000D01*
G75*
G02*
X123216000Y-123298500I0J-62500D01*
G01*
X123216000Y-124048500D01*
G75*
G02*
X123153500Y-124111000I-62500J0D01*
G01*
G37*
G36*
G01*
X123653500Y-124111000D02*
X123528500Y-124111000D01*
G75*
G02*
X123466000Y-124048500I0J62500D01*
G01*
X123466000Y-123298500D01*
G75*
G02*
X123528500Y-123236000I62500J0D01*
G01*
X123653500Y-123236000D01*
G75*
G02*
X123716000Y-123298500I0J-62500D01*
G01*
X123716000Y-124048500D01*
G75*
G02*
X123653500Y-124111000I-62500J0D01*
G01*
G37*
G36*
G01*
X124153500Y-124111000D02*
X124028500Y-124111000D01*
G75*
G02*
X123966000Y-124048500I0J62500D01*
G01*
X123966000Y-123298500D01*
G75*
G02*
X124028500Y-123236000I62500J0D01*
G01*
X124153500Y-123236000D01*
G75*
G02*
X124216000Y-123298500I0J-62500D01*
G01*
X124216000Y-124048500D01*
G75*
G02*
X124153500Y-124111000I-62500J0D01*
G01*
G37*
G36*
G01*
X124653500Y-124111000D02*
X124528500Y-124111000D01*
G75*
G02*
X124466000Y-124048500I0J62500D01*
G01*
X124466000Y-123298500D01*
G75*
G02*
X124528500Y-123236000I62500J0D01*
G01*
X124653500Y-123236000D01*
G75*
G02*
X124716000Y-123298500I0J-62500D01*
G01*
X124716000Y-124048500D01*
G75*
G02*
X124653500Y-124111000I-62500J0D01*
G01*
G37*
G36*
G01*
X125153500Y-124111000D02*
X125028500Y-124111000D01*
G75*
G02*
X124966000Y-124048500I0J62500D01*
G01*
X124966000Y-123298500D01*
G75*
G02*
X125028500Y-123236000I62500J0D01*
G01*
X125153500Y-123236000D01*
G75*
G02*
X125216000Y-123298500I0J-62500D01*
G01*
X125216000Y-124048500D01*
G75*
G02*
X125153500Y-124111000I-62500J0D01*
G01*
G37*
G36*
G01*
X125653500Y-124111000D02*
X125528500Y-124111000D01*
G75*
G02*
X125466000Y-124048500I0J62500D01*
G01*
X125466000Y-123298500D01*
G75*
G02*
X125528500Y-123236000I62500J0D01*
G01*
X125653500Y-123236000D01*
G75*
G02*
X125716000Y-123298500I0J-62500D01*
G01*
X125716000Y-124048500D01*
G75*
G02*
X125653500Y-124111000I-62500J0D01*
G01*
G37*
G36*
G01*
X126153500Y-124111000D02*
X126028500Y-124111000D01*
G75*
G02*
X125966000Y-124048500I0J62500D01*
G01*
X125966000Y-123298500D01*
G75*
G02*
X126028500Y-123236000I62500J0D01*
G01*
X126153500Y-123236000D01*
G75*
G02*
X126216000Y-123298500I0J-62500D01*
G01*
X126216000Y-124048500D01*
G75*
G02*
X126153500Y-124111000I-62500J0D01*
G01*
G37*
G36*
G01*
X126653500Y-124111000D02*
X126528500Y-124111000D01*
G75*
G02*
X126466000Y-124048500I0J62500D01*
G01*
X126466000Y-123298500D01*
G75*
G02*
X126528500Y-123236000I62500J0D01*
G01*
X126653500Y-123236000D01*
G75*
G02*
X126716000Y-123298500I0J-62500D01*
G01*
X126716000Y-124048500D01*
G75*
G02*
X126653500Y-124111000I-62500J0D01*
G01*
G37*
G36*
G01*
X127653500Y-124486000D02*
X126903500Y-124486000D01*
G75*
G02*
X126841000Y-124423500I0J62500D01*
G01*
X126841000Y-124298500D01*
G75*
G02*
X126903500Y-124236000I62500J0D01*
G01*
X127653500Y-124236000D01*
G75*
G02*
X127716000Y-124298500I0J-62500D01*
G01*
X127716000Y-124423500D01*
G75*
G02*
X127653500Y-124486000I-62500J0D01*
G01*
G37*
G36*
G01*
X127653500Y-124986000D02*
X126903500Y-124986000D01*
G75*
G02*
X126841000Y-124923500I0J62500D01*
G01*
X126841000Y-124798500D01*
G75*
G02*
X126903500Y-124736000I62500J0D01*
G01*
X127653500Y-124736000D01*
G75*
G02*
X127716000Y-124798500I0J-62500D01*
G01*
X127716000Y-124923500D01*
G75*
G02*
X127653500Y-124986000I-62500J0D01*
G01*
G37*
G36*
G01*
X127653500Y-125486000D02*
X126903500Y-125486000D01*
G75*
G02*
X126841000Y-125423500I0J62500D01*
G01*
X126841000Y-125298500D01*
G75*
G02*
X126903500Y-125236000I62500J0D01*
G01*
X127653500Y-125236000D01*
G75*
G02*
X127716000Y-125298500I0J-62500D01*
G01*
X127716000Y-125423500D01*
G75*
G02*
X127653500Y-125486000I-62500J0D01*
G01*
G37*
G36*
G01*
X127653500Y-125986000D02*
X126903500Y-125986000D01*
G75*
G02*
X126841000Y-125923500I0J62500D01*
G01*
X126841000Y-125798500D01*
G75*
G02*
X126903500Y-125736000I62500J0D01*
G01*
X127653500Y-125736000D01*
G75*
G02*
X127716000Y-125798500I0J-62500D01*
G01*
X127716000Y-125923500D01*
G75*
G02*
X127653500Y-125986000I-62500J0D01*
G01*
G37*
G36*
G01*
X127653500Y-126486000D02*
X126903500Y-126486000D01*
G75*
G02*
X126841000Y-126423500I0J62500D01*
G01*
X126841000Y-126298500D01*
G75*
G02*
X126903500Y-126236000I62500J0D01*
G01*
X127653500Y-126236000D01*
G75*
G02*
X127716000Y-126298500I0J-62500D01*
G01*
X127716000Y-126423500D01*
G75*
G02*
X127653500Y-126486000I-62500J0D01*
G01*
G37*
G36*
G01*
X127653500Y-126986000D02*
X126903500Y-126986000D01*
G75*
G02*
X126841000Y-126923500I0J62500D01*
G01*
X126841000Y-126798500D01*
G75*
G02*
X126903500Y-126736000I62500J0D01*
G01*
X127653500Y-126736000D01*
G75*
G02*
X127716000Y-126798500I0J-62500D01*
G01*
X127716000Y-126923500D01*
G75*
G02*
X127653500Y-126986000I-62500J0D01*
G01*
G37*
G36*
G01*
X127653500Y-127486000D02*
X126903500Y-127486000D01*
G75*
G02*
X126841000Y-127423500I0J62500D01*
G01*
X126841000Y-127298500D01*
G75*
G02*
X126903500Y-127236000I62500J0D01*
G01*
X127653500Y-127236000D01*
G75*
G02*
X127716000Y-127298500I0J-62500D01*
G01*
X127716000Y-127423500D01*
G75*
G02*
X127653500Y-127486000I-62500J0D01*
G01*
G37*
G36*
G01*
X127653500Y-127986000D02*
X126903500Y-127986000D01*
G75*
G02*
X126841000Y-127923500I0J62500D01*
G01*
X126841000Y-127798500D01*
G75*
G02*
X126903500Y-127736000I62500J0D01*
G01*
X127653500Y-127736000D01*
G75*
G02*
X127716000Y-127798500I0J-62500D01*
G01*
X127716000Y-127923500D01*
G75*
G02*
X127653500Y-127986000I-62500J0D01*
G01*
G37*
G36*
G01*
X126653500Y-128986000D02*
X126528500Y-128986000D01*
G75*
G02*
X126466000Y-128923500I0J62500D01*
G01*
X126466000Y-128173500D01*
G75*
G02*
X126528500Y-128111000I62500J0D01*
G01*
X126653500Y-128111000D01*
G75*
G02*
X126716000Y-128173500I0J-62500D01*
G01*
X126716000Y-128923500D01*
G75*
G02*
X126653500Y-128986000I-62500J0D01*
G01*
G37*
G36*
G01*
X126153500Y-128986000D02*
X126028500Y-128986000D01*
G75*
G02*
X125966000Y-128923500I0J62500D01*
G01*
X125966000Y-128173500D01*
G75*
G02*
X126028500Y-128111000I62500J0D01*
G01*
X126153500Y-128111000D01*
G75*
G02*
X126216000Y-128173500I0J-62500D01*
G01*
X126216000Y-128923500D01*
G75*
G02*
X126153500Y-128986000I-62500J0D01*
G01*
G37*
G36*
G01*
X125653500Y-128986000D02*
X125528500Y-128986000D01*
G75*
G02*
X125466000Y-128923500I0J62500D01*
G01*
X125466000Y-128173500D01*
G75*
G02*
X125528500Y-128111000I62500J0D01*
G01*
X125653500Y-128111000D01*
G75*
G02*
X125716000Y-128173500I0J-62500D01*
G01*
X125716000Y-128923500D01*
G75*
G02*
X125653500Y-128986000I-62500J0D01*
G01*
G37*
G36*
G01*
X125153500Y-128986000D02*
X125028500Y-128986000D01*
G75*
G02*
X124966000Y-128923500I0J62500D01*
G01*
X124966000Y-128173500D01*
G75*
G02*
X125028500Y-128111000I62500J0D01*
G01*
X125153500Y-128111000D01*
G75*
G02*
X125216000Y-128173500I0J-62500D01*
G01*
X125216000Y-128923500D01*
G75*
G02*
X125153500Y-128986000I-62500J0D01*
G01*
G37*
G36*
G01*
X124653500Y-128986000D02*
X124528500Y-128986000D01*
G75*
G02*
X124466000Y-128923500I0J62500D01*
G01*
X124466000Y-128173500D01*
G75*
G02*
X124528500Y-128111000I62500J0D01*
G01*
X124653500Y-128111000D01*
G75*
G02*
X124716000Y-128173500I0J-62500D01*
G01*
X124716000Y-128923500D01*
G75*
G02*
X124653500Y-128986000I-62500J0D01*
G01*
G37*
G36*
G01*
X124153500Y-128986000D02*
X124028500Y-128986000D01*
G75*
G02*
X123966000Y-128923500I0J62500D01*
G01*
X123966000Y-128173500D01*
G75*
G02*
X124028500Y-128111000I62500J0D01*
G01*
X124153500Y-128111000D01*
G75*
G02*
X124216000Y-128173500I0J-62500D01*
G01*
X124216000Y-128923500D01*
G75*
G02*
X124153500Y-128986000I-62500J0D01*
G01*
G37*
G36*
G01*
X123653500Y-128986000D02*
X123528500Y-128986000D01*
G75*
G02*
X123466000Y-128923500I0J62500D01*
G01*
X123466000Y-128173500D01*
G75*
G02*
X123528500Y-128111000I62500J0D01*
G01*
X123653500Y-128111000D01*
G75*
G02*
X123716000Y-128173500I0J-62500D01*
G01*
X123716000Y-128923500D01*
G75*
G02*
X123653500Y-128986000I-62500J0D01*
G01*
G37*
G36*
G01*
X123153500Y-128986000D02*
X123028500Y-128986000D01*
G75*
G02*
X122966000Y-128923500I0J62500D01*
G01*
X122966000Y-128173500D01*
G75*
G02*
X123028500Y-128111000I62500J0D01*
G01*
X123153500Y-128111000D01*
G75*
G02*
X123216000Y-128173500I0J-62500D01*
G01*
X123216000Y-128923500D01*
G75*
G02*
X123153500Y-128986000I-62500J0D01*
G01*
G37*
G04 #@! TD*
G04 #@! TO.C,R7*
G36*
G01*
X129173000Y-129482000D02*
X129173000Y-129852000D01*
G75*
G02*
X129038000Y-129987000I-135000J0D01*
G01*
X128768000Y-129987000D01*
G75*
G02*
X128633000Y-129852000I0J135000D01*
G01*
X128633000Y-129482000D01*
G75*
G02*
X128768000Y-129347000I135000J0D01*
G01*
X129038000Y-129347000D01*
G75*
G02*
X129173000Y-129482000I0J-135000D01*
G01*
G37*
G36*
G01*
X130193000Y-129482000D02*
X130193000Y-129852000D01*
G75*
G02*
X130058000Y-129987000I-135000J0D01*
G01*
X129788000Y-129987000D01*
G75*
G02*
X129653000Y-129852000I0J135000D01*
G01*
X129653000Y-129482000D01*
G75*
G02*
X129788000Y-129347000I135000J0D01*
G01*
X130058000Y-129347000D01*
G75*
G02*
X130193000Y-129482000I0J-135000D01*
G01*
G37*
G04 #@! TD*
G04 #@! TO.C,R5*
G36*
G01*
X131840000Y-124402000D02*
X131840000Y-124772000D01*
G75*
G02*
X131705000Y-124907000I-135000J0D01*
G01*
X131435000Y-124907000D01*
G75*
G02*
X131300000Y-124772000I0J135000D01*
G01*
X131300000Y-124402000D01*
G75*
G02*
X131435000Y-124267000I135000J0D01*
G01*
X131705000Y-124267000D01*
G75*
G02*
X131840000Y-124402000I0J-135000D01*
G01*
G37*
G36*
G01*
X132860000Y-124402000D02*
X132860000Y-124772000D01*
G75*
G02*
X132725000Y-124907000I-135000J0D01*
G01*
X132455000Y-124907000D01*
G75*
G02*
X132320000Y-124772000I0J135000D01*
G01*
X132320000Y-124402000D01*
G75*
G02*
X132455000Y-124267000I135000J0D01*
G01*
X132725000Y-124267000D01*
G75*
G02*
X132860000Y-124402000I0J-135000D01*
G01*
G37*
G04 #@! TD*
G04 #@! TO.C,R4*
G36*
G01*
X131840000Y-123005000D02*
X131840000Y-123375000D01*
G75*
G02*
X131705000Y-123510000I-135000J0D01*
G01*
X131435000Y-123510000D01*
G75*
G02*
X131300000Y-123375000I0J135000D01*
G01*
X131300000Y-123005000D01*
G75*
G02*
X131435000Y-122870000I135000J0D01*
G01*
X131705000Y-122870000D01*
G75*
G02*
X131840000Y-123005000I0J-135000D01*
G01*
G37*
G36*
G01*
X132860000Y-123005000D02*
X132860000Y-123375000D01*
G75*
G02*
X132725000Y-123510000I-135000J0D01*
G01*
X132455000Y-123510000D01*
G75*
G02*
X132320000Y-123375000I0J135000D01*
G01*
X132320000Y-123005000D01*
G75*
G02*
X132455000Y-122870000I135000J0D01*
G01*
X132725000Y-122870000D01*
G75*
G02*
X132860000Y-123005000I0J-135000D01*
G01*
G37*
G04 #@! TD*
G04 #@! TO.C,R2*
G36*
G01*
X129808000Y-124402000D02*
X129808000Y-124772000D01*
G75*
G02*
X129673000Y-124907000I-135000J0D01*
G01*
X129403000Y-124907000D01*
G75*
G02*
X129268000Y-124772000I0J135000D01*
G01*
X129268000Y-124402000D01*
G75*
G02*
X129403000Y-124267000I135000J0D01*
G01*
X129673000Y-124267000D01*
G75*
G02*
X129808000Y-124402000I0J-135000D01*
G01*
G37*
G36*
G01*
X130828000Y-124402000D02*
X130828000Y-124772000D01*
G75*
G02*
X130693000Y-124907000I-135000J0D01*
G01*
X130423000Y-124907000D01*
G75*
G02*
X130288000Y-124772000I0J135000D01*
G01*
X130288000Y-124402000D01*
G75*
G02*
X130423000Y-124267000I135000J0D01*
G01*
X130693000Y-124267000D01*
G75*
G02*
X130828000Y-124402000I0J-135000D01*
G01*
G37*
G04 #@! TD*
G04 #@! TO.C,R1*
G36*
G01*
X129300000Y-126815000D02*
X129300000Y-127185000D01*
G75*
G02*
X129165000Y-127320000I-135000J0D01*
G01*
X128895000Y-127320000D01*
G75*
G02*
X128760000Y-127185000I0J135000D01*
G01*
X128760000Y-126815000D01*
G75*
G02*
X128895000Y-126680000I135000J0D01*
G01*
X129165000Y-126680000D01*
G75*
G02*
X129300000Y-126815000I0J-135000D01*
G01*
G37*
G36*
G01*
X130320000Y-126815000D02*
X130320000Y-127185000D01*
G75*
G02*
X130185000Y-127320000I-135000J0D01*
G01*
X129915000Y-127320000D01*
G75*
G02*
X129780000Y-127185000I0J135000D01*
G01*
X129780000Y-126815000D01*
G75*
G02*
X129915000Y-126680000I135000J0D01*
G01*
X130185000Y-126680000D01*
G75*
G02*
X130320000Y-126815000I0J-135000D01*
G01*
G37*
G04 #@! TD*
D13*
G04 #@! TO.C,J3*
X130050000Y-131331000D03*
X129250000Y-131331000D03*
X128750000Y-131331000D03*
X128250000Y-131331000D03*
X127750000Y-131331000D03*
X127250000Y-131331000D03*
X126750000Y-131331000D03*
X126250000Y-131331000D03*
X125750000Y-131331000D03*
X125250000Y-131331000D03*
X124450000Y-131331000D03*
X123650000Y-131331000D03*
X123950000Y-131331000D03*
X124750000Y-131331000D03*
X129550000Y-131331000D03*
X130350000Y-131331000D03*
G04 #@! TD*
G04 #@! TO.C,C3*
G36*
G01*
X121662000Y-135057000D02*
X121162000Y-135057000D01*
G75*
G02*
X120937000Y-134832000I0J225000D01*
G01*
X120937000Y-134382000D01*
G75*
G02*
X121162000Y-134157000I225000J0D01*
G01*
X121662000Y-134157000D01*
G75*
G02*
X121887000Y-134382000I0J-225000D01*
G01*
X121887000Y-134832000D01*
G75*
G02*
X121662000Y-135057000I-225000J0D01*
G01*
G37*
G36*
G01*
X121662000Y-136607000D02*
X121162000Y-136607000D01*
G75*
G02*
X120937000Y-136382000I0J225000D01*
G01*
X120937000Y-135932000D01*
G75*
G02*
X121162000Y-135707000I225000J0D01*
G01*
X121662000Y-135707000D01*
G75*
G02*
X121887000Y-135932000I0J-225000D01*
G01*
X121887000Y-136382000D01*
G75*
G02*
X121662000Y-136607000I-225000J0D01*
G01*
G37*
G04 #@! TD*
G04 #@! TO.C,C2*
G36*
G01*
X128694000Y-124006000D02*
X128354000Y-124006000D01*
G75*
G02*
X128214000Y-123866000I0J140000D01*
G01*
X128214000Y-123586000D01*
G75*
G02*
X128354000Y-123446000I140000J0D01*
G01*
X128694000Y-123446000D01*
G75*
G02*
X128834000Y-123586000I0J-140000D01*
G01*
X128834000Y-123866000D01*
G75*
G02*
X128694000Y-124006000I-140000J0D01*
G01*
G37*
G36*
G01*
X128694000Y-124966000D02*
X128354000Y-124966000D01*
G75*
G02*
X128214000Y-124826000I0J140000D01*
G01*
X128214000Y-124546000D01*
G75*
G02*
X128354000Y-124406000I140000J0D01*
G01*
X128694000Y-124406000D01*
G75*
G02*
X128834000Y-124546000I0J-140000D01*
G01*
X128834000Y-124826000D01*
G75*
G02*
X128694000Y-124966000I-140000J0D01*
G01*
G37*
G04 #@! TD*
G04 #@! TO.C,C1*
G36*
G01*
X121162000Y-131389000D02*
X121662000Y-131389000D01*
G75*
G02*
X121887000Y-131614000I0J-225000D01*
G01*
X121887000Y-132064000D01*
G75*
G02*
X121662000Y-132289000I-225000J0D01*
G01*
X121162000Y-132289000D01*
G75*
G02*
X120937000Y-132064000I0J225000D01*
G01*
X120937000Y-131614000D01*
G75*
G02*
X121162000Y-131389000I225000J0D01*
G01*
G37*
G36*
G01*
X121162000Y-129839000D02*
X121662000Y-129839000D01*
G75*
G02*
X121887000Y-130064000I0J-225000D01*
G01*
X121887000Y-130514000D01*
G75*
G02*
X121662000Y-130739000I-225000J0D01*
G01*
X121162000Y-130739000D01*
G75*
G02*
X120937000Y-130514000I0J225000D01*
G01*
X120937000Y-130064000D01*
G75*
G02*
X121162000Y-129839000I225000J0D01*
G01*
G37*
G04 #@! TD*
M02*
