G04 #@! TF.GenerationSoftware,KiCad,Pcbnew,5.1.9-73d0e3b20d~88~ubuntu16.04.1*
G04 #@! TF.CreationDate,2021-02-23T03:34:03+00:00*
G04 #@! TF.ProjectId,kuiic,6b756969-632e-46b6-9963-61645f706362,rev?*
G04 #@! TF.SameCoordinates,Original*
G04 #@! TF.FileFunction,Copper,L1,Top*
G04 #@! TF.FilePolarity,Positive*
%FSLAX46Y46*%
G04 Gerber Fmt 4.6, Leading zero omitted, Abs format (unit mm)*
G04 Created by KiCad (PCBNEW 5.1.9-73d0e3b20d~88~ubuntu16.04.1) date 2021-02-23 03:34:03*
%MOMM*%
%LPD*%
G01*
G04 APERTURE LIST*
G04 #@! TA.AperFunction,SMDPad,CuDef*
%ADD10R,0.400000X0.700000*%
G04 #@! TD*
G04 #@! TA.AperFunction,ComponentPad*
%ADD11R,2.540000X1.625600*%
G04 #@! TD*
G04 #@! TA.AperFunction,ComponentPad*
%ADD12C,1.625600*%
G04 #@! TD*
G04 #@! TA.AperFunction,ComponentPad*
%ADD13O,1.625600X1.625600*%
G04 #@! TD*
G04 #@! TA.AperFunction,ComponentPad*
%ADD14R,1.625600X1.625600*%
G04 #@! TD*
G04 #@! TA.AperFunction,SMDPad,CuDef*
%ADD15R,0.900000X1.250000*%
G04 #@! TD*
G04 #@! TA.AperFunction,SMDPad,CuDef*
%ADD16R,0.600000X0.500000*%
G04 #@! TD*
G04 #@! TA.AperFunction,SMDPad,CuDef*
%ADD17R,3.450000X3.450000*%
G04 #@! TD*
G04 #@! TA.AperFunction,ComponentPad*
%ADD18O,1.000000X2.100000*%
G04 #@! TD*
G04 #@! TA.AperFunction,ComponentPad*
%ADD19O,1.000000X1.600000*%
G04 #@! TD*
G04 #@! TA.AperFunction,SMDPad,CuDef*
%ADD20R,0.300000X1.150000*%
G04 #@! TD*
G04 #@! TA.AperFunction,ViaPad*
%ADD21C,0.508000*%
G04 #@! TD*
G04 #@! TA.AperFunction,Conductor*
%ADD22C,0.508000*%
G04 #@! TD*
G04 #@! TA.AperFunction,Conductor*
%ADD23C,0.152400*%
G04 #@! TD*
G04 #@! TA.AperFunction,Conductor*
%ADD24C,0.304800*%
G04 #@! TD*
G04 #@! TA.AperFunction,Conductor*
%ADD25C,0.254000*%
G04 #@! TD*
G04 #@! TA.AperFunction,Conductor*
%ADD26C,0.203200*%
G04 #@! TD*
G04 #@! TA.AperFunction,Conductor*
%ADD27C,0.100000*%
G04 #@! TD*
G04 APERTURE END LIST*
G04 #@! TO.P,R6,2*
G04 #@! TO.N,Net-(J3-PadA5)*
G04 #@! TA.AperFunction,SMDPad,CuDef*
G36*
G01*
X123328400Y-129928200D02*
X123328400Y-129558200D01*
G75*
G02*
X123463400Y-129423200I135000J0D01*
G01*
X123733400Y-129423200D01*
G75*
G02*
X123868400Y-129558200I0J-135000D01*
G01*
X123868400Y-129928200D01*
G75*
G02*
X123733400Y-130063200I-135000J0D01*
G01*
X123463400Y-130063200D01*
G75*
G02*
X123328400Y-129928200I0J135000D01*
G01*
G37*
G04 #@! TD.AperFunction*
G04 #@! TO.P,R6,1*
G04 #@! TO.N,GND*
G04 #@! TA.AperFunction,SMDPad,CuDef*
G36*
G01*
X122308400Y-129928200D02*
X122308400Y-129558200D01*
G75*
G02*
X122443400Y-129423200I135000J0D01*
G01*
X122713400Y-129423200D01*
G75*
G02*
X122848400Y-129558200I0J-135000D01*
G01*
X122848400Y-129928200D01*
G75*
G02*
X122713400Y-130063200I-135000J0D01*
G01*
X122443400Y-130063200D01*
G75*
G02*
X122308400Y-129928200I0J135000D01*
G01*
G37*
G04 #@! TD.AperFunction*
G04 #@! TD*
D10*
G04 #@! TO.P,D2,2*
G04 #@! TO.N,Net-(D2-Pad2)*
X121762000Y-133223000D03*
G04 #@! TO.P,D2,1*
G04 #@! TO.N,/+5V*
X121062000Y-133223000D03*
G04 #@! TD*
G04 #@! TO.P,R3,2*
G04 #@! TO.N,/PTA2*
G04 #@! TA.AperFunction,SMDPad,CuDef*
G36*
G01*
X129300000Y-125545000D02*
X129300000Y-125915000D01*
G75*
G02*
X129165000Y-126050000I-135000J0D01*
G01*
X128895000Y-126050000D01*
G75*
G02*
X128760000Y-125915000I0J135000D01*
G01*
X128760000Y-125545000D01*
G75*
G02*
X128895000Y-125410000I135000J0D01*
G01*
X129165000Y-125410000D01*
G75*
G02*
X129300000Y-125545000I0J-135000D01*
G01*
G37*
G04 #@! TD.AperFunction*
G04 #@! TO.P,R3,1*
G04 #@! TO.N,/G*
G04 #@! TA.AperFunction,SMDPad,CuDef*
G36*
G01*
X130320000Y-125545000D02*
X130320000Y-125915000D01*
G75*
G02*
X130185000Y-126050000I-135000J0D01*
G01*
X129915000Y-126050000D01*
G75*
G02*
X129780000Y-125915000I0J135000D01*
G01*
X129780000Y-125545000D01*
G75*
G02*
X129915000Y-125410000I135000J0D01*
G01*
X130185000Y-125410000D01*
G75*
G02*
X130320000Y-125545000I0J-135000D01*
G01*
G37*
G04 #@! TD.AperFunction*
G04 #@! TD*
G04 #@! TO.P,J1,1*
G04 #@! TO.N,GND*
G04 #@! TA.AperFunction,SMDPad,CuDef*
G36*
G01*
X126895000Y-121009000D02*
X126895000Y-122259000D01*
G75*
G02*
X126745000Y-122409000I-150000J0D01*
G01*
X126445000Y-122409000D01*
G75*
G02*
X126295000Y-122259000I0J150000D01*
G01*
X126295000Y-121009000D01*
G75*
G02*
X126445000Y-120859000I150000J0D01*
G01*
X126745000Y-120859000D01*
G75*
G02*
X126895000Y-121009000I0J-150000D01*
G01*
G37*
G04 #@! TD.AperFunction*
G04 #@! TO.P,J1,2*
G04 #@! TO.N,/3V3*
G04 #@! TA.AperFunction,SMDPad,CuDef*
G36*
G01*
X125895000Y-121009000D02*
X125895000Y-122259000D01*
G75*
G02*
X125745000Y-122409000I-150000J0D01*
G01*
X125445000Y-122409000D01*
G75*
G02*
X125295000Y-122259000I0J150000D01*
G01*
X125295000Y-121009000D01*
G75*
G02*
X125445000Y-120859000I150000J0D01*
G01*
X125745000Y-120859000D01*
G75*
G02*
X125895000Y-121009000I0J-150000D01*
G01*
G37*
G04 #@! TD.AperFunction*
G04 #@! TO.P,J1,3*
G04 #@! TO.N,/SDA*
G04 #@! TA.AperFunction,SMDPad,CuDef*
G36*
G01*
X124895000Y-121009000D02*
X124895000Y-122259000D01*
G75*
G02*
X124745000Y-122409000I-150000J0D01*
G01*
X124445000Y-122409000D01*
G75*
G02*
X124295000Y-122259000I0J150000D01*
G01*
X124295000Y-121009000D01*
G75*
G02*
X124445000Y-120859000I150000J0D01*
G01*
X124745000Y-120859000D01*
G75*
G02*
X124895000Y-121009000I0J-150000D01*
G01*
G37*
G04 #@! TD.AperFunction*
G04 #@! TO.P,J1,4*
G04 #@! TO.N,/SCL*
G04 #@! TA.AperFunction,SMDPad,CuDef*
G36*
G01*
X123895000Y-121009000D02*
X123895000Y-122259000D01*
G75*
G02*
X123745000Y-122409000I-150000J0D01*
G01*
X123445000Y-122409000D01*
G75*
G02*
X123295000Y-122259000I0J150000D01*
G01*
X123295000Y-121009000D01*
G75*
G02*
X123445000Y-120859000I150000J0D01*
G01*
X123745000Y-120859000D01*
G75*
G02*
X123895000Y-121009000I0J-150000D01*
G01*
G37*
G04 #@! TD.AperFunction*
G04 #@! TO.P,J1,MP*
G04 #@! TO.N,GND*
G04 #@! TA.AperFunction,SMDPad,CuDef*
G36*
G01*
X128495000Y-117108999D02*
X128495000Y-118409001D01*
G75*
G02*
X128245001Y-118659000I-249999J0D01*
G01*
X127544999Y-118659000D01*
G75*
G02*
X127295000Y-118409001I0J249999D01*
G01*
X127295000Y-117108999D01*
G75*
G02*
X127544999Y-116859000I249999J0D01*
G01*
X128245001Y-116859000D01*
G75*
G02*
X128495000Y-117108999I0J-249999D01*
G01*
G37*
G04 #@! TD.AperFunction*
G04 #@! TA.AperFunction,SMDPad,CuDef*
G36*
G01*
X122895000Y-117108999D02*
X122895000Y-118409001D01*
G75*
G02*
X122645001Y-118659000I-249999J0D01*
G01*
X121944999Y-118659000D01*
G75*
G02*
X121695000Y-118409001I0J249999D01*
G01*
X121695000Y-117108999D01*
G75*
G02*
X121944999Y-116859000I249999J0D01*
G01*
X122645001Y-116859000D01*
G75*
G02*
X122895000Y-117108999I0J-249999D01*
G01*
G37*
G04 #@! TD.AperFunction*
G04 #@! TD*
D11*
G04 #@! TO.P,J5,4*
G04 #@! TO.N,/C3*
X135890000Y-127000000D03*
G04 #@! TO.P,J5,7*
G04 #@! TO.N,/TX*
X135890000Y-119380000D03*
G04 #@! TO.P,J5,3*
G04 #@! TO.N,/C2*
X135890000Y-129540000D03*
G04 #@! TO.P,J5,1*
G04 #@! TO.N,/AN*
X135890000Y-134620000D03*
G04 #@! TO.P,J5,5*
G04 #@! TO.N,/SDA*
X135890000Y-124460000D03*
G04 #@! TO.P,J5,2*
G04 #@! TO.N,/C1*
X135890000Y-132080000D03*
G04 #@! TO.P,J5,6*
G04 #@! TO.N,/SCL*
X135890000Y-121920000D03*
D12*
G04 #@! TO.P,J5,1*
G04 #@! TO.N,/AN*
X134620000Y-134620000D03*
D13*
G04 #@! TO.P,J5,2*
G04 #@! TO.N,/C1*
X134620000Y-132080000D03*
G04 #@! TO.P,J5,3*
G04 #@! TO.N,/C2*
X134620000Y-129540000D03*
G04 #@! TO.P,J5,4*
G04 #@! TO.N,/C3*
X134620000Y-127000000D03*
G04 #@! TO.P,J5,5*
G04 #@! TO.N,/SDA*
X134620000Y-124460000D03*
G04 #@! TO.P,J5,6*
G04 #@! TO.N,/SCL*
X134620000Y-121920000D03*
G04 #@! TO.P,J5,7*
G04 #@! TO.N,/TX*
X134620000Y-119380000D03*
G04 #@! TD*
D11*
G04 #@! TO.P,J4,4*
G04 #@! TO.N,/FX7*
X118110000Y-127000000D03*
G04 #@! TO.P,J4,7*
G04 #@! TO.N,/+5V*
X118110000Y-134620000D03*
G04 #@! TO.P,J4,3*
G04 #@! TO.N,/FX6*
X118110000Y-124460000D03*
G04 #@! TO.P,J4,1*
G04 #@! TO.N,/FX4*
X118110000Y-119380000D03*
G04 #@! TO.P,J4,5*
G04 #@! TO.N,/3V3*
X118110000Y-129540000D03*
G04 #@! TO.P,J4,2*
G04 #@! TO.N,/FX5*
X118110000Y-121920000D03*
G04 #@! TO.P,J4,6*
G04 #@! TO.N,GND*
X118110000Y-132080000D03*
D12*
G04 #@! TO.P,J4,1*
G04 #@! TO.N,/FX4*
X119380000Y-119380000D03*
D13*
G04 #@! TO.P,J4,2*
G04 #@! TO.N,/FX5*
X119380000Y-121920000D03*
G04 #@! TO.P,J4,3*
G04 #@! TO.N,/FX6*
X119380000Y-124460000D03*
G04 #@! TO.P,J4,4*
G04 #@! TO.N,/FX7*
X119380000Y-127000000D03*
G04 #@! TO.P,J4,5*
G04 #@! TO.N,/3V3*
X119380000Y-129540000D03*
D14*
G04 #@! TO.P,J4,6*
G04 #@! TO.N,GND*
X119380000Y-132080000D03*
D13*
G04 #@! TO.P,J4,7*
G04 #@! TO.N,/+5V*
X119380000Y-134620000D03*
G04 #@! TD*
D15*
G04 #@! TO.P,SW1,1*
G04 #@! TO.N,GND*
X131941000Y-117709000D03*
G04 #@! TO.P,SW1,2*
G04 #@! TO.N,/RST#*
X130441000Y-117709000D03*
G04 #@! TO.P,SW1,1*
G04 #@! TO.N,GND*
X131941000Y-121559000D03*
G04 #@! TO.P,SW1,2*
G04 #@! TO.N,/RST#*
X130441000Y-121559000D03*
G04 #@! TD*
D16*
G04 #@! TO.P,D1,GK*
G04 #@! TO.N,GND*
X132526000Y-125665000D03*
G04 #@! TO.P,D1,GA*
G04 #@! TO.N,/G*
X131126000Y-125665000D03*
G04 #@! TO.P,D1,RK*
G04 #@! TO.N,/PTA1*
X132526000Y-126365000D03*
G04 #@! TO.P,D1,RA*
G04 #@! TO.N,/R*
X131126000Y-126365000D03*
G04 #@! TO.P,D1,BK*
G04 #@! TO.N,/PTA2*
X132526000Y-127065000D03*
G04 #@! TO.P,D1,BA*
G04 #@! TO.N,/B*
X131126000Y-127065000D03*
G04 #@! TD*
D17*
G04 #@! TO.P,U1,33*
G04 #@! TO.N,GND*
X124841000Y-126111000D03*
G04 #@! TO.P,U1,32*
G04 #@! TO.N,/FX7*
G04 #@! TA.AperFunction,SMDPad,CuDef*
G36*
G01*
X122778500Y-127986000D02*
X122028500Y-127986000D01*
G75*
G02*
X121966000Y-127923500I0J62500D01*
G01*
X121966000Y-127798500D01*
G75*
G02*
X122028500Y-127736000I62500J0D01*
G01*
X122778500Y-127736000D01*
G75*
G02*
X122841000Y-127798500I0J-62500D01*
G01*
X122841000Y-127923500D01*
G75*
G02*
X122778500Y-127986000I-62500J0D01*
G01*
G37*
G04 #@! TD.AperFunction*
G04 #@! TO.P,U1,31*
G04 #@! TO.N,/FX6*
G04 #@! TA.AperFunction,SMDPad,CuDef*
G36*
G01*
X122778500Y-127486000D02*
X122028500Y-127486000D01*
G75*
G02*
X121966000Y-127423500I0J62500D01*
G01*
X121966000Y-127298500D01*
G75*
G02*
X122028500Y-127236000I62500J0D01*
G01*
X122778500Y-127236000D01*
G75*
G02*
X122841000Y-127298500I0J-62500D01*
G01*
X122841000Y-127423500D01*
G75*
G02*
X122778500Y-127486000I-62500J0D01*
G01*
G37*
G04 #@! TD.AperFunction*
G04 #@! TO.P,U1,30*
G04 #@! TO.N,/FX5*
G04 #@! TA.AperFunction,SMDPad,CuDef*
G36*
G01*
X122778500Y-126986000D02*
X122028500Y-126986000D01*
G75*
G02*
X121966000Y-126923500I0J62500D01*
G01*
X121966000Y-126798500D01*
G75*
G02*
X122028500Y-126736000I62500J0D01*
G01*
X122778500Y-126736000D01*
G75*
G02*
X122841000Y-126798500I0J-62500D01*
G01*
X122841000Y-126923500D01*
G75*
G02*
X122778500Y-126986000I-62500J0D01*
G01*
G37*
G04 #@! TD.AperFunction*
G04 #@! TO.P,U1,29*
G04 #@! TO.N,/FX4*
G04 #@! TA.AperFunction,SMDPad,CuDef*
G36*
G01*
X122778500Y-126486000D02*
X122028500Y-126486000D01*
G75*
G02*
X121966000Y-126423500I0J62500D01*
G01*
X121966000Y-126298500D01*
G75*
G02*
X122028500Y-126236000I62500J0D01*
G01*
X122778500Y-126236000D01*
G75*
G02*
X122841000Y-126298500I0J-62500D01*
G01*
X122841000Y-126423500D01*
G75*
G02*
X122778500Y-126486000I-62500J0D01*
G01*
G37*
G04 #@! TD.AperFunction*
G04 #@! TO.P,U1,28*
G04 #@! TO.N,/MISO*
G04 #@! TA.AperFunction,SMDPad,CuDef*
G36*
G01*
X122778500Y-125986000D02*
X122028500Y-125986000D01*
G75*
G02*
X121966000Y-125923500I0J62500D01*
G01*
X121966000Y-125798500D01*
G75*
G02*
X122028500Y-125736000I62500J0D01*
G01*
X122778500Y-125736000D01*
G75*
G02*
X122841000Y-125798500I0J-62500D01*
G01*
X122841000Y-125923500D01*
G75*
G02*
X122778500Y-125986000I-62500J0D01*
G01*
G37*
G04 #@! TD.AperFunction*
G04 #@! TO.P,U1,27*
G04 #@! TO.N,/MOSI*
G04 #@! TA.AperFunction,SMDPad,CuDef*
G36*
G01*
X122778500Y-125486000D02*
X122028500Y-125486000D01*
G75*
G02*
X121966000Y-125423500I0J62500D01*
G01*
X121966000Y-125298500D01*
G75*
G02*
X122028500Y-125236000I62500J0D01*
G01*
X122778500Y-125236000D01*
G75*
G02*
X122841000Y-125298500I0J-62500D01*
G01*
X122841000Y-125423500D01*
G75*
G02*
X122778500Y-125486000I-62500J0D01*
G01*
G37*
G04 #@! TD.AperFunction*
G04 #@! TO.P,U1,26*
G04 #@! TO.N,/SCK*
G04 #@! TA.AperFunction,SMDPad,CuDef*
G36*
G01*
X122778500Y-124986000D02*
X122028500Y-124986000D01*
G75*
G02*
X121966000Y-124923500I0J62500D01*
G01*
X121966000Y-124798500D01*
G75*
G02*
X122028500Y-124736000I62500J0D01*
G01*
X122778500Y-124736000D01*
G75*
G02*
X122841000Y-124798500I0J-62500D01*
G01*
X122841000Y-124923500D01*
G75*
G02*
X122778500Y-124986000I-62500J0D01*
G01*
G37*
G04 #@! TD.AperFunction*
G04 #@! TO.P,U1,25*
G04 #@! TO.N,/CS#*
G04 #@! TA.AperFunction,SMDPad,CuDef*
G36*
G01*
X122778500Y-124486000D02*
X122028500Y-124486000D01*
G75*
G02*
X121966000Y-124423500I0J62500D01*
G01*
X121966000Y-124298500D01*
G75*
G02*
X122028500Y-124236000I62500J0D01*
G01*
X122778500Y-124236000D01*
G75*
G02*
X122841000Y-124298500I0J-62500D01*
G01*
X122841000Y-124423500D01*
G75*
G02*
X122778500Y-124486000I-62500J0D01*
G01*
G37*
G04 #@! TD.AperFunction*
G04 #@! TO.P,U1,24*
G04 #@! TO.N,/C3*
G04 #@! TA.AperFunction,SMDPad,CuDef*
G36*
G01*
X123153500Y-124111000D02*
X123028500Y-124111000D01*
G75*
G02*
X122966000Y-124048500I0J62500D01*
G01*
X122966000Y-123298500D01*
G75*
G02*
X123028500Y-123236000I62500J0D01*
G01*
X123153500Y-123236000D01*
G75*
G02*
X123216000Y-123298500I0J-62500D01*
G01*
X123216000Y-124048500D01*
G75*
G02*
X123153500Y-124111000I-62500J0D01*
G01*
G37*
G04 #@! TD.AperFunction*
G04 #@! TO.P,U1,23*
G04 #@! TO.N,/C2*
G04 #@! TA.AperFunction,SMDPad,CuDef*
G36*
G01*
X123653500Y-124111000D02*
X123528500Y-124111000D01*
G75*
G02*
X123466000Y-124048500I0J62500D01*
G01*
X123466000Y-123298500D01*
G75*
G02*
X123528500Y-123236000I62500J0D01*
G01*
X123653500Y-123236000D01*
G75*
G02*
X123716000Y-123298500I0J-62500D01*
G01*
X123716000Y-124048500D01*
G75*
G02*
X123653500Y-124111000I-62500J0D01*
G01*
G37*
G04 #@! TD.AperFunction*
G04 #@! TO.P,U1,22*
G04 #@! TO.N,/C1*
G04 #@! TA.AperFunction,SMDPad,CuDef*
G36*
G01*
X124153500Y-124111000D02*
X124028500Y-124111000D01*
G75*
G02*
X123966000Y-124048500I0J62500D01*
G01*
X123966000Y-123298500D01*
G75*
G02*
X124028500Y-123236000I62500J0D01*
G01*
X124153500Y-123236000D01*
G75*
G02*
X124216000Y-123298500I0J-62500D01*
G01*
X124216000Y-124048500D01*
G75*
G02*
X124153500Y-124111000I-62500J0D01*
G01*
G37*
G04 #@! TD.AperFunction*
G04 #@! TO.P,U1,21*
G04 #@! TO.N,/SDA*
G04 #@! TA.AperFunction,SMDPad,CuDef*
G36*
G01*
X124653500Y-124111000D02*
X124528500Y-124111000D01*
G75*
G02*
X124466000Y-124048500I0J62500D01*
G01*
X124466000Y-123298500D01*
G75*
G02*
X124528500Y-123236000I62500J0D01*
G01*
X124653500Y-123236000D01*
G75*
G02*
X124716000Y-123298500I0J-62500D01*
G01*
X124716000Y-124048500D01*
G75*
G02*
X124653500Y-124111000I-62500J0D01*
G01*
G37*
G04 #@! TD.AperFunction*
G04 #@! TO.P,U1,20*
G04 #@! TO.N,/SCL*
G04 #@! TA.AperFunction,SMDPad,CuDef*
G36*
G01*
X125153500Y-124111000D02*
X125028500Y-124111000D01*
G75*
G02*
X124966000Y-124048500I0J62500D01*
G01*
X124966000Y-123298500D01*
G75*
G02*
X125028500Y-123236000I62500J0D01*
G01*
X125153500Y-123236000D01*
G75*
G02*
X125216000Y-123298500I0J-62500D01*
G01*
X125216000Y-124048500D01*
G75*
G02*
X125153500Y-124111000I-62500J0D01*
G01*
G37*
G04 #@! TD.AperFunction*
G04 #@! TO.P,U1,19*
G04 #@! TO.N,/RST#*
G04 #@! TA.AperFunction,SMDPad,CuDef*
G36*
G01*
X125653500Y-124111000D02*
X125528500Y-124111000D01*
G75*
G02*
X125466000Y-124048500I0J62500D01*
G01*
X125466000Y-123298500D01*
G75*
G02*
X125528500Y-123236000I62500J0D01*
G01*
X125653500Y-123236000D01*
G75*
G02*
X125716000Y-123298500I0J-62500D01*
G01*
X125716000Y-124048500D01*
G75*
G02*
X125653500Y-124111000I-62500J0D01*
G01*
G37*
G04 #@! TD.AperFunction*
G04 #@! TO.P,U1,18*
G04 #@! TO.N,Net-(U1-Pad18)*
G04 #@! TA.AperFunction,SMDPad,CuDef*
G36*
G01*
X126153500Y-124111000D02*
X126028500Y-124111000D01*
G75*
G02*
X125966000Y-124048500I0J62500D01*
G01*
X125966000Y-123298500D01*
G75*
G02*
X126028500Y-123236000I62500J0D01*
G01*
X126153500Y-123236000D01*
G75*
G02*
X126216000Y-123298500I0J-62500D01*
G01*
X126216000Y-124048500D01*
G75*
G02*
X126153500Y-124111000I-62500J0D01*
G01*
G37*
G04 #@! TD.AperFunction*
G04 #@! TO.P,U1,17*
G04 #@! TO.N,Net-(U1-Pad17)*
G04 #@! TA.AperFunction,SMDPad,CuDef*
G36*
G01*
X126653500Y-124111000D02*
X126528500Y-124111000D01*
G75*
G02*
X126466000Y-124048500I0J62500D01*
G01*
X126466000Y-123298500D01*
G75*
G02*
X126528500Y-123236000I62500J0D01*
G01*
X126653500Y-123236000D01*
G75*
G02*
X126716000Y-123298500I0J-62500D01*
G01*
X126716000Y-124048500D01*
G75*
G02*
X126653500Y-124111000I-62500J0D01*
G01*
G37*
G04 #@! TD.AperFunction*
G04 #@! TO.P,U1,16*
G04 #@! TO.N,GND*
G04 #@! TA.AperFunction,SMDPad,CuDef*
G36*
G01*
X127653500Y-124486000D02*
X126903500Y-124486000D01*
G75*
G02*
X126841000Y-124423500I0J62500D01*
G01*
X126841000Y-124298500D01*
G75*
G02*
X126903500Y-124236000I62500J0D01*
G01*
X127653500Y-124236000D01*
G75*
G02*
X127716000Y-124298500I0J-62500D01*
G01*
X127716000Y-124423500D01*
G75*
G02*
X127653500Y-124486000I-62500J0D01*
G01*
G37*
G04 #@! TD.AperFunction*
G04 #@! TO.P,U1,15*
G04 #@! TO.N,/3V3*
G04 #@! TA.AperFunction,SMDPad,CuDef*
G36*
G01*
X127653500Y-124986000D02*
X126903500Y-124986000D01*
G75*
G02*
X126841000Y-124923500I0J62500D01*
G01*
X126841000Y-124798500D01*
G75*
G02*
X126903500Y-124736000I62500J0D01*
G01*
X127653500Y-124736000D01*
G75*
G02*
X127716000Y-124798500I0J-62500D01*
G01*
X127716000Y-124923500D01*
G75*
G02*
X127653500Y-124986000I-62500J0D01*
G01*
G37*
G04 #@! TD.AperFunction*
G04 #@! TO.P,U1,14*
G04 #@! TO.N,/NMI#*
G04 #@! TA.AperFunction,SMDPad,CuDef*
G36*
G01*
X127653500Y-125486000D02*
X126903500Y-125486000D01*
G75*
G02*
X126841000Y-125423500I0J62500D01*
G01*
X126841000Y-125298500D01*
G75*
G02*
X126903500Y-125236000I62500J0D01*
G01*
X127653500Y-125236000D01*
G75*
G02*
X127716000Y-125298500I0J-62500D01*
G01*
X127716000Y-125423500D01*
G75*
G02*
X127653500Y-125486000I-62500J0D01*
G01*
G37*
G04 #@! TD.AperFunction*
G04 #@! TO.P,U1,13*
G04 #@! TO.N,/SWD*
G04 #@! TA.AperFunction,SMDPad,CuDef*
G36*
G01*
X127653500Y-125986000D02*
X126903500Y-125986000D01*
G75*
G02*
X126841000Y-125923500I0J62500D01*
G01*
X126841000Y-125798500D01*
G75*
G02*
X126903500Y-125736000I62500J0D01*
G01*
X127653500Y-125736000D01*
G75*
G02*
X127716000Y-125798500I0J-62500D01*
G01*
X127716000Y-125923500D01*
G75*
G02*
X127653500Y-125986000I-62500J0D01*
G01*
G37*
G04 #@! TD.AperFunction*
G04 #@! TO.P,U1,12*
G04 #@! TO.N,/PTA2*
G04 #@! TA.AperFunction,SMDPad,CuDef*
G36*
G01*
X127653500Y-126486000D02*
X126903500Y-126486000D01*
G75*
G02*
X126841000Y-126423500I0J62500D01*
G01*
X126841000Y-126298500D01*
G75*
G02*
X126903500Y-126236000I62500J0D01*
G01*
X127653500Y-126236000D01*
G75*
G02*
X127716000Y-126298500I0J-62500D01*
G01*
X127716000Y-126423500D01*
G75*
G02*
X127653500Y-126486000I-62500J0D01*
G01*
G37*
G04 #@! TD.AperFunction*
G04 #@! TO.P,U1,11*
G04 #@! TO.N,/PTA1*
G04 #@! TA.AperFunction,SMDPad,CuDef*
G36*
G01*
X127653500Y-126986000D02*
X126903500Y-126986000D01*
G75*
G02*
X126841000Y-126923500I0J62500D01*
G01*
X126841000Y-126798500D01*
G75*
G02*
X126903500Y-126736000I62500J0D01*
G01*
X127653500Y-126736000D01*
G75*
G02*
X127716000Y-126798500I0J-62500D01*
G01*
X127716000Y-126923500D01*
G75*
G02*
X127653500Y-126986000I-62500J0D01*
G01*
G37*
G04 #@! TD.AperFunction*
G04 #@! TO.P,U1,10*
G04 #@! TO.N,/SWC*
G04 #@! TA.AperFunction,SMDPad,CuDef*
G36*
G01*
X127653500Y-127486000D02*
X126903500Y-127486000D01*
G75*
G02*
X126841000Y-127423500I0J62500D01*
G01*
X126841000Y-127298500D01*
G75*
G02*
X126903500Y-127236000I62500J0D01*
G01*
X127653500Y-127236000D01*
G75*
G02*
X127716000Y-127298500I0J-62500D01*
G01*
X127716000Y-127423500D01*
G75*
G02*
X127653500Y-127486000I-62500J0D01*
G01*
G37*
G04 #@! TD.AperFunction*
G04 #@! TO.P,U1,9*
G04 #@! TO.N,/AN*
G04 #@! TA.AperFunction,SMDPad,CuDef*
G36*
G01*
X127653500Y-127986000D02*
X126903500Y-127986000D01*
G75*
G02*
X126841000Y-127923500I0J62500D01*
G01*
X126841000Y-127798500D01*
G75*
G02*
X126903500Y-127736000I62500J0D01*
G01*
X127653500Y-127736000D01*
G75*
G02*
X127716000Y-127798500I0J-62500D01*
G01*
X127716000Y-127923500D01*
G75*
G02*
X127653500Y-127986000I-62500J0D01*
G01*
G37*
G04 #@! TD.AperFunction*
G04 #@! TO.P,U1,8*
G04 #@! TO.N,GND*
G04 #@! TA.AperFunction,SMDPad,CuDef*
G36*
G01*
X126653500Y-128986000D02*
X126528500Y-128986000D01*
G75*
G02*
X126466000Y-128923500I0J62500D01*
G01*
X126466000Y-128173500D01*
G75*
G02*
X126528500Y-128111000I62500J0D01*
G01*
X126653500Y-128111000D01*
G75*
G02*
X126716000Y-128173500I0J-62500D01*
G01*
X126716000Y-128923500D01*
G75*
G02*
X126653500Y-128986000I-62500J0D01*
G01*
G37*
G04 #@! TD.AperFunction*
G04 #@! TO.P,U1,7*
G04 #@! TO.N,/3V3*
G04 #@! TA.AperFunction,SMDPad,CuDef*
G36*
G01*
X126153500Y-128986000D02*
X126028500Y-128986000D01*
G75*
G02*
X125966000Y-128923500I0J62500D01*
G01*
X125966000Y-128173500D01*
G75*
G02*
X126028500Y-128111000I62500J0D01*
G01*
X126153500Y-128111000D01*
G75*
G02*
X126216000Y-128173500I0J-62500D01*
G01*
X126216000Y-128923500D01*
G75*
G02*
X126153500Y-128986000I-62500J0D01*
G01*
G37*
G04 #@! TD.AperFunction*
G04 #@! TO.P,U1,6*
G04 #@! TO.N,/+5V*
G04 #@! TA.AperFunction,SMDPad,CuDef*
G36*
G01*
X125653500Y-128986000D02*
X125528500Y-128986000D01*
G75*
G02*
X125466000Y-128923500I0J62500D01*
G01*
X125466000Y-128173500D01*
G75*
G02*
X125528500Y-128111000I62500J0D01*
G01*
X125653500Y-128111000D01*
G75*
G02*
X125716000Y-128173500I0J-62500D01*
G01*
X125716000Y-128923500D01*
G75*
G02*
X125653500Y-128986000I-62500J0D01*
G01*
G37*
G04 #@! TD.AperFunction*
G04 #@! TO.P,U1,5*
G04 #@! TO.N,/3V3*
G04 #@! TA.AperFunction,SMDPad,CuDef*
G36*
G01*
X125153500Y-128986000D02*
X125028500Y-128986000D01*
G75*
G02*
X124966000Y-128923500I0J62500D01*
G01*
X124966000Y-128173500D01*
G75*
G02*
X125028500Y-128111000I62500J0D01*
G01*
X125153500Y-128111000D01*
G75*
G02*
X125216000Y-128173500I0J-62500D01*
G01*
X125216000Y-128923500D01*
G75*
G02*
X125153500Y-128986000I-62500J0D01*
G01*
G37*
G04 #@! TD.AperFunction*
G04 #@! TO.P,U1,4*
G04 #@! TO.N,/D-*
G04 #@! TA.AperFunction,SMDPad,CuDef*
G36*
G01*
X124653500Y-128986000D02*
X124528500Y-128986000D01*
G75*
G02*
X124466000Y-128923500I0J62500D01*
G01*
X124466000Y-128173500D01*
G75*
G02*
X124528500Y-128111000I62500J0D01*
G01*
X124653500Y-128111000D01*
G75*
G02*
X124716000Y-128173500I0J-62500D01*
G01*
X124716000Y-128923500D01*
G75*
G02*
X124653500Y-128986000I-62500J0D01*
G01*
G37*
G04 #@! TD.AperFunction*
G04 #@! TO.P,U1,3*
G04 #@! TO.N,/D+*
G04 #@! TA.AperFunction,SMDPad,CuDef*
G36*
G01*
X124153500Y-128986000D02*
X124028500Y-128986000D01*
G75*
G02*
X123966000Y-128923500I0J62500D01*
G01*
X123966000Y-128173500D01*
G75*
G02*
X124028500Y-128111000I62500J0D01*
G01*
X124153500Y-128111000D01*
G75*
G02*
X124216000Y-128173500I0J-62500D01*
G01*
X124216000Y-128923500D01*
G75*
G02*
X124153500Y-128986000I-62500J0D01*
G01*
G37*
G04 #@! TD.AperFunction*
G04 #@! TO.P,U1,2*
G04 #@! TO.N,GND*
G04 #@! TA.AperFunction,SMDPad,CuDef*
G36*
G01*
X123653500Y-128986000D02*
X123528500Y-128986000D01*
G75*
G02*
X123466000Y-128923500I0J62500D01*
G01*
X123466000Y-128173500D01*
G75*
G02*
X123528500Y-128111000I62500J0D01*
G01*
X123653500Y-128111000D01*
G75*
G02*
X123716000Y-128173500I0J-62500D01*
G01*
X123716000Y-128923500D01*
G75*
G02*
X123653500Y-128986000I-62500J0D01*
G01*
G37*
G04 #@! TD.AperFunction*
G04 #@! TO.P,U1,1*
G04 #@! TO.N,/TX*
G04 #@! TA.AperFunction,SMDPad,CuDef*
G36*
G01*
X123153500Y-128986000D02*
X123028500Y-128986000D01*
G75*
G02*
X122966000Y-128923500I0J62500D01*
G01*
X122966000Y-128173500D01*
G75*
G02*
X123028500Y-128111000I62500J0D01*
G01*
X123153500Y-128111000D01*
G75*
G02*
X123216000Y-128173500I0J-62500D01*
G01*
X123216000Y-128923500D01*
G75*
G02*
X123153500Y-128986000I-62500J0D01*
G01*
G37*
G04 #@! TD.AperFunction*
G04 #@! TD*
G04 #@! TO.P,R7,2*
G04 #@! TO.N,Net-(J3-PadB5)*
G04 #@! TA.AperFunction,SMDPad,CuDef*
G36*
G01*
X129173000Y-129482000D02*
X129173000Y-129852000D01*
G75*
G02*
X129038000Y-129987000I-135000J0D01*
G01*
X128768000Y-129987000D01*
G75*
G02*
X128633000Y-129852000I0J135000D01*
G01*
X128633000Y-129482000D01*
G75*
G02*
X128768000Y-129347000I135000J0D01*
G01*
X129038000Y-129347000D01*
G75*
G02*
X129173000Y-129482000I0J-135000D01*
G01*
G37*
G04 #@! TD.AperFunction*
G04 #@! TO.P,R7,1*
G04 #@! TO.N,GND*
G04 #@! TA.AperFunction,SMDPad,CuDef*
G36*
G01*
X130193000Y-129482000D02*
X130193000Y-129852000D01*
G75*
G02*
X130058000Y-129987000I-135000J0D01*
G01*
X129788000Y-129987000D01*
G75*
G02*
X129653000Y-129852000I0J135000D01*
G01*
X129653000Y-129482000D01*
G75*
G02*
X129788000Y-129347000I135000J0D01*
G01*
X130058000Y-129347000D01*
G75*
G02*
X130193000Y-129482000I0J-135000D01*
G01*
G37*
G04 #@! TD.AperFunction*
G04 #@! TD*
G04 #@! TO.P,R5,2*
G04 #@! TO.N,/3V3*
G04 #@! TA.AperFunction,SMDPad,CuDef*
G36*
G01*
X131840000Y-124402000D02*
X131840000Y-124772000D01*
G75*
G02*
X131705000Y-124907000I-135000J0D01*
G01*
X131435000Y-124907000D01*
G75*
G02*
X131300000Y-124772000I0J135000D01*
G01*
X131300000Y-124402000D01*
G75*
G02*
X131435000Y-124267000I135000J0D01*
G01*
X131705000Y-124267000D01*
G75*
G02*
X131840000Y-124402000I0J-135000D01*
G01*
G37*
G04 #@! TD.AperFunction*
G04 #@! TO.P,R5,1*
G04 #@! TO.N,/SDA*
G04 #@! TA.AperFunction,SMDPad,CuDef*
G36*
G01*
X132860000Y-124402000D02*
X132860000Y-124772000D01*
G75*
G02*
X132725000Y-124907000I-135000J0D01*
G01*
X132455000Y-124907000D01*
G75*
G02*
X132320000Y-124772000I0J135000D01*
G01*
X132320000Y-124402000D01*
G75*
G02*
X132455000Y-124267000I135000J0D01*
G01*
X132725000Y-124267000D01*
G75*
G02*
X132860000Y-124402000I0J-135000D01*
G01*
G37*
G04 #@! TD.AperFunction*
G04 #@! TD*
G04 #@! TO.P,R4,2*
G04 #@! TO.N,/3V3*
G04 #@! TA.AperFunction,SMDPad,CuDef*
G36*
G01*
X131840000Y-123005000D02*
X131840000Y-123375000D01*
G75*
G02*
X131705000Y-123510000I-135000J0D01*
G01*
X131435000Y-123510000D01*
G75*
G02*
X131300000Y-123375000I0J135000D01*
G01*
X131300000Y-123005000D01*
G75*
G02*
X131435000Y-122870000I135000J0D01*
G01*
X131705000Y-122870000D01*
G75*
G02*
X131840000Y-123005000I0J-135000D01*
G01*
G37*
G04 #@! TD.AperFunction*
G04 #@! TO.P,R4,1*
G04 #@! TO.N,/SCL*
G04 #@! TA.AperFunction,SMDPad,CuDef*
G36*
G01*
X132860000Y-123005000D02*
X132860000Y-123375000D01*
G75*
G02*
X132725000Y-123510000I-135000J0D01*
G01*
X132455000Y-123510000D01*
G75*
G02*
X132320000Y-123375000I0J135000D01*
G01*
X132320000Y-123005000D01*
G75*
G02*
X132455000Y-122870000I135000J0D01*
G01*
X132725000Y-122870000D01*
G75*
G02*
X132860000Y-123005000I0J-135000D01*
G01*
G37*
G04 #@! TD.AperFunction*
G04 #@! TD*
G04 #@! TO.P,R2,2*
G04 #@! TO.N,/3V3*
G04 #@! TA.AperFunction,SMDPad,CuDef*
G36*
G01*
X129808000Y-124402000D02*
X129808000Y-124772000D01*
G75*
G02*
X129673000Y-124907000I-135000J0D01*
G01*
X129403000Y-124907000D01*
G75*
G02*
X129268000Y-124772000I0J135000D01*
G01*
X129268000Y-124402000D01*
G75*
G02*
X129403000Y-124267000I135000J0D01*
G01*
X129673000Y-124267000D01*
G75*
G02*
X129808000Y-124402000I0J-135000D01*
G01*
G37*
G04 #@! TD.AperFunction*
G04 #@! TO.P,R2,1*
G04 #@! TO.N,/R*
G04 #@! TA.AperFunction,SMDPad,CuDef*
G36*
G01*
X130828000Y-124402000D02*
X130828000Y-124772000D01*
G75*
G02*
X130693000Y-124907000I-135000J0D01*
G01*
X130423000Y-124907000D01*
G75*
G02*
X130288000Y-124772000I0J135000D01*
G01*
X130288000Y-124402000D01*
G75*
G02*
X130423000Y-124267000I135000J0D01*
G01*
X130693000Y-124267000D01*
G75*
G02*
X130828000Y-124402000I0J-135000D01*
G01*
G37*
G04 #@! TD.AperFunction*
G04 #@! TD*
G04 #@! TO.P,R1,2*
G04 #@! TO.N,/PTA1*
G04 #@! TA.AperFunction,SMDPad,CuDef*
G36*
G01*
X129300000Y-126815000D02*
X129300000Y-127185000D01*
G75*
G02*
X129165000Y-127320000I-135000J0D01*
G01*
X128895000Y-127320000D01*
G75*
G02*
X128760000Y-127185000I0J135000D01*
G01*
X128760000Y-126815000D01*
G75*
G02*
X128895000Y-126680000I135000J0D01*
G01*
X129165000Y-126680000D01*
G75*
G02*
X129300000Y-126815000I0J-135000D01*
G01*
G37*
G04 #@! TD.AperFunction*
G04 #@! TO.P,R1,1*
G04 #@! TO.N,/B*
G04 #@! TA.AperFunction,SMDPad,CuDef*
G36*
G01*
X130320000Y-126815000D02*
X130320000Y-127185000D01*
G75*
G02*
X130185000Y-127320000I-135000J0D01*
G01*
X129915000Y-127320000D01*
G75*
G02*
X129780000Y-127185000I0J135000D01*
G01*
X129780000Y-126815000D01*
G75*
G02*
X129915000Y-126680000I135000J0D01*
G01*
X130185000Y-126680000D01*
G75*
G02*
X130320000Y-126815000I0J-135000D01*
G01*
G37*
G04 #@! TD.AperFunction*
G04 #@! TD*
D18*
G04 #@! TO.P,J3,S1*
G04 #@! TO.N,GND*
X122680000Y-131896000D03*
X131320000Y-131896000D03*
D19*
X122680000Y-136076000D03*
X131320000Y-136076000D03*
D20*
G04 #@! TO.P,J3,B1*
X130050000Y-131331000D03*
G04 #@! TO.P,J3,B4*
G04 #@! TO.N,Net-(D2-Pad2)*
X129250000Y-131331000D03*
G04 #@! TO.P,J3,B5*
G04 #@! TO.N,Net-(J3-PadB5)*
X128750000Y-131331000D03*
G04 #@! TO.P,J3,A8*
G04 #@! TO.N,Net-(J3-PadA8)*
X128250000Y-131331000D03*
G04 #@! TO.P,J3,B6*
G04 #@! TO.N,/D+*
X127750000Y-131331000D03*
G04 #@! TO.P,J3,A7*
G04 #@! TO.N,/D-*
X127250000Y-131331000D03*
G04 #@! TO.P,J3,A6*
G04 #@! TO.N,/D+*
X126750000Y-131331000D03*
G04 #@! TO.P,J3,B7*
G04 #@! TO.N,/D-*
X126250000Y-131331000D03*
G04 #@! TO.P,J3,A5*
G04 #@! TO.N,Net-(J3-PadA5)*
X125750000Y-131331000D03*
G04 #@! TO.P,J3,B8*
G04 #@! TO.N,Net-(J3-PadB8)*
X125250000Y-131331000D03*
G04 #@! TO.P,J3,A4*
G04 #@! TO.N,Net-(D2-Pad2)*
X124450000Y-131331000D03*
G04 #@! TO.P,J3,A1*
G04 #@! TO.N,GND*
X123650000Y-131331000D03*
G04 #@! TO.P,J3,B12*
X123950000Y-131331000D03*
G04 #@! TO.P,J3,B9*
G04 #@! TO.N,Net-(D2-Pad2)*
X124750000Y-131331000D03*
G04 #@! TO.P,J3,A9*
X129550000Y-131331000D03*
G04 #@! TO.P,J3,A12*
G04 #@! TO.N,GND*
X130350000Y-131331000D03*
G04 #@! TD*
G04 #@! TO.P,C3,2*
G04 #@! TO.N,/+5V*
G04 #@! TA.AperFunction,SMDPad,CuDef*
G36*
G01*
X121662000Y-135057000D02*
X121162000Y-135057000D01*
G75*
G02*
X120937000Y-134832000I0J225000D01*
G01*
X120937000Y-134382000D01*
G75*
G02*
X121162000Y-134157000I225000J0D01*
G01*
X121662000Y-134157000D01*
G75*
G02*
X121887000Y-134382000I0J-225000D01*
G01*
X121887000Y-134832000D01*
G75*
G02*
X121662000Y-135057000I-225000J0D01*
G01*
G37*
G04 #@! TD.AperFunction*
G04 #@! TO.P,C3,1*
G04 #@! TO.N,GND*
G04 #@! TA.AperFunction,SMDPad,CuDef*
G36*
G01*
X121662000Y-136607000D02*
X121162000Y-136607000D01*
G75*
G02*
X120937000Y-136382000I0J225000D01*
G01*
X120937000Y-135932000D01*
G75*
G02*
X121162000Y-135707000I225000J0D01*
G01*
X121662000Y-135707000D01*
G75*
G02*
X121887000Y-135932000I0J-225000D01*
G01*
X121887000Y-136382000D01*
G75*
G02*
X121662000Y-136607000I-225000J0D01*
G01*
G37*
G04 #@! TD.AperFunction*
G04 #@! TD*
G04 #@! TO.P,C2,2*
G04 #@! TO.N,GND*
G04 #@! TA.AperFunction,SMDPad,CuDef*
G36*
G01*
X128694000Y-124006000D02*
X128354000Y-124006000D01*
G75*
G02*
X128214000Y-123866000I0J140000D01*
G01*
X128214000Y-123586000D01*
G75*
G02*
X128354000Y-123446000I140000J0D01*
G01*
X128694000Y-123446000D01*
G75*
G02*
X128834000Y-123586000I0J-140000D01*
G01*
X128834000Y-123866000D01*
G75*
G02*
X128694000Y-124006000I-140000J0D01*
G01*
G37*
G04 #@! TD.AperFunction*
G04 #@! TO.P,C2,1*
G04 #@! TO.N,/3V3*
G04 #@! TA.AperFunction,SMDPad,CuDef*
G36*
G01*
X128694000Y-124966000D02*
X128354000Y-124966000D01*
G75*
G02*
X128214000Y-124826000I0J140000D01*
G01*
X128214000Y-124546000D01*
G75*
G02*
X128354000Y-124406000I140000J0D01*
G01*
X128694000Y-124406000D01*
G75*
G02*
X128834000Y-124546000I0J-140000D01*
G01*
X128834000Y-124826000D01*
G75*
G02*
X128694000Y-124966000I-140000J0D01*
G01*
G37*
G04 #@! TD.AperFunction*
G04 #@! TD*
G04 #@! TO.P,C1,2*
G04 #@! TO.N,GND*
G04 #@! TA.AperFunction,SMDPad,CuDef*
G36*
G01*
X121162000Y-131389000D02*
X121662000Y-131389000D01*
G75*
G02*
X121887000Y-131614000I0J-225000D01*
G01*
X121887000Y-132064000D01*
G75*
G02*
X121662000Y-132289000I-225000J0D01*
G01*
X121162000Y-132289000D01*
G75*
G02*
X120937000Y-132064000I0J225000D01*
G01*
X120937000Y-131614000D01*
G75*
G02*
X121162000Y-131389000I225000J0D01*
G01*
G37*
G04 #@! TD.AperFunction*
G04 #@! TO.P,C1,1*
G04 #@! TO.N,/3V3*
G04 #@! TA.AperFunction,SMDPad,CuDef*
G36*
G01*
X121162000Y-129839000D02*
X121662000Y-129839000D01*
G75*
G02*
X121887000Y-130064000I0J-225000D01*
G01*
X121887000Y-130514000D01*
G75*
G02*
X121662000Y-130739000I-225000J0D01*
G01*
X121162000Y-130739000D01*
G75*
G02*
X120937000Y-130514000I0J225000D01*
G01*
X120937000Y-130064000D01*
G75*
G02*
X121162000Y-129839000I225000J0D01*
G01*
G37*
G04 #@! TD.AperFunction*
G04 #@! TD*
D21*
G04 #@! TO.N,GND*
X126746000Y-120497600D03*
X122682000Y-133858000D03*
X128524000Y-122936000D03*
X132613400Y-129235200D03*
X126111000Y-124841000D03*
X129387602Y-118160802D03*
X123952000Y-118237000D03*
X132969000Y-118999000D03*
X121285000Y-128879600D03*
X127127000Y-129413000D03*
X120650000Y-117983000D03*
X134620000Y-117856000D03*
G04 #@! TO.N,/3V3*
X125476000Y-120497600D03*
X125222000Y-129413000D03*
X129362200Y-123672600D03*
G04 #@! TO.N,/+5V*
X125881661Y-129381722D03*
G04 #@! TO.N,/NMI#*
X128016000Y-125272800D03*
G04 #@! TO.N,/SWD*
X128343651Y-125846189D03*
G04 #@! TO.N,/SWC*
X128320800Y-127152400D03*
G04 #@! TO.N,/RST#*
X129565400Y-122301000D03*
X127863600Y-121513598D03*
G04 #@! TO.N,/SDA*
X128015994Y-119634000D03*
G04 #@! TO.N,/SCL*
X128524000Y-119126008D03*
G04 #@! TO.N,/D-*
X124589959Y-129605619D03*
X125308800Y-132334000D03*
G04 #@! TO.N,/TX*
X120523000Y-128524000D03*
G04 #@! TO.N,/C3*
X121792996Y-120523000D03*
G04 #@! TO.N,/C2*
X122301000Y-120014978D03*
G04 #@! TO.N,/C1*
X124091000Y-122924002D03*
G04 #@! TO.N,/AN*
X127660400Y-130048000D03*
G04 #@! TO.N,/MISO*
X123571000Y-120015000D03*
G04 #@! TO.N,/MOSI*
X122171441Y-123065559D03*
G04 #@! TO.N,/SCK*
X122145240Y-123825076D03*
G04 #@! TO.N,/CS#*
X121818400Y-121412000D03*
G04 #@! TD*
D22*
G04 #@! TO.N,GND*
X121171000Y-132080000D02*
X119380000Y-132080000D01*
X121412000Y-131839000D02*
X121171000Y-132080000D01*
D23*
X126591000Y-127861000D02*
X124841000Y-126111000D01*
X126591000Y-128548500D02*
X126591000Y-127861000D01*
X123591000Y-127361000D02*
X124841000Y-126111000D01*
X123591000Y-128548500D02*
X123591000Y-127361000D01*
X130050000Y-131204000D02*
X130350000Y-131204000D01*
D22*
X126595000Y-120648600D02*
X126746000Y-120497600D01*
X126595000Y-121634000D02*
X126595000Y-120648600D01*
D23*
X127278500Y-124361000D02*
X126591000Y-124361000D01*
X127889000Y-124361000D02*
X128524000Y-123726000D01*
X127278500Y-124361000D02*
X127889000Y-124361000D01*
D22*
X122682000Y-135947000D02*
X122680000Y-135949000D01*
D23*
X122682000Y-133858000D02*
X122682000Y-135947000D01*
X131320000Y-131769000D02*
X131320000Y-135949000D01*
D22*
X127945000Y-117709000D02*
X127895000Y-117759000D01*
X128524000Y-122885200D02*
X128524000Y-122936000D01*
D23*
X128524000Y-123726000D02*
X128524000Y-122885200D01*
X128985800Y-117759000D02*
X127895000Y-117759000D01*
D22*
X129387602Y-118160802D02*
X128985800Y-117759000D01*
X129387602Y-121386598D02*
X129387602Y-118160802D01*
X128524000Y-122250200D02*
X129387602Y-121386598D01*
X128524000Y-122885200D02*
X128524000Y-122250200D01*
D23*
X131320000Y-131769000D02*
X131320000Y-130528600D01*
X131320000Y-130528600D02*
X132613400Y-129235200D01*
D24*
X133435611Y-128412989D02*
X132613400Y-129235200D01*
X133435611Y-125969811D02*
X133435611Y-128412989D01*
D23*
X133130800Y-125665000D02*
X133435611Y-125969811D01*
X132526000Y-125665000D02*
X133130800Y-125665000D01*
D24*
X130050000Y-129794000D02*
X129923000Y-129667000D01*
X124841000Y-126111000D02*
X126111000Y-124841000D01*
D23*
X126591000Y-124361000D02*
X126111000Y-124841000D01*
D22*
X121493000Y-136076000D02*
X121412000Y-136157000D01*
D23*
X131320000Y-136076000D02*
X121493000Y-136076000D01*
D22*
X122578400Y-131794400D02*
X122680000Y-131896000D01*
D23*
X123062000Y-129259600D02*
X122578400Y-129743200D01*
X123229094Y-129259600D02*
X123062000Y-129259600D01*
X123591000Y-128897694D02*
X123229094Y-129259600D01*
X123591000Y-128548500D02*
X123591000Y-128897694D01*
D22*
X122623000Y-131839000D02*
X122680000Y-131896000D01*
D25*
X121412000Y-131839000D02*
X122623000Y-131839000D01*
D22*
X124049000Y-118140000D02*
X123952000Y-118237000D01*
X124049000Y-117759000D02*
X124049000Y-118140000D01*
D23*
X122295000Y-117759000D02*
X124049000Y-117759000D01*
X124049000Y-117759000D02*
X127895000Y-117759000D01*
D22*
X132957000Y-119011000D02*
X132969000Y-118999000D01*
X131941000Y-119011000D02*
X132957000Y-119011000D01*
D23*
X131941000Y-121559000D02*
X131941000Y-119011000D01*
X131941000Y-119011000D02*
X131941000Y-117709000D01*
X122578400Y-129743200D02*
X122578400Y-129055400D01*
X122402600Y-128879600D02*
X121285000Y-128879600D01*
X122578400Y-129055400D02*
X122402600Y-128879600D01*
X130050000Y-131331000D02*
X130050000Y-130431000D01*
X129923000Y-130304000D02*
X129923000Y-129667000D01*
X130050000Y-130431000D02*
X129923000Y-130304000D01*
X126591000Y-128877000D02*
X127127000Y-129413000D01*
X126591000Y-128548500D02*
X126591000Y-128877000D01*
X120874000Y-117759000D02*
X120650000Y-117983000D01*
X122295000Y-117759000D02*
X120874000Y-117759000D01*
X134473000Y-117709000D02*
X134620000Y-117856000D01*
X131941000Y-117709000D02*
X134473000Y-117709000D01*
X131953000Y-121571000D02*
X131941000Y-121559000D01*
X131953000Y-122555000D02*
X131953000Y-121571000D01*
X132091390Y-122693390D02*
X131953000Y-122555000D01*
X132091390Y-124922614D02*
X132091390Y-122693390D01*
X132526000Y-125357224D02*
X132091390Y-124922614D01*
X132526000Y-125665000D02*
X132526000Y-125357224D01*
D24*
X131313800Y-131902200D02*
X131320000Y-131896000D01*
X130530600Y-131902200D02*
X131313800Y-131902200D01*
X130350000Y-131721600D02*
X130530600Y-131902200D01*
X130350000Y-131331000D02*
X130350000Y-131721600D01*
X122686200Y-131902200D02*
X122680000Y-131896000D01*
X123444000Y-131902200D02*
X122686200Y-131902200D01*
X123650000Y-131696200D02*
X123444000Y-131902200D01*
D23*
X123650000Y-131331000D02*
X123650000Y-131696200D01*
X123650000Y-131331000D02*
X123650000Y-130939800D01*
X123162600Y-130452400D02*
X122578400Y-130452400D01*
X123650000Y-130939800D02*
X123162600Y-130452400D01*
X122578400Y-129743200D02*
X122578400Y-130452400D01*
X122680000Y-131692800D02*
X122578400Y-131794400D01*
X122680000Y-130554000D02*
X122680000Y-131692800D01*
X122578400Y-130452400D02*
X122680000Y-130554000D01*
X123650000Y-131331000D02*
X123950000Y-131331000D01*
G04 #@! TO.N,/3V3*
X125091000Y-129282000D02*
X125222000Y-129413000D01*
X125091000Y-128548500D02*
X125091000Y-129282000D01*
D22*
X120129000Y-130289000D02*
X119380000Y-129540000D01*
X121412000Y-130289000D02*
X120129000Y-130289000D01*
X125595000Y-120616600D02*
X125476000Y-120497600D01*
X125595000Y-121634000D02*
X125595000Y-120616600D01*
D23*
X127278500Y-124861000D02*
X127665800Y-124861000D01*
X127840800Y-124686000D02*
X128524000Y-124686000D01*
X127665800Y-124861000D02*
X127840800Y-124686000D01*
D24*
X129439000Y-124686000D02*
X129538000Y-124587000D01*
X128524000Y-124686000D02*
X129439000Y-124686000D01*
X129538000Y-123848400D02*
X129362200Y-123672600D01*
X129538000Y-124587000D02*
X129538000Y-123848400D01*
D23*
X131570000Y-124587000D02*
X131021390Y-124038390D01*
X131570000Y-123242800D02*
X131021390Y-123791410D01*
X131570000Y-123190000D02*
X131570000Y-123242800D01*
X129624390Y-123934790D02*
X129362200Y-123672600D01*
X131021390Y-123934790D02*
X129624390Y-123934790D01*
X131021390Y-123791410D02*
X131021390Y-123934790D01*
X131021390Y-123934790D02*
X131021390Y-124038390D01*
X126390400Y-129197094D02*
X126390400Y-129587233D01*
X126113310Y-129864323D02*
X125673323Y-129864323D01*
X125673323Y-129864323D02*
X125222000Y-129413000D01*
X126091000Y-128548500D02*
X126091000Y-128897694D01*
X126091000Y-128897694D02*
X126390400Y-129197094D01*
X126390400Y-129587233D02*
X126113310Y-129864323D01*
G04 #@! TO.N,/+5V*
X125591000Y-129091061D02*
X125881661Y-129381722D01*
X125591000Y-128548500D02*
X125591000Y-129091061D01*
D22*
X119393000Y-134607000D02*
X119380000Y-134620000D01*
X121412000Y-134607000D02*
X119393000Y-134607000D01*
D24*
X121062000Y-134257000D02*
X121412000Y-134607000D01*
X121062000Y-133223000D02*
X121062000Y-134257000D01*
D23*
G04 #@! TO.N,/NMI#*
X127953200Y-125361000D02*
X128041400Y-125272800D01*
X127278500Y-125361000D02*
X127953200Y-125361000D01*
G04 #@! TO.N,/SWD*
X128328840Y-125861000D02*
X128343651Y-125846189D01*
X127278500Y-125861000D02*
X128328840Y-125861000D01*
G04 #@! TO.N,/SWC*
X127278500Y-127361000D02*
X128112200Y-127361000D01*
X128112200Y-127361000D02*
X128320800Y-127152400D01*
D22*
G04 #@! TO.N,/RST#*
X130441000Y-121559000D02*
X130441000Y-121704800D01*
D23*
X130441000Y-117709000D02*
X130441000Y-121559000D01*
X129870200Y-122301000D02*
X129565400Y-122301000D01*
X130441000Y-121730200D02*
X129870200Y-122301000D01*
X130441000Y-121559000D02*
X130441000Y-121730200D01*
X127863600Y-122126810D02*
X127863600Y-121513598D01*
X127047989Y-122942421D02*
X127863600Y-122126810D01*
X125591000Y-123236000D02*
X125884579Y-122942421D01*
X125591000Y-123673500D02*
X125591000Y-123236000D01*
X125884579Y-122942421D02*
X127047989Y-122942421D01*
G04 #@! TO.N,/SDA*
X124591000Y-121638000D02*
X124595000Y-121634000D01*
X124591000Y-123673500D02*
X124591000Y-121638000D01*
X132590000Y-124587000D02*
X132717000Y-124460000D01*
X132717000Y-124460000D02*
X134620000Y-124460000D01*
X125577600Y-119634000D02*
X128015994Y-119634000D01*
X124595000Y-120616600D02*
X125577600Y-119634000D01*
X124595000Y-121634000D02*
X124595000Y-120616600D01*
G04 #@! TO.N,/SCL*
X133350000Y-123190000D02*
X134620000Y-121920000D01*
X132590000Y-123190000D02*
X133350000Y-123190000D01*
X127606540Y-119126008D02*
X128524000Y-119126008D01*
X125602992Y-119126008D02*
X127606540Y-119126008D01*
X123595000Y-121134000D02*
X125602992Y-119126008D01*
X123595000Y-121634000D02*
X123595000Y-121134000D01*
X126901826Y-122637610D02*
X127380999Y-122158437D01*
X127380999Y-121281951D02*
X128524000Y-120138950D01*
X125091000Y-123673500D02*
X125091000Y-123236000D01*
X125689390Y-122637610D02*
X126901826Y-122637610D01*
X128524000Y-120138950D02*
X128524000Y-119126008D01*
X127380999Y-122158437D02*
X127380999Y-121281951D01*
X125091000Y-123236000D02*
X125689390Y-122637610D01*
G04 #@! TO.N,Net-(J3-PadA5)*
X124301743Y-130473943D02*
X123596400Y-129768600D01*
X125620343Y-130473943D02*
X124301743Y-130473943D01*
X125750000Y-130603600D02*
X125620343Y-130473943D01*
X125750000Y-131331000D02*
X125750000Y-130603600D01*
G04 #@! TO.N,/D-*
X124591000Y-129604578D02*
X124589959Y-129605619D01*
X124591000Y-128548500D02*
X124591000Y-129604578D01*
X126250000Y-131967482D02*
X126250000Y-131331000D01*
X125883482Y-132334000D02*
X126250000Y-131967482D01*
X125308800Y-132334000D02*
X125883482Y-132334000D01*
X126417119Y-132134601D02*
X126250000Y-131967482D01*
X127082881Y-132134601D02*
X126417119Y-132134601D01*
X127250000Y-131967482D02*
X127082881Y-132134601D01*
X127250000Y-131331000D02*
X127250000Y-131967482D01*
G04 #@! TO.N,/D+*
X126750000Y-131331000D02*
X126750000Y-130603600D01*
X126826201Y-130527399D02*
X126750000Y-130603600D01*
X127603349Y-130527399D02*
X126826201Y-130527399D01*
X127750000Y-130674050D02*
X127603349Y-130527399D01*
X127750000Y-131331000D02*
X127750000Y-130674050D01*
X124107358Y-128564858D02*
X124091000Y-128548500D01*
X124107358Y-129837268D02*
X124107358Y-128564858D01*
X124439223Y-130169133D02*
X124107358Y-129837268D01*
X126315533Y-130169133D02*
X124439223Y-130169133D01*
X126750000Y-130603600D02*
X126315533Y-130169133D01*
G04 #@! TO.N,Net-(J3-PadB5)*
X128750000Y-129820000D02*
X128903000Y-129667000D01*
X128750000Y-131204000D02*
X128750000Y-129820000D01*
G04 #@! TO.N,/FX7*
X120241000Y-127861000D02*
X119380000Y-127000000D01*
X122403500Y-127861000D02*
X120241000Y-127861000D01*
G04 #@! TO.N,/FX6*
X119380000Y-125458726D02*
X119380000Y-124460000D01*
X121282274Y-127361000D02*
X119380000Y-125458726D01*
X122403500Y-127361000D02*
X121282274Y-127361000D01*
G04 #@! TO.N,/FX5*
X122403500Y-126861000D02*
X121450800Y-126861000D01*
X121450800Y-126861000D02*
X120497600Y-125907800D01*
X120497600Y-123037600D02*
X119380000Y-121920000D01*
X120497600Y-125907800D02*
X120497600Y-123037600D01*
G04 #@! TO.N,/FX4*
X120802410Y-120802410D02*
X119380000Y-119380000D01*
X120802410Y-125399810D02*
X120802410Y-120802410D01*
X121763600Y-126361000D02*
X120802410Y-125399810D01*
X122403500Y-126361000D02*
X121763600Y-126361000D01*
G04 #@! TO.N,/TX*
X120777000Y-128270000D02*
X120523000Y-128524000D01*
X122301000Y-128270000D02*
X120777000Y-128270000D01*
X122579500Y-128548500D02*
X122301000Y-128270000D01*
X123091000Y-128548500D02*
X122579500Y-128548500D01*
G04 #@! TO.N,/C3*
X123091000Y-122871502D02*
X123091000Y-123673500D01*
X122478800Y-122259302D02*
X123091000Y-122871502D01*
X122478800Y-121208804D02*
X122478800Y-122259302D01*
X121792996Y-120523000D02*
X122478800Y-121208804D01*
G04 #@! TO.N,/C2*
X123066390Y-120780368D02*
X123066390Y-122415826D01*
X123066390Y-122415826D02*
X123591000Y-122940436D01*
X123591000Y-122940436D02*
X123591000Y-123673500D01*
X122301000Y-120014978D02*
X123066390Y-120780368D01*
G04 #@! TO.N,/C1*
X124091000Y-123673500D02*
X124091000Y-122924002D01*
G04 #@! TO.N,/AN*
X127660400Y-127965200D02*
X127660400Y-130048000D01*
X127556200Y-127861000D02*
X127660400Y-127965200D01*
X127278500Y-127861000D02*
X127556200Y-127861000D01*
G04 #@! TO.N,/MISO*
X122069351Y-119532377D02*
X123088377Y-119532377D01*
X121107218Y-120494510D02*
X122069351Y-119532377D01*
X123088377Y-119532377D02*
X123571000Y-120015000D01*
X121107218Y-125002218D02*
X121107218Y-120494510D01*
X121966000Y-125861000D02*
X121107218Y-125002218D01*
X122403500Y-125861000D02*
X121966000Y-125861000D01*
G04 #@! TO.N,/MOSI*
X121432580Y-123804420D02*
X122171441Y-123065559D01*
X121432580Y-124827580D02*
X121432580Y-123804420D01*
X121966000Y-125361000D02*
X121432580Y-124827580D01*
X122403500Y-125361000D02*
X121966000Y-125361000D01*
G04 #@! TO.N,/SCK*
X122090230Y-123825076D02*
X122145240Y-123825076D01*
X122403500Y-124861000D02*
X121966000Y-124861000D01*
X121966000Y-124861000D02*
X121737390Y-124632390D01*
X121737390Y-124632390D02*
X121737390Y-124177916D01*
X121737390Y-124177916D02*
X122090230Y-123825076D01*
G04 #@! TO.N,/CS#*
X121818400Y-122029970D02*
X121818400Y-121412000D01*
X122682000Y-122893570D02*
X121818400Y-122029970D01*
X122682000Y-124307600D02*
X122682000Y-122893570D01*
X122628600Y-124361000D02*
X122682000Y-124307600D01*
X122403500Y-124361000D02*
X122628600Y-124361000D01*
G04 #@! TO.N,/PTA1*
X128114550Y-126669794D02*
X128699794Y-126669794D01*
X127278500Y-126861000D02*
X127923344Y-126861000D01*
X127923344Y-126861000D02*
X128114550Y-126669794D01*
X128699794Y-126669794D02*
X129030000Y-127000000D01*
X129030000Y-127320000D02*
X129030000Y-127000000D01*
X128562099Y-127787901D02*
X129030000Y-127320000D01*
X128562099Y-128617473D02*
X128562099Y-127787901D01*
X132978400Y-126365000D02*
X133054601Y-126441201D01*
X133054601Y-126441201D02*
X133054601Y-127604773D01*
X131576574Y-129082800D02*
X129027426Y-129082800D01*
X133054601Y-127604773D02*
X131576574Y-129082800D01*
X132526000Y-126365000D02*
X132978400Y-126365000D01*
X129027426Y-129082800D02*
X128562099Y-128617473D01*
G04 #@! TO.N,/PTA2*
X129030000Y-126050000D02*
X129030000Y-125730000D01*
X128719000Y-126361000D02*
X129030000Y-126050000D01*
X127278500Y-126361000D02*
X128719000Y-126361000D01*
X132047399Y-127543601D02*
X132526000Y-127065000D01*
X131155399Y-127543601D02*
X132047399Y-127543601D01*
X131150390Y-127548610D02*
X131155399Y-127543601D01*
X129764386Y-127548610D02*
X131150390Y-127548610D01*
X129528610Y-127312834D02*
X129764386Y-127548610D01*
X129528610Y-126228610D02*
X129528610Y-127312834D01*
X129030000Y-125730000D02*
X129528610Y-126228610D01*
G04 #@! TO.N,Net-(D2-Pad2)*
X129550000Y-131331000D02*
X129250000Y-131331000D01*
X124750000Y-131331000D02*
X124450000Y-131331000D01*
D24*
X121812800Y-133273800D02*
X121762000Y-133223000D01*
X124663200Y-133273800D02*
X121812800Y-133273800D01*
X124750000Y-133187000D02*
X124663200Y-133273800D01*
X124750000Y-131204000D02*
X124750000Y-133187000D01*
X124485400Y-133273800D02*
X124663200Y-133273800D01*
X128016000Y-133273800D02*
X124485400Y-133273800D01*
X129250000Y-132039800D02*
X128016000Y-133273800D01*
X129250000Y-131204000D02*
X129250000Y-132039800D01*
D23*
G04 #@! TO.N,/G*
X131061000Y-125730000D02*
X131126000Y-125665000D01*
X130050000Y-125730000D02*
X131061000Y-125730000D01*
G04 #@! TO.N,/R*
X131578400Y-126365000D02*
X131126000Y-126365000D01*
X131654601Y-126288799D02*
X131578400Y-126365000D01*
X131654601Y-125232119D02*
X131654601Y-126288799D01*
X131608881Y-125186399D02*
X131654601Y-125232119D01*
X131155399Y-125186399D02*
X131608881Y-125186399D01*
X130558000Y-124589000D02*
X131155399Y-125186399D01*
X130558000Y-124587000D02*
X130558000Y-124589000D01*
G04 #@! TO.N,/B*
X130115000Y-127065000D02*
X130050000Y-127000000D01*
X131126000Y-127065000D02*
X130115000Y-127065000D01*
G04 #@! TD*
D26*
G04 #@! TO.N,GND*
X133674614Y-124965319D02*
X133791362Y-125140045D01*
X133939955Y-125288638D01*
X134114681Y-125405386D01*
X134308826Y-125485804D01*
X134514929Y-125526800D01*
X134607531Y-125526800D01*
X134620000Y-125528028D01*
X135611001Y-125528028D01*
X135611001Y-125931972D01*
X134620000Y-125931972D01*
X134607531Y-125933200D01*
X134514929Y-125933200D01*
X134308826Y-125974196D01*
X134114681Y-126054614D01*
X133939955Y-126171362D01*
X133791362Y-126319955D01*
X133674614Y-126494681D01*
X133594196Y-126688826D01*
X133553200Y-126894929D01*
X133553200Y-127105071D01*
X133594196Y-127311174D01*
X133674614Y-127505319D01*
X133791362Y-127680045D01*
X133939955Y-127828638D01*
X134114681Y-127945386D01*
X134308826Y-128025804D01*
X134514929Y-128066800D01*
X134607531Y-128066800D01*
X134620000Y-128068028D01*
X135611000Y-128068028D01*
X135611000Y-128471972D01*
X134620000Y-128471972D01*
X134607531Y-128473200D01*
X134514929Y-128473200D01*
X134308826Y-128514196D01*
X134114681Y-128594614D01*
X133939955Y-128711362D01*
X133791362Y-128859955D01*
X133674614Y-129034681D01*
X133594196Y-129228826D01*
X133553200Y-129434929D01*
X133553200Y-129645071D01*
X133594196Y-129851174D01*
X133674614Y-130045319D01*
X133791362Y-130220045D01*
X133939955Y-130368638D01*
X134114681Y-130485386D01*
X134308826Y-130565804D01*
X134514929Y-130606800D01*
X134607531Y-130606800D01*
X134620000Y-130608028D01*
X135611000Y-130608028D01*
X135611000Y-131011972D01*
X134620000Y-131011972D01*
X134607531Y-131013200D01*
X134514929Y-131013200D01*
X134308826Y-131054196D01*
X134114681Y-131134614D01*
X133939955Y-131251362D01*
X133791362Y-131399955D01*
X133674614Y-131574681D01*
X133594196Y-131768826D01*
X133553200Y-131974929D01*
X133553200Y-132185071D01*
X133594196Y-132391174D01*
X133674614Y-132585319D01*
X133791362Y-132760045D01*
X133939955Y-132908638D01*
X134114681Y-133025386D01*
X134308826Y-133105804D01*
X134514929Y-133146800D01*
X134607531Y-133146800D01*
X134620000Y-133148028D01*
X135611000Y-133148028D01*
X135611000Y-133551972D01*
X134620000Y-133551972D01*
X134607531Y-133553200D01*
X134514929Y-133553200D01*
X134308826Y-133594196D01*
X134114681Y-133674614D01*
X133939955Y-133791362D01*
X133791362Y-133939955D01*
X133674614Y-134114681D01*
X133594196Y-134308826D01*
X133553200Y-134514929D01*
X133553200Y-134725071D01*
X133594196Y-134931174D01*
X133674614Y-135125319D01*
X133791362Y-135300045D01*
X133939955Y-135448638D01*
X134114681Y-135565386D01*
X134308826Y-135645804D01*
X134514929Y-135686800D01*
X134607531Y-135686800D01*
X134620000Y-135688028D01*
X135611000Y-135688028D01*
X135611000Y-135876359D01*
X135590815Y-136082223D01*
X135534988Y-136267130D01*
X135444310Y-136437670D01*
X135322235Y-136587349D01*
X135173410Y-136710468D01*
X135003511Y-136802332D01*
X134819003Y-136859448D01*
X134613946Y-136881000D01*
X132009856Y-136881000D01*
X132017295Y-136872465D01*
X132100752Y-136726890D01*
X132154205Y-136567831D01*
X132175600Y-136401400D01*
X132175600Y-136101400D01*
X131345400Y-136101400D01*
X131345400Y-136121400D01*
X131294600Y-136121400D01*
X131294600Y-136101400D01*
X130464400Y-136101400D01*
X130464400Y-136401400D01*
X130485795Y-136567831D01*
X130539248Y-136726890D01*
X130622705Y-136872465D01*
X130630144Y-136881000D01*
X123369856Y-136881000D01*
X123377295Y-136872465D01*
X123460752Y-136726890D01*
X123514205Y-136567831D01*
X123535600Y-136401400D01*
X123535600Y-136101400D01*
X122705400Y-136101400D01*
X122705400Y-136121400D01*
X122654600Y-136121400D01*
X122654600Y-136101400D01*
X122634600Y-136101400D01*
X122634600Y-136050600D01*
X122654600Y-136050600D01*
X122654600Y-135009721D01*
X122705400Y-135009721D01*
X122705400Y-136050600D01*
X123535600Y-136050600D01*
X123535600Y-135750600D01*
X130464400Y-135750600D01*
X130464400Y-136050600D01*
X131294600Y-136050600D01*
X131294600Y-135009721D01*
X131345400Y-135009721D01*
X131345400Y-136050600D01*
X132175600Y-136050600D01*
X132175600Y-135750600D01*
X132154205Y-135584169D01*
X132100752Y-135425110D01*
X132017295Y-135279535D01*
X131907041Y-135153039D01*
X131774228Y-135050483D01*
X131623959Y-134975808D01*
X131478874Y-134935280D01*
X131345400Y-135009721D01*
X131294600Y-135009721D01*
X131161126Y-134935280D01*
X131016041Y-134975808D01*
X130865772Y-135050483D01*
X130732959Y-135153039D01*
X130622705Y-135279535D01*
X130539248Y-135425110D01*
X130485795Y-135584169D01*
X130464400Y-135750600D01*
X123535600Y-135750600D01*
X123514205Y-135584169D01*
X123460752Y-135425110D01*
X123377295Y-135279535D01*
X123267041Y-135153039D01*
X123134228Y-135050483D01*
X122983959Y-134975808D01*
X122838874Y-134935280D01*
X122705400Y-135009721D01*
X122654600Y-135009721D01*
X122521126Y-134935280D01*
X122376041Y-134975808D01*
X122225772Y-135050483D01*
X122092959Y-135153039D01*
X121982705Y-135279535D01*
X121939526Y-135354852D01*
X121887000Y-135349679D01*
X121526300Y-135351400D01*
X121437400Y-135440300D01*
X121437400Y-136131600D01*
X121457400Y-136131600D01*
X121457400Y-136182400D01*
X121437400Y-136182400D01*
X121437400Y-136202400D01*
X121386600Y-136202400D01*
X121386600Y-136182400D01*
X120670300Y-136182400D01*
X120581400Y-136271300D01*
X120579679Y-136607000D01*
X120586545Y-136676710D01*
X120606878Y-136743741D01*
X120639898Y-136805517D01*
X120684336Y-136859664D01*
X120710334Y-136881000D01*
X119393641Y-136881000D01*
X119187777Y-136860815D01*
X119002870Y-136804988D01*
X118832330Y-136714310D01*
X118682651Y-136592235D01*
X118559532Y-136443410D01*
X118467668Y-136273511D01*
X118410552Y-136089003D01*
X118389000Y-135883946D01*
X118389000Y-135707000D01*
X120579679Y-135707000D01*
X120581400Y-136042700D01*
X120670300Y-136131600D01*
X121386600Y-136131600D01*
X121386600Y-135440300D01*
X121297700Y-135351400D01*
X120937000Y-135349679D01*
X120867290Y-135356545D01*
X120800259Y-135376878D01*
X120738483Y-135409898D01*
X120684336Y-135454336D01*
X120639898Y-135508483D01*
X120606878Y-135570259D01*
X120586545Y-135637290D01*
X120579679Y-135707000D01*
X118389000Y-135707000D01*
X118389000Y-135688028D01*
X119380000Y-135688028D01*
X119392469Y-135686800D01*
X119485071Y-135686800D01*
X119691174Y-135645804D01*
X119885319Y-135565386D01*
X120060045Y-135448638D01*
X120208638Y-135300045D01*
X120325386Y-135125319D01*
X120329660Y-135115000D01*
X120776000Y-135115000D01*
X120822428Y-135171572D01*
X120895200Y-135231295D01*
X120978225Y-135275673D01*
X121068312Y-135303001D01*
X121162000Y-135312228D01*
X121662000Y-135312228D01*
X121755688Y-135303001D01*
X121845775Y-135275673D01*
X121928800Y-135231295D01*
X122001572Y-135171572D01*
X122061295Y-135098800D01*
X122105673Y-135015775D01*
X122133001Y-134925688D01*
X122142228Y-134832000D01*
X122142228Y-134382000D01*
X122133001Y-134288312D01*
X122105673Y-134198225D01*
X122061295Y-134115200D01*
X122001572Y-134042428D01*
X121928800Y-133982705D01*
X121845775Y-133938327D01*
X121755688Y-133910999D01*
X121662000Y-133901772D01*
X121468400Y-133901772D01*
X121468400Y-133810035D01*
X121512207Y-133823324D01*
X121562000Y-133828228D01*
X121962000Y-133828228D01*
X122011793Y-133823324D01*
X122059672Y-133808800D01*
X122103797Y-133785214D01*
X122142473Y-133753473D01*
X122174214Y-133714797D01*
X122192707Y-133680200D01*
X124643247Y-133680200D01*
X124663200Y-133682165D01*
X124683153Y-133680200D01*
X127996047Y-133680200D01*
X128016000Y-133682165D01*
X128035953Y-133680200D01*
X128035960Y-133680200D01*
X128095668Y-133674319D01*
X128172275Y-133651081D01*
X128242876Y-133613344D01*
X128304758Y-133562558D01*
X128317482Y-133547054D01*
X129327675Y-132536862D01*
X129333250Y-132564888D01*
X129376896Y-132670260D01*
X129440261Y-132765091D01*
X129520909Y-132845739D01*
X129615740Y-132909104D01*
X129721112Y-132952750D01*
X129832973Y-132975000D01*
X129947027Y-132975000D01*
X130058888Y-132952750D01*
X130164260Y-132909104D01*
X130259091Y-132845739D01*
X130339739Y-132765091D01*
X130403104Y-132670260D01*
X130446750Y-132564888D01*
X130464771Y-132474287D01*
X130485795Y-132637831D01*
X130539248Y-132796890D01*
X130622705Y-132942465D01*
X130732959Y-133068961D01*
X130865772Y-133171517D01*
X131016041Y-133246192D01*
X131161126Y-133286720D01*
X131294600Y-133212279D01*
X131294600Y-131921400D01*
X131345400Y-131921400D01*
X131345400Y-133212279D01*
X131478874Y-133286720D01*
X131623959Y-133246192D01*
X131774228Y-133171517D01*
X131907041Y-133068961D01*
X132017295Y-132942465D01*
X132100752Y-132796890D01*
X132154205Y-132637831D01*
X132175600Y-132471400D01*
X132175600Y-131921400D01*
X131345400Y-131921400D01*
X131294600Y-131921400D01*
X131274600Y-131921400D01*
X131274600Y-131870600D01*
X131294600Y-131870600D01*
X131294600Y-130579721D01*
X131345400Y-130579721D01*
X131345400Y-131870600D01*
X132175600Y-131870600D01*
X132175600Y-131320600D01*
X132154205Y-131154169D01*
X132100752Y-130995110D01*
X132017295Y-130849535D01*
X131907041Y-130723039D01*
X131774228Y-130620483D01*
X131623959Y-130545808D01*
X131478874Y-130505280D01*
X131345400Y-130579721D01*
X131294600Y-130579721D01*
X131161126Y-130505280D01*
X131016041Y-130545808D01*
X130865772Y-130620483D01*
X130837188Y-130642555D01*
X130830122Y-130619259D01*
X130797102Y-130557483D01*
X130752664Y-130503336D01*
X130698517Y-130458898D01*
X130636741Y-130425878D01*
X130569710Y-130405545D01*
X130500000Y-130398679D01*
X130464300Y-130400400D01*
X130402518Y-130462182D01*
X130398517Y-130458898D01*
X130336741Y-130425878D01*
X130269710Y-130405545D01*
X130237691Y-130402391D01*
X130235700Y-130400400D01*
X130200000Y-130398679D01*
X130164300Y-130400400D01*
X130162309Y-130402391D01*
X130130290Y-130405545D01*
X130063259Y-130425878D01*
X130001483Y-130458898D01*
X129997482Y-130462182D01*
X129935700Y-130400400D01*
X129900000Y-130398679D01*
X129830290Y-130405545D01*
X129763259Y-130425878D01*
X129701483Y-130458898D01*
X129650460Y-130500772D01*
X129100000Y-130500772D01*
X129080200Y-130502722D01*
X129080200Y-130238072D01*
X129114130Y-130234730D01*
X129187334Y-130212524D01*
X129254799Y-130176463D01*
X129313933Y-130127933D01*
X129321392Y-130118844D01*
X129322878Y-130123741D01*
X129355898Y-130185517D01*
X129400336Y-130239664D01*
X129454483Y-130284102D01*
X129516259Y-130317122D01*
X129583290Y-130337455D01*
X129653000Y-130344321D01*
X129808700Y-130342600D01*
X129897600Y-130253700D01*
X129897600Y-129692400D01*
X129948400Y-129692400D01*
X129948400Y-130253700D01*
X130037300Y-130342600D01*
X130193000Y-130344321D01*
X130262710Y-130337455D01*
X130329741Y-130317122D01*
X130391517Y-130284102D01*
X130445664Y-130239664D01*
X130490102Y-130185517D01*
X130523122Y-130123741D01*
X130543455Y-130056710D01*
X130550321Y-129987000D01*
X130548600Y-129781300D01*
X130459700Y-129692400D01*
X129948400Y-129692400D01*
X129897600Y-129692400D01*
X129877600Y-129692400D01*
X129877600Y-129641600D01*
X129897600Y-129641600D01*
X129897600Y-129621600D01*
X129948400Y-129621600D01*
X129948400Y-129641600D01*
X130459700Y-129641600D01*
X130548600Y-129552700D01*
X130549769Y-129413000D01*
X131560361Y-129413000D01*
X131576574Y-129414597D01*
X131592787Y-129413000D01*
X131592789Y-129413000D01*
X131641304Y-129408222D01*
X131703547Y-129389340D01*
X131760911Y-129358679D01*
X131811190Y-129317416D01*
X131821533Y-129304813D01*
X133276619Y-127849728D01*
X133289217Y-127839389D01*
X133330480Y-127789110D01*
X133361141Y-127731746D01*
X133380023Y-127669503D01*
X133384801Y-127620988D01*
X133384801Y-127620986D01*
X133386398Y-127604773D01*
X133384801Y-127588560D01*
X133384801Y-126457405D01*
X133386397Y-126441200D01*
X133384801Y-126424995D01*
X133384801Y-126424986D01*
X133380023Y-126376471D01*
X133361141Y-126314228D01*
X133330480Y-126256864D01*
X133289217Y-126206585D01*
X133276619Y-126196246D01*
X133223358Y-126142986D01*
X133213016Y-126130384D01*
X133162737Y-126089121D01*
X133142052Y-126078065D01*
X133156122Y-126051741D01*
X133176455Y-125984710D01*
X133183321Y-125915000D01*
X133181600Y-125779300D01*
X133092700Y-125690400D01*
X132551400Y-125690400D01*
X132551400Y-125710400D01*
X132500600Y-125710400D01*
X132500600Y-125690400D01*
X132480600Y-125690400D01*
X132480600Y-125639600D01*
X132500600Y-125639600D01*
X132500600Y-125619600D01*
X132551400Y-125619600D01*
X132551400Y-125639600D01*
X133092700Y-125639600D01*
X133181600Y-125550700D01*
X133183321Y-125415000D01*
X133176455Y-125345290D01*
X133156122Y-125278259D01*
X133123102Y-125216483D01*
X133078664Y-125162336D01*
X133024517Y-125117898D01*
X132962741Y-125084878D01*
X132957757Y-125083366D01*
X133000933Y-125047933D01*
X133049463Y-124988799D01*
X133085524Y-124921334D01*
X133107730Y-124848130D01*
X133113435Y-124790200D01*
X133602077Y-124790200D01*
X133674614Y-124965319D01*
G04 #@! TA.AperFunction,Conductor*
D27*
G36*
X133674614Y-124965319D02*
G01*
X133791362Y-125140045D01*
X133939955Y-125288638D01*
X134114681Y-125405386D01*
X134308826Y-125485804D01*
X134514929Y-125526800D01*
X134607531Y-125526800D01*
X134620000Y-125528028D01*
X135611001Y-125528028D01*
X135611001Y-125931972D01*
X134620000Y-125931972D01*
X134607531Y-125933200D01*
X134514929Y-125933200D01*
X134308826Y-125974196D01*
X134114681Y-126054614D01*
X133939955Y-126171362D01*
X133791362Y-126319955D01*
X133674614Y-126494681D01*
X133594196Y-126688826D01*
X133553200Y-126894929D01*
X133553200Y-127105071D01*
X133594196Y-127311174D01*
X133674614Y-127505319D01*
X133791362Y-127680045D01*
X133939955Y-127828638D01*
X134114681Y-127945386D01*
X134308826Y-128025804D01*
X134514929Y-128066800D01*
X134607531Y-128066800D01*
X134620000Y-128068028D01*
X135611000Y-128068028D01*
X135611000Y-128471972D01*
X134620000Y-128471972D01*
X134607531Y-128473200D01*
X134514929Y-128473200D01*
X134308826Y-128514196D01*
X134114681Y-128594614D01*
X133939955Y-128711362D01*
X133791362Y-128859955D01*
X133674614Y-129034681D01*
X133594196Y-129228826D01*
X133553200Y-129434929D01*
X133553200Y-129645071D01*
X133594196Y-129851174D01*
X133674614Y-130045319D01*
X133791362Y-130220045D01*
X133939955Y-130368638D01*
X134114681Y-130485386D01*
X134308826Y-130565804D01*
X134514929Y-130606800D01*
X134607531Y-130606800D01*
X134620000Y-130608028D01*
X135611000Y-130608028D01*
X135611000Y-131011972D01*
X134620000Y-131011972D01*
X134607531Y-131013200D01*
X134514929Y-131013200D01*
X134308826Y-131054196D01*
X134114681Y-131134614D01*
X133939955Y-131251362D01*
X133791362Y-131399955D01*
X133674614Y-131574681D01*
X133594196Y-131768826D01*
X133553200Y-131974929D01*
X133553200Y-132185071D01*
X133594196Y-132391174D01*
X133674614Y-132585319D01*
X133791362Y-132760045D01*
X133939955Y-132908638D01*
X134114681Y-133025386D01*
X134308826Y-133105804D01*
X134514929Y-133146800D01*
X134607531Y-133146800D01*
X134620000Y-133148028D01*
X135611000Y-133148028D01*
X135611000Y-133551972D01*
X134620000Y-133551972D01*
X134607531Y-133553200D01*
X134514929Y-133553200D01*
X134308826Y-133594196D01*
X134114681Y-133674614D01*
X133939955Y-133791362D01*
X133791362Y-133939955D01*
X133674614Y-134114681D01*
X133594196Y-134308826D01*
X133553200Y-134514929D01*
X133553200Y-134725071D01*
X133594196Y-134931174D01*
X133674614Y-135125319D01*
X133791362Y-135300045D01*
X133939955Y-135448638D01*
X134114681Y-135565386D01*
X134308826Y-135645804D01*
X134514929Y-135686800D01*
X134607531Y-135686800D01*
X134620000Y-135688028D01*
X135611000Y-135688028D01*
X135611000Y-135876359D01*
X135590815Y-136082223D01*
X135534988Y-136267130D01*
X135444310Y-136437670D01*
X135322235Y-136587349D01*
X135173410Y-136710468D01*
X135003511Y-136802332D01*
X134819003Y-136859448D01*
X134613946Y-136881000D01*
X132009856Y-136881000D01*
X132017295Y-136872465D01*
X132100752Y-136726890D01*
X132154205Y-136567831D01*
X132175600Y-136401400D01*
X132175600Y-136101400D01*
X131345400Y-136101400D01*
X131345400Y-136121400D01*
X131294600Y-136121400D01*
X131294600Y-136101400D01*
X130464400Y-136101400D01*
X130464400Y-136401400D01*
X130485795Y-136567831D01*
X130539248Y-136726890D01*
X130622705Y-136872465D01*
X130630144Y-136881000D01*
X123369856Y-136881000D01*
X123377295Y-136872465D01*
X123460752Y-136726890D01*
X123514205Y-136567831D01*
X123535600Y-136401400D01*
X123535600Y-136101400D01*
X122705400Y-136101400D01*
X122705400Y-136121400D01*
X122654600Y-136121400D01*
X122654600Y-136101400D01*
X122634600Y-136101400D01*
X122634600Y-136050600D01*
X122654600Y-136050600D01*
X122654600Y-135009721D01*
X122705400Y-135009721D01*
X122705400Y-136050600D01*
X123535600Y-136050600D01*
X123535600Y-135750600D01*
X130464400Y-135750600D01*
X130464400Y-136050600D01*
X131294600Y-136050600D01*
X131294600Y-135009721D01*
X131345400Y-135009721D01*
X131345400Y-136050600D01*
X132175600Y-136050600D01*
X132175600Y-135750600D01*
X132154205Y-135584169D01*
X132100752Y-135425110D01*
X132017295Y-135279535D01*
X131907041Y-135153039D01*
X131774228Y-135050483D01*
X131623959Y-134975808D01*
X131478874Y-134935280D01*
X131345400Y-135009721D01*
X131294600Y-135009721D01*
X131161126Y-134935280D01*
X131016041Y-134975808D01*
X130865772Y-135050483D01*
X130732959Y-135153039D01*
X130622705Y-135279535D01*
X130539248Y-135425110D01*
X130485795Y-135584169D01*
X130464400Y-135750600D01*
X123535600Y-135750600D01*
X123514205Y-135584169D01*
X123460752Y-135425110D01*
X123377295Y-135279535D01*
X123267041Y-135153039D01*
X123134228Y-135050483D01*
X122983959Y-134975808D01*
X122838874Y-134935280D01*
X122705400Y-135009721D01*
X122654600Y-135009721D01*
X122521126Y-134935280D01*
X122376041Y-134975808D01*
X122225772Y-135050483D01*
X122092959Y-135153039D01*
X121982705Y-135279535D01*
X121939526Y-135354852D01*
X121887000Y-135349679D01*
X121526300Y-135351400D01*
X121437400Y-135440300D01*
X121437400Y-136131600D01*
X121457400Y-136131600D01*
X121457400Y-136182400D01*
X121437400Y-136182400D01*
X121437400Y-136202400D01*
X121386600Y-136202400D01*
X121386600Y-136182400D01*
X120670300Y-136182400D01*
X120581400Y-136271300D01*
X120579679Y-136607000D01*
X120586545Y-136676710D01*
X120606878Y-136743741D01*
X120639898Y-136805517D01*
X120684336Y-136859664D01*
X120710334Y-136881000D01*
X119393641Y-136881000D01*
X119187777Y-136860815D01*
X119002870Y-136804988D01*
X118832330Y-136714310D01*
X118682651Y-136592235D01*
X118559532Y-136443410D01*
X118467668Y-136273511D01*
X118410552Y-136089003D01*
X118389000Y-135883946D01*
X118389000Y-135707000D01*
X120579679Y-135707000D01*
X120581400Y-136042700D01*
X120670300Y-136131600D01*
X121386600Y-136131600D01*
X121386600Y-135440300D01*
X121297700Y-135351400D01*
X120937000Y-135349679D01*
X120867290Y-135356545D01*
X120800259Y-135376878D01*
X120738483Y-135409898D01*
X120684336Y-135454336D01*
X120639898Y-135508483D01*
X120606878Y-135570259D01*
X120586545Y-135637290D01*
X120579679Y-135707000D01*
X118389000Y-135707000D01*
X118389000Y-135688028D01*
X119380000Y-135688028D01*
X119392469Y-135686800D01*
X119485071Y-135686800D01*
X119691174Y-135645804D01*
X119885319Y-135565386D01*
X120060045Y-135448638D01*
X120208638Y-135300045D01*
X120325386Y-135125319D01*
X120329660Y-135115000D01*
X120776000Y-135115000D01*
X120822428Y-135171572D01*
X120895200Y-135231295D01*
X120978225Y-135275673D01*
X121068312Y-135303001D01*
X121162000Y-135312228D01*
X121662000Y-135312228D01*
X121755688Y-135303001D01*
X121845775Y-135275673D01*
X121928800Y-135231295D01*
X122001572Y-135171572D01*
X122061295Y-135098800D01*
X122105673Y-135015775D01*
X122133001Y-134925688D01*
X122142228Y-134832000D01*
X122142228Y-134382000D01*
X122133001Y-134288312D01*
X122105673Y-134198225D01*
X122061295Y-134115200D01*
X122001572Y-134042428D01*
X121928800Y-133982705D01*
X121845775Y-133938327D01*
X121755688Y-133910999D01*
X121662000Y-133901772D01*
X121468400Y-133901772D01*
X121468400Y-133810035D01*
X121512207Y-133823324D01*
X121562000Y-133828228D01*
X121962000Y-133828228D01*
X122011793Y-133823324D01*
X122059672Y-133808800D01*
X122103797Y-133785214D01*
X122142473Y-133753473D01*
X122174214Y-133714797D01*
X122192707Y-133680200D01*
X124643247Y-133680200D01*
X124663200Y-133682165D01*
X124683153Y-133680200D01*
X127996047Y-133680200D01*
X128016000Y-133682165D01*
X128035953Y-133680200D01*
X128035960Y-133680200D01*
X128095668Y-133674319D01*
X128172275Y-133651081D01*
X128242876Y-133613344D01*
X128304758Y-133562558D01*
X128317482Y-133547054D01*
X129327675Y-132536862D01*
X129333250Y-132564888D01*
X129376896Y-132670260D01*
X129440261Y-132765091D01*
X129520909Y-132845739D01*
X129615740Y-132909104D01*
X129721112Y-132952750D01*
X129832973Y-132975000D01*
X129947027Y-132975000D01*
X130058888Y-132952750D01*
X130164260Y-132909104D01*
X130259091Y-132845739D01*
X130339739Y-132765091D01*
X130403104Y-132670260D01*
X130446750Y-132564888D01*
X130464771Y-132474287D01*
X130485795Y-132637831D01*
X130539248Y-132796890D01*
X130622705Y-132942465D01*
X130732959Y-133068961D01*
X130865772Y-133171517D01*
X131016041Y-133246192D01*
X131161126Y-133286720D01*
X131294600Y-133212279D01*
X131294600Y-131921400D01*
X131345400Y-131921400D01*
X131345400Y-133212279D01*
X131478874Y-133286720D01*
X131623959Y-133246192D01*
X131774228Y-133171517D01*
X131907041Y-133068961D01*
X132017295Y-132942465D01*
X132100752Y-132796890D01*
X132154205Y-132637831D01*
X132175600Y-132471400D01*
X132175600Y-131921400D01*
X131345400Y-131921400D01*
X131294600Y-131921400D01*
X131274600Y-131921400D01*
X131274600Y-131870600D01*
X131294600Y-131870600D01*
X131294600Y-130579721D01*
X131345400Y-130579721D01*
X131345400Y-131870600D01*
X132175600Y-131870600D01*
X132175600Y-131320600D01*
X132154205Y-131154169D01*
X132100752Y-130995110D01*
X132017295Y-130849535D01*
X131907041Y-130723039D01*
X131774228Y-130620483D01*
X131623959Y-130545808D01*
X131478874Y-130505280D01*
X131345400Y-130579721D01*
X131294600Y-130579721D01*
X131161126Y-130505280D01*
X131016041Y-130545808D01*
X130865772Y-130620483D01*
X130837188Y-130642555D01*
X130830122Y-130619259D01*
X130797102Y-130557483D01*
X130752664Y-130503336D01*
X130698517Y-130458898D01*
X130636741Y-130425878D01*
X130569710Y-130405545D01*
X130500000Y-130398679D01*
X130464300Y-130400400D01*
X130402518Y-130462182D01*
X130398517Y-130458898D01*
X130336741Y-130425878D01*
X130269710Y-130405545D01*
X130237691Y-130402391D01*
X130235700Y-130400400D01*
X130200000Y-130398679D01*
X130164300Y-130400400D01*
X130162309Y-130402391D01*
X130130290Y-130405545D01*
X130063259Y-130425878D01*
X130001483Y-130458898D01*
X129997482Y-130462182D01*
X129935700Y-130400400D01*
X129900000Y-130398679D01*
X129830290Y-130405545D01*
X129763259Y-130425878D01*
X129701483Y-130458898D01*
X129650460Y-130500772D01*
X129100000Y-130500772D01*
X129080200Y-130502722D01*
X129080200Y-130238072D01*
X129114130Y-130234730D01*
X129187334Y-130212524D01*
X129254799Y-130176463D01*
X129313933Y-130127933D01*
X129321392Y-130118844D01*
X129322878Y-130123741D01*
X129355898Y-130185517D01*
X129400336Y-130239664D01*
X129454483Y-130284102D01*
X129516259Y-130317122D01*
X129583290Y-130337455D01*
X129653000Y-130344321D01*
X129808700Y-130342600D01*
X129897600Y-130253700D01*
X129897600Y-129692400D01*
X129948400Y-129692400D01*
X129948400Y-130253700D01*
X130037300Y-130342600D01*
X130193000Y-130344321D01*
X130262710Y-130337455D01*
X130329741Y-130317122D01*
X130391517Y-130284102D01*
X130445664Y-130239664D01*
X130490102Y-130185517D01*
X130523122Y-130123741D01*
X130543455Y-130056710D01*
X130550321Y-129987000D01*
X130548600Y-129781300D01*
X130459700Y-129692400D01*
X129948400Y-129692400D01*
X129897600Y-129692400D01*
X129877600Y-129692400D01*
X129877600Y-129641600D01*
X129897600Y-129641600D01*
X129897600Y-129621600D01*
X129948400Y-129621600D01*
X129948400Y-129641600D01*
X130459700Y-129641600D01*
X130548600Y-129552700D01*
X130549769Y-129413000D01*
X131560361Y-129413000D01*
X131576574Y-129414597D01*
X131592787Y-129413000D01*
X131592789Y-129413000D01*
X131641304Y-129408222D01*
X131703547Y-129389340D01*
X131760911Y-129358679D01*
X131811190Y-129317416D01*
X131821533Y-129304813D01*
X133276619Y-127849728D01*
X133289217Y-127839389D01*
X133330480Y-127789110D01*
X133361141Y-127731746D01*
X133380023Y-127669503D01*
X133384801Y-127620988D01*
X133384801Y-127620986D01*
X133386398Y-127604773D01*
X133384801Y-127588560D01*
X133384801Y-126457405D01*
X133386397Y-126441200D01*
X133384801Y-126424995D01*
X133384801Y-126424986D01*
X133380023Y-126376471D01*
X133361141Y-126314228D01*
X133330480Y-126256864D01*
X133289217Y-126206585D01*
X133276619Y-126196246D01*
X133223358Y-126142986D01*
X133213016Y-126130384D01*
X133162737Y-126089121D01*
X133142052Y-126078065D01*
X133156122Y-126051741D01*
X133176455Y-125984710D01*
X133183321Y-125915000D01*
X133181600Y-125779300D01*
X133092700Y-125690400D01*
X132551400Y-125690400D01*
X132551400Y-125710400D01*
X132500600Y-125710400D01*
X132500600Y-125690400D01*
X132480600Y-125690400D01*
X132480600Y-125639600D01*
X132500600Y-125639600D01*
X132500600Y-125619600D01*
X132551400Y-125619600D01*
X132551400Y-125639600D01*
X133092700Y-125639600D01*
X133181600Y-125550700D01*
X133183321Y-125415000D01*
X133176455Y-125345290D01*
X133156122Y-125278259D01*
X133123102Y-125216483D01*
X133078664Y-125162336D01*
X133024517Y-125117898D01*
X132962741Y-125084878D01*
X132957757Y-125083366D01*
X133000933Y-125047933D01*
X133049463Y-124988799D01*
X133085524Y-124921334D01*
X133107730Y-124848130D01*
X133113435Y-124790200D01*
X133602077Y-124790200D01*
X133674614Y-124965319D01*
G37*
G04 #@! TD.AperFunction*
D26*
X119752150Y-130630570D02*
X119768052Y-130649948D01*
X119787429Y-130665850D01*
X119845404Y-130713429D01*
X119877477Y-130730572D01*
X119933657Y-130760601D01*
X120029415Y-130789649D01*
X120104053Y-130797000D01*
X120104056Y-130797000D01*
X120129000Y-130799457D01*
X120153944Y-130797000D01*
X120776000Y-130797000D01*
X120822428Y-130853572D01*
X120895200Y-130913295D01*
X120978225Y-130957673D01*
X121068312Y-130985001D01*
X121162000Y-130994228D01*
X121662000Y-130994228D01*
X121755688Y-130985001D01*
X121845775Y-130957673D01*
X121928800Y-130913295D01*
X121961570Y-130886401D01*
X121899248Y-130995110D01*
X121886959Y-131031679D01*
X121526300Y-131033400D01*
X121437400Y-131122300D01*
X121437400Y-131813600D01*
X121457400Y-131813600D01*
X121457400Y-131864400D01*
X121437400Y-131864400D01*
X121437400Y-132555700D01*
X121506199Y-132624499D01*
X121464328Y-132637200D01*
X121420203Y-132660786D01*
X121412000Y-132667518D01*
X121403797Y-132660786D01*
X121359672Y-132637200D01*
X121317801Y-132624499D01*
X121386600Y-132555700D01*
X121386600Y-131864400D01*
X120670300Y-131864400D01*
X120581400Y-131953300D01*
X120579679Y-132289000D01*
X120586545Y-132358710D01*
X120606878Y-132425741D01*
X120639898Y-132487517D01*
X120684336Y-132541664D01*
X120738483Y-132586102D01*
X120800259Y-132619122D01*
X120812091Y-132622711D01*
X120764328Y-132637200D01*
X120720203Y-132660786D01*
X120681527Y-132692527D01*
X120649786Y-132731203D01*
X120626200Y-132775328D01*
X120611676Y-132823207D01*
X120606772Y-132873000D01*
X120606772Y-133573000D01*
X120611676Y-133622793D01*
X120626200Y-133670672D01*
X120649786Y-133714797D01*
X120655600Y-133721882D01*
X120655601Y-134099000D01*
X120314908Y-134099000D01*
X120208638Y-133939955D01*
X120060045Y-133791362D01*
X119885319Y-133674614D01*
X119691174Y-133594196D01*
X119485071Y-133553200D01*
X119392469Y-133553200D01*
X119380000Y-133551972D01*
X118389000Y-133551972D01*
X118389000Y-133248645D01*
X118554723Y-133248892D01*
X118567200Y-133250121D01*
X118873392Y-133249367D01*
X119380000Y-133250121D01*
X119397473Y-133248400D01*
X119405402Y-133248400D01*
X119405402Y-133247619D01*
X119449710Y-133243255D01*
X119479975Y-133234075D01*
X119494300Y-133248400D01*
X120192800Y-133250121D01*
X120262510Y-133243255D01*
X120329541Y-133222922D01*
X120391317Y-133189902D01*
X120445464Y-133145464D01*
X120489902Y-133091317D01*
X120522922Y-133029541D01*
X120543255Y-132962510D01*
X120550121Y-132892800D01*
X120548400Y-132194300D01*
X120459500Y-132105400D01*
X119334600Y-132105400D01*
X119334600Y-132054600D01*
X120459500Y-132054600D01*
X120548400Y-131965700D01*
X120549820Y-131389000D01*
X120579679Y-131389000D01*
X120581400Y-131724700D01*
X120670300Y-131813600D01*
X121386600Y-131813600D01*
X121386600Y-131122300D01*
X121297700Y-131033400D01*
X120937000Y-131031679D01*
X120867290Y-131038545D01*
X120800259Y-131058878D01*
X120738483Y-131091898D01*
X120684336Y-131136336D01*
X120639898Y-131190483D01*
X120606878Y-131252259D01*
X120586545Y-131319290D01*
X120579679Y-131389000D01*
X120549820Y-131389000D01*
X120550121Y-131267200D01*
X120543255Y-131197490D01*
X120522922Y-131130459D01*
X120489902Y-131068683D01*
X120445464Y-131014536D01*
X120391317Y-130970098D01*
X120329541Y-130937078D01*
X120262510Y-130916745D01*
X120192800Y-130909879D01*
X119494300Y-130911600D01*
X119479975Y-130925925D01*
X119449710Y-130916745D01*
X119405402Y-130912381D01*
X119405402Y-130911600D01*
X119397473Y-130911600D01*
X119380000Y-130909879D01*
X118873392Y-130910633D01*
X118567200Y-130909879D01*
X118554723Y-130911108D01*
X118389000Y-130911355D01*
X118389000Y-130608028D01*
X119380000Y-130608028D01*
X119392469Y-130606800D01*
X119485071Y-130606800D01*
X119688012Y-130566433D01*
X119752150Y-130630570D01*
G04 #@! TA.AperFunction,Conductor*
D27*
G36*
X119752150Y-130630570D02*
G01*
X119768052Y-130649948D01*
X119787429Y-130665850D01*
X119845404Y-130713429D01*
X119877477Y-130730572D01*
X119933657Y-130760601D01*
X120029415Y-130789649D01*
X120104053Y-130797000D01*
X120104056Y-130797000D01*
X120129000Y-130799457D01*
X120153944Y-130797000D01*
X120776000Y-130797000D01*
X120822428Y-130853572D01*
X120895200Y-130913295D01*
X120978225Y-130957673D01*
X121068312Y-130985001D01*
X121162000Y-130994228D01*
X121662000Y-130994228D01*
X121755688Y-130985001D01*
X121845775Y-130957673D01*
X121928800Y-130913295D01*
X121961570Y-130886401D01*
X121899248Y-130995110D01*
X121886959Y-131031679D01*
X121526300Y-131033400D01*
X121437400Y-131122300D01*
X121437400Y-131813600D01*
X121457400Y-131813600D01*
X121457400Y-131864400D01*
X121437400Y-131864400D01*
X121437400Y-132555700D01*
X121506199Y-132624499D01*
X121464328Y-132637200D01*
X121420203Y-132660786D01*
X121412000Y-132667518D01*
X121403797Y-132660786D01*
X121359672Y-132637200D01*
X121317801Y-132624499D01*
X121386600Y-132555700D01*
X121386600Y-131864400D01*
X120670300Y-131864400D01*
X120581400Y-131953300D01*
X120579679Y-132289000D01*
X120586545Y-132358710D01*
X120606878Y-132425741D01*
X120639898Y-132487517D01*
X120684336Y-132541664D01*
X120738483Y-132586102D01*
X120800259Y-132619122D01*
X120812091Y-132622711D01*
X120764328Y-132637200D01*
X120720203Y-132660786D01*
X120681527Y-132692527D01*
X120649786Y-132731203D01*
X120626200Y-132775328D01*
X120611676Y-132823207D01*
X120606772Y-132873000D01*
X120606772Y-133573000D01*
X120611676Y-133622793D01*
X120626200Y-133670672D01*
X120649786Y-133714797D01*
X120655600Y-133721882D01*
X120655601Y-134099000D01*
X120314908Y-134099000D01*
X120208638Y-133939955D01*
X120060045Y-133791362D01*
X119885319Y-133674614D01*
X119691174Y-133594196D01*
X119485071Y-133553200D01*
X119392469Y-133553200D01*
X119380000Y-133551972D01*
X118389000Y-133551972D01*
X118389000Y-133248645D01*
X118554723Y-133248892D01*
X118567200Y-133250121D01*
X118873392Y-133249367D01*
X119380000Y-133250121D01*
X119397473Y-133248400D01*
X119405402Y-133248400D01*
X119405402Y-133247619D01*
X119449710Y-133243255D01*
X119479975Y-133234075D01*
X119494300Y-133248400D01*
X120192800Y-133250121D01*
X120262510Y-133243255D01*
X120329541Y-133222922D01*
X120391317Y-133189902D01*
X120445464Y-133145464D01*
X120489902Y-133091317D01*
X120522922Y-133029541D01*
X120543255Y-132962510D01*
X120550121Y-132892800D01*
X120548400Y-132194300D01*
X120459500Y-132105400D01*
X119334600Y-132105400D01*
X119334600Y-132054600D01*
X120459500Y-132054600D01*
X120548400Y-131965700D01*
X120549820Y-131389000D01*
X120579679Y-131389000D01*
X120581400Y-131724700D01*
X120670300Y-131813600D01*
X121386600Y-131813600D01*
X121386600Y-131122300D01*
X121297700Y-131033400D01*
X120937000Y-131031679D01*
X120867290Y-131038545D01*
X120800259Y-131058878D01*
X120738483Y-131091898D01*
X120684336Y-131136336D01*
X120639898Y-131190483D01*
X120606878Y-131252259D01*
X120586545Y-131319290D01*
X120579679Y-131389000D01*
X120549820Y-131389000D01*
X120550121Y-131267200D01*
X120543255Y-131197490D01*
X120522922Y-131130459D01*
X120489902Y-131068683D01*
X120445464Y-131014536D01*
X120391317Y-130970098D01*
X120329541Y-130937078D01*
X120262510Y-130916745D01*
X120192800Y-130909879D01*
X119494300Y-130911600D01*
X119479975Y-130925925D01*
X119449710Y-130916745D01*
X119405402Y-130912381D01*
X119405402Y-130911600D01*
X119397473Y-130911600D01*
X119380000Y-130909879D01*
X118873392Y-130910633D01*
X118567200Y-130909879D01*
X118554723Y-130911108D01*
X118389000Y-130911355D01*
X118389000Y-130608028D01*
X119380000Y-130608028D01*
X119392469Y-130606800D01*
X119485071Y-130606800D01*
X119688012Y-130566433D01*
X119752150Y-130630570D01*
G37*
G04 #@! TD.AperFunction*
D26*
X122334549Y-128770523D02*
X122344884Y-128783116D01*
X122357476Y-128793450D01*
X122357478Y-128793452D01*
X122373890Y-128806921D01*
X122395163Y-128824379D01*
X122452527Y-128855040D01*
X122514770Y-128873922D01*
X122563285Y-128878700D01*
X122563294Y-128878700D01*
X122579499Y-128880296D01*
X122595704Y-128878700D01*
X122710772Y-128878700D01*
X122710772Y-128923500D01*
X122716877Y-128985486D01*
X122734958Y-129045089D01*
X122746671Y-129067003D01*
X122692700Y-129067600D01*
X122603800Y-129156500D01*
X122603800Y-129717800D01*
X122623800Y-129717800D01*
X122623800Y-129768600D01*
X122603800Y-129768600D01*
X122603800Y-130329900D01*
X122692700Y-130418800D01*
X122848400Y-130420521D01*
X122918110Y-130413655D01*
X122985141Y-130393322D01*
X123046917Y-130360302D01*
X123101064Y-130315864D01*
X123145502Y-130261717D01*
X123178522Y-130199941D01*
X123180008Y-130195044D01*
X123187467Y-130204133D01*
X123246601Y-130252663D01*
X123314066Y-130288724D01*
X123387270Y-130310930D01*
X123463400Y-130318428D01*
X123679256Y-130318428D01*
X123762764Y-130401936D01*
X123762309Y-130402391D01*
X123730290Y-130405545D01*
X123663259Y-130425878D01*
X123601483Y-130458898D01*
X123597482Y-130462182D01*
X123535700Y-130400400D01*
X123500000Y-130398679D01*
X123430290Y-130405545D01*
X123363259Y-130425878D01*
X123301483Y-130458898D01*
X123247336Y-130503336D01*
X123202898Y-130557483D01*
X123169878Y-130619259D01*
X123162812Y-130642555D01*
X123134228Y-130620483D01*
X122983959Y-130545808D01*
X122838874Y-130505280D01*
X122705400Y-130579721D01*
X122705400Y-131870600D01*
X122725400Y-131870600D01*
X122725400Y-131921400D01*
X122705400Y-131921400D01*
X122705400Y-131941400D01*
X122654600Y-131941400D01*
X122654600Y-131921400D01*
X122634600Y-131921400D01*
X122634600Y-131870600D01*
X122654600Y-131870600D01*
X122654600Y-130579721D01*
X122521126Y-130505280D01*
X122376041Y-130545808D01*
X122225772Y-130620483D01*
X122092959Y-130723039D01*
X122090916Y-130725382D01*
X122105673Y-130697775D01*
X122133001Y-130607688D01*
X122142228Y-130514000D01*
X122142228Y-130377591D01*
X122171659Y-130393322D01*
X122238690Y-130413655D01*
X122308400Y-130420521D01*
X122464100Y-130418800D01*
X122553000Y-130329900D01*
X122553000Y-129768600D01*
X122533000Y-129768600D01*
X122533000Y-129717800D01*
X122553000Y-129717800D01*
X122553000Y-129156500D01*
X122464100Y-129067600D01*
X122308400Y-129065879D01*
X122238690Y-129072745D01*
X122171659Y-129093078D01*
X122109883Y-129126098D01*
X122055736Y-129170536D01*
X122011298Y-129224683D01*
X121978278Y-129286459D01*
X121957945Y-129353490D01*
X121951079Y-129423200D01*
X121952800Y-129628900D01*
X122041698Y-129717798D01*
X121993493Y-129717798D01*
X121928800Y-129664705D01*
X121845775Y-129620327D01*
X121755688Y-129592999D01*
X121662000Y-129583772D01*
X121162000Y-129583772D01*
X121068312Y-129592999D01*
X120978225Y-129620327D01*
X120895200Y-129664705D01*
X120822428Y-129724428D01*
X120776000Y-129781000D01*
X120419762Y-129781000D01*
X120446800Y-129645071D01*
X120446800Y-129434929D01*
X120405804Y-129228826D01*
X120325386Y-129034681D01*
X120285955Y-128975668D01*
X120374822Y-129012478D01*
X120472966Y-129032000D01*
X120573034Y-129032000D01*
X120671178Y-129012478D01*
X120763628Y-128974184D01*
X120846831Y-128918589D01*
X120917589Y-128847831D01*
X120973184Y-128764628D01*
X121011478Y-128672178D01*
X121025795Y-128600200D01*
X122164227Y-128600200D01*
X122334549Y-128770523D01*
G04 #@! TA.AperFunction,Conductor*
D27*
G36*
X122334549Y-128770523D02*
G01*
X122344884Y-128783116D01*
X122357476Y-128793450D01*
X122357478Y-128793452D01*
X122373890Y-128806921D01*
X122395163Y-128824379D01*
X122452527Y-128855040D01*
X122514770Y-128873922D01*
X122563285Y-128878700D01*
X122563294Y-128878700D01*
X122579499Y-128880296D01*
X122595704Y-128878700D01*
X122710772Y-128878700D01*
X122710772Y-128923500D01*
X122716877Y-128985486D01*
X122734958Y-129045089D01*
X122746671Y-129067003D01*
X122692700Y-129067600D01*
X122603800Y-129156500D01*
X122603800Y-129717800D01*
X122623800Y-129717800D01*
X122623800Y-129768600D01*
X122603800Y-129768600D01*
X122603800Y-130329900D01*
X122692700Y-130418800D01*
X122848400Y-130420521D01*
X122918110Y-130413655D01*
X122985141Y-130393322D01*
X123046917Y-130360302D01*
X123101064Y-130315864D01*
X123145502Y-130261717D01*
X123178522Y-130199941D01*
X123180008Y-130195044D01*
X123187467Y-130204133D01*
X123246601Y-130252663D01*
X123314066Y-130288724D01*
X123387270Y-130310930D01*
X123463400Y-130318428D01*
X123679256Y-130318428D01*
X123762764Y-130401936D01*
X123762309Y-130402391D01*
X123730290Y-130405545D01*
X123663259Y-130425878D01*
X123601483Y-130458898D01*
X123597482Y-130462182D01*
X123535700Y-130400400D01*
X123500000Y-130398679D01*
X123430290Y-130405545D01*
X123363259Y-130425878D01*
X123301483Y-130458898D01*
X123247336Y-130503336D01*
X123202898Y-130557483D01*
X123169878Y-130619259D01*
X123162812Y-130642555D01*
X123134228Y-130620483D01*
X122983959Y-130545808D01*
X122838874Y-130505280D01*
X122705400Y-130579721D01*
X122705400Y-131870600D01*
X122725400Y-131870600D01*
X122725400Y-131921400D01*
X122705400Y-131921400D01*
X122705400Y-131941400D01*
X122654600Y-131941400D01*
X122654600Y-131921400D01*
X122634600Y-131921400D01*
X122634600Y-131870600D01*
X122654600Y-131870600D01*
X122654600Y-130579721D01*
X122521126Y-130505280D01*
X122376041Y-130545808D01*
X122225772Y-130620483D01*
X122092959Y-130723039D01*
X122090916Y-130725382D01*
X122105673Y-130697775D01*
X122133001Y-130607688D01*
X122142228Y-130514000D01*
X122142228Y-130377591D01*
X122171659Y-130393322D01*
X122238690Y-130413655D01*
X122308400Y-130420521D01*
X122464100Y-130418800D01*
X122553000Y-130329900D01*
X122553000Y-129768600D01*
X122533000Y-129768600D01*
X122533000Y-129717800D01*
X122553000Y-129717800D01*
X122553000Y-129156500D01*
X122464100Y-129067600D01*
X122308400Y-129065879D01*
X122238690Y-129072745D01*
X122171659Y-129093078D01*
X122109883Y-129126098D01*
X122055736Y-129170536D01*
X122011298Y-129224683D01*
X121978278Y-129286459D01*
X121957945Y-129353490D01*
X121951079Y-129423200D01*
X121952800Y-129628900D01*
X122041698Y-129717798D01*
X121993493Y-129717798D01*
X121928800Y-129664705D01*
X121845775Y-129620327D01*
X121755688Y-129592999D01*
X121662000Y-129583772D01*
X121162000Y-129583772D01*
X121068312Y-129592999D01*
X120978225Y-129620327D01*
X120895200Y-129664705D01*
X120822428Y-129724428D01*
X120776000Y-129781000D01*
X120419762Y-129781000D01*
X120446800Y-129645071D01*
X120446800Y-129434929D01*
X120405804Y-129228826D01*
X120325386Y-129034681D01*
X120285955Y-128975668D01*
X120374822Y-129012478D01*
X120472966Y-129032000D01*
X120573034Y-129032000D01*
X120671178Y-129012478D01*
X120763628Y-128974184D01*
X120846831Y-128918589D01*
X120917589Y-128847831D01*
X120973184Y-128764628D01*
X121011478Y-128672178D01*
X121025795Y-128600200D01*
X122164227Y-128600200D01*
X122334549Y-128770523D01*
G37*
G04 #@! TD.AperFunction*
D26*
X127330201Y-129659779D02*
X127265811Y-129724169D01*
X127210216Y-129807372D01*
X127171922Y-129899822D01*
X127152400Y-129997966D01*
X127152400Y-130098034D01*
X127171922Y-130196178D01*
X127172345Y-130197199D01*
X126842405Y-130197199D01*
X126826200Y-130195603D01*
X126810520Y-130197147D01*
X126560492Y-129947120D01*
X126550149Y-129934517D01*
X126528146Y-129916460D01*
X126612423Y-129832184D01*
X126625016Y-129821849D01*
X126666279Y-129771570D01*
X126696940Y-129714206D01*
X126715822Y-129651963D01*
X126720600Y-129603448D01*
X126720600Y-129603439D01*
X126722196Y-129587234D01*
X126720600Y-129571029D01*
X126720600Y-129342868D01*
X126785710Y-129336455D01*
X126852741Y-129316122D01*
X126914517Y-129283102D01*
X126968664Y-129238664D01*
X127013102Y-129184517D01*
X127046122Y-129122741D01*
X127066455Y-129055710D01*
X127073321Y-128986000D01*
X127071600Y-128662800D01*
X126982700Y-128573900D01*
X126614400Y-128573900D01*
X126614400Y-128593900D01*
X126567600Y-128593900D01*
X126567600Y-128573900D01*
X126545600Y-128573900D01*
X126545600Y-128523100D01*
X126567600Y-128523100D01*
X126567600Y-128503100D01*
X126614400Y-128503100D01*
X126614400Y-128523100D01*
X126982700Y-128523100D01*
X127071600Y-128434200D01*
X127072628Y-128241228D01*
X127330200Y-128241228D01*
X127330201Y-129659779D01*
G04 #@! TA.AperFunction,Conductor*
D27*
G36*
X127330201Y-129659779D02*
G01*
X127265811Y-129724169D01*
X127210216Y-129807372D01*
X127171922Y-129899822D01*
X127152400Y-129997966D01*
X127152400Y-130098034D01*
X127171922Y-130196178D01*
X127172345Y-130197199D01*
X126842405Y-130197199D01*
X126826200Y-130195603D01*
X126810520Y-130197147D01*
X126560492Y-129947120D01*
X126550149Y-129934517D01*
X126528146Y-129916460D01*
X126612423Y-129832184D01*
X126625016Y-129821849D01*
X126666279Y-129771570D01*
X126696940Y-129714206D01*
X126715822Y-129651963D01*
X126720600Y-129603448D01*
X126720600Y-129603439D01*
X126722196Y-129587234D01*
X126720600Y-129571029D01*
X126720600Y-129342868D01*
X126785710Y-129336455D01*
X126852741Y-129316122D01*
X126914517Y-129283102D01*
X126968664Y-129238664D01*
X127013102Y-129184517D01*
X127046122Y-129122741D01*
X127066455Y-129055710D01*
X127073321Y-128986000D01*
X127071600Y-128662800D01*
X126982700Y-128573900D01*
X126614400Y-128573900D01*
X126614400Y-128593900D01*
X126567600Y-128593900D01*
X126567600Y-128573900D01*
X126545600Y-128573900D01*
X126545600Y-128523100D01*
X126567600Y-128523100D01*
X126567600Y-128503100D01*
X126614400Y-128503100D01*
X126614400Y-128523100D01*
X126982700Y-128523100D01*
X127071600Y-128434200D01*
X127072628Y-128241228D01*
X127330200Y-128241228D01*
X127330201Y-129659779D01*
G37*
G04 #@! TD.AperFunction*
D26*
X123213336Y-129238664D02*
X123226967Y-129249851D01*
X123187467Y-129282267D01*
X123180008Y-129291356D01*
X123178522Y-129286459D01*
X123154303Y-129241149D01*
X123210808Y-129235584D01*
X123213336Y-129238664D01*
G04 #@! TA.AperFunction,Conductor*
D27*
G36*
X123213336Y-129238664D02*
G01*
X123226967Y-129249851D01*
X123187467Y-129282267D01*
X123180008Y-129291356D01*
X123178522Y-129286459D01*
X123154303Y-129241149D01*
X123210808Y-129235584D01*
X123213336Y-129238664D01*
G37*
G04 #@! TD.AperFunction*
D26*
X123614400Y-128523100D02*
X123636400Y-128523100D01*
X123636400Y-128573900D01*
X123614400Y-128573900D01*
X123614400Y-128593900D01*
X123567600Y-128593900D01*
X123567600Y-128573900D01*
X123545600Y-128573900D01*
X123545600Y-128523100D01*
X123567600Y-128523100D01*
X123567600Y-128503100D01*
X123614400Y-128503100D01*
X123614400Y-128523100D01*
G04 #@! TA.AperFunction,Conductor*
D27*
G36*
X123614400Y-128523100D02*
G01*
X123636400Y-128523100D01*
X123636400Y-128573900D01*
X123614400Y-128573900D01*
X123614400Y-128593900D01*
X123567600Y-128593900D01*
X123567600Y-128573900D01*
X123545600Y-128573900D01*
X123545600Y-128523100D01*
X123567600Y-128523100D01*
X123567600Y-128503100D01*
X123614400Y-128503100D01*
X123614400Y-128523100D01*
G37*
G04 #@! TD.AperFunction*
D26*
X124866400Y-126085600D02*
X124886400Y-126085600D01*
X124886400Y-126136400D01*
X124866400Y-126136400D01*
X124866400Y-126156400D01*
X124815600Y-126156400D01*
X124815600Y-126136400D01*
X124795600Y-126136400D01*
X124795600Y-126085600D01*
X124815600Y-126085600D01*
X124815600Y-126065600D01*
X124866400Y-126065600D01*
X124866400Y-126085600D01*
G04 #@! TA.AperFunction,Conductor*
D27*
G36*
X124866400Y-126085600D02*
G01*
X124886400Y-126085600D01*
X124886400Y-126136400D01*
X124866400Y-126136400D01*
X124866400Y-126156400D01*
X124815600Y-126156400D01*
X124815600Y-126136400D01*
X124795600Y-126136400D01*
X124795600Y-126085600D01*
X124815600Y-126085600D01*
X124815600Y-126065600D01*
X124866400Y-126065600D01*
X124866400Y-126085600D01*
G37*
G04 #@! TD.AperFunction*
D26*
X132094476Y-124921334D02*
X132130537Y-124988799D01*
X132179067Y-125047933D01*
X132194699Y-125060762D01*
X132156290Y-125064545D01*
X132089259Y-125084878D01*
X132027483Y-125117898D01*
X131977463Y-125158949D01*
X131961141Y-125105146D01*
X131945919Y-125076668D01*
X131980933Y-125047933D01*
X132029463Y-124988799D01*
X132065524Y-124921334D01*
X132080000Y-124873613D01*
X132094476Y-124921334D01*
G04 #@! TA.AperFunction,Conductor*
D27*
G36*
X132094476Y-124921334D02*
G01*
X132130537Y-124988799D01*
X132179067Y-125047933D01*
X132194699Y-125060762D01*
X132156290Y-125064545D01*
X132089259Y-125084878D01*
X132027483Y-125117898D01*
X131977463Y-125158949D01*
X131961141Y-125105146D01*
X131945919Y-125076668D01*
X131980933Y-125047933D01*
X132029463Y-124988799D01*
X132065524Y-124921334D01*
X132080000Y-124873613D01*
X132094476Y-124921334D01*
G37*
G04 #@! TD.AperFunction*
D26*
X121339400Y-117644700D02*
X121428300Y-117733600D01*
X122269600Y-117733600D01*
X122269600Y-117713600D01*
X122320400Y-117713600D01*
X122320400Y-117733600D01*
X123161700Y-117733600D01*
X123250600Y-117644700D01*
X123251751Y-117119000D01*
X126938249Y-117119000D01*
X126939400Y-117644700D01*
X127028300Y-117733600D01*
X127869600Y-117733600D01*
X127869600Y-117713600D01*
X127920400Y-117713600D01*
X127920400Y-117733600D01*
X128761700Y-117733600D01*
X128850600Y-117644700D01*
X128851751Y-117119000D01*
X129735772Y-117119000D01*
X129735772Y-118334000D01*
X129740676Y-118383793D01*
X129755200Y-118431672D01*
X129778786Y-118475797D01*
X129810527Y-118514473D01*
X129849203Y-118546214D01*
X129893328Y-118569800D01*
X129941207Y-118584324D01*
X129991000Y-118589228D01*
X130110800Y-118589228D01*
X130110801Y-120678772D01*
X129991000Y-120678772D01*
X129941207Y-120683676D01*
X129893328Y-120698200D01*
X129849203Y-120721786D01*
X129810527Y-120753527D01*
X129778786Y-120792203D01*
X129755200Y-120836328D01*
X129740676Y-120884207D01*
X129735772Y-120934000D01*
X129735772Y-121821715D01*
X129713578Y-121812522D01*
X129615434Y-121793000D01*
X129515366Y-121793000D01*
X129417222Y-121812522D01*
X129324772Y-121850816D01*
X129241569Y-121906411D01*
X129170811Y-121977169D01*
X129115216Y-122060372D01*
X129076922Y-122152822D01*
X129057400Y-122250966D01*
X129057400Y-122351034D01*
X129076922Y-122449178D01*
X129115216Y-122541628D01*
X129170811Y-122624831D01*
X129241569Y-122695589D01*
X129324772Y-122751184D01*
X129417222Y-122789478D01*
X129515366Y-122809000D01*
X129615434Y-122809000D01*
X129661526Y-122799832D01*
X129637979Y-122835073D01*
X129581495Y-122971437D01*
X129552700Y-123116200D01*
X129552700Y-123201652D01*
X129510378Y-123184122D01*
X129412234Y-123164600D01*
X129312166Y-123164600D01*
X129214022Y-123184122D01*
X129121572Y-123222416D01*
X129114440Y-123227181D01*
X129086664Y-123193336D01*
X129032517Y-123148898D01*
X128970741Y-123115878D01*
X128903710Y-123095545D01*
X128834000Y-123088679D01*
X128638300Y-123090400D01*
X128549400Y-123179300D01*
X128549400Y-123700600D01*
X128569400Y-123700600D01*
X128569400Y-123751400D01*
X128549400Y-123751400D01*
X128549400Y-123771400D01*
X128498600Y-123771400D01*
X128498600Y-123751400D01*
X127947300Y-123751400D01*
X127858400Y-123840300D01*
X127857691Y-123908524D01*
X127852741Y-123905878D01*
X127785710Y-123885545D01*
X127716000Y-123878679D01*
X127392800Y-123880400D01*
X127303900Y-123969300D01*
X127303900Y-124337600D01*
X127323900Y-124337600D01*
X127323900Y-124384400D01*
X127303900Y-124384400D01*
X127303900Y-124406400D01*
X127253100Y-124406400D01*
X127253100Y-124384400D01*
X127233100Y-124384400D01*
X127233100Y-124337600D01*
X127253100Y-124337600D01*
X127253100Y-123969300D01*
X127164200Y-123880400D01*
X126971228Y-123879372D01*
X126971228Y-123446000D01*
X127856679Y-123446000D01*
X127858400Y-123611700D01*
X127947300Y-123700600D01*
X128498600Y-123700600D01*
X128498600Y-123179300D01*
X128409700Y-123090400D01*
X128214000Y-123088679D01*
X128144290Y-123095545D01*
X128077259Y-123115878D01*
X128015483Y-123148898D01*
X127961336Y-123193336D01*
X127916898Y-123247483D01*
X127883878Y-123309259D01*
X127863545Y-123376290D01*
X127856679Y-123446000D01*
X126971228Y-123446000D01*
X126971228Y-123298500D01*
X126968679Y-123272621D01*
X127031776Y-123272621D01*
X127047989Y-123274218D01*
X127064202Y-123272621D01*
X127064204Y-123272621D01*
X127112719Y-123267843D01*
X127174962Y-123248961D01*
X127232326Y-123218300D01*
X127282605Y-123177037D01*
X127292948Y-123164434D01*
X128085625Y-122371759D01*
X128098216Y-122361426D01*
X128113523Y-122342775D01*
X128139479Y-122311148D01*
X128167190Y-122259302D01*
X128170140Y-122253783D01*
X128189022Y-122191540D01*
X128193800Y-122143025D01*
X128193800Y-122143024D01*
X128195397Y-122126811D01*
X128193800Y-122110598D01*
X128193800Y-121901818D01*
X128258189Y-121837429D01*
X128313784Y-121754226D01*
X128352078Y-121661776D01*
X128371600Y-121563632D01*
X128371600Y-121463564D01*
X128352078Y-121365420D01*
X128313784Y-121272970D01*
X128258189Y-121189767D01*
X128187431Y-121119009D01*
X128104228Y-121063414D01*
X128077556Y-121052366D01*
X128746019Y-120383904D01*
X128758616Y-120373566D01*
X128799879Y-120323287D01*
X128830540Y-120265923D01*
X128849422Y-120203680D01*
X128854200Y-120155165D01*
X128854200Y-120155164D01*
X128855797Y-120138950D01*
X128854200Y-120122735D01*
X128854200Y-119514228D01*
X128918589Y-119449839D01*
X128974184Y-119366636D01*
X129012478Y-119274186D01*
X129032000Y-119176042D01*
X129032000Y-119075974D01*
X129012478Y-118977830D01*
X128974184Y-118885380D01*
X128918589Y-118802177D01*
X128847831Y-118731419D01*
X128845172Y-118729642D01*
X128845455Y-118728710D01*
X128852321Y-118659000D01*
X128850600Y-117873300D01*
X128761700Y-117784400D01*
X127920400Y-117784400D01*
X127920400Y-117804400D01*
X127869600Y-117804400D01*
X127869600Y-117784400D01*
X127028300Y-117784400D01*
X126939400Y-117873300D01*
X126937679Y-118659000D01*
X126944545Y-118728710D01*
X126964878Y-118795741D01*
X126964914Y-118795808D01*
X125619207Y-118795808D01*
X125602992Y-118794211D01*
X125586777Y-118795808D01*
X125538262Y-118800586D01*
X125476019Y-118819468D01*
X125418655Y-118850129D01*
X125368376Y-118891392D01*
X125358037Y-118903990D01*
X124031638Y-120230390D01*
X124059478Y-120163178D01*
X124079000Y-120065034D01*
X124079000Y-119964966D01*
X124059478Y-119866822D01*
X124021184Y-119774372D01*
X123965589Y-119691169D01*
X123894831Y-119620411D01*
X123811628Y-119564816D01*
X123719178Y-119526522D01*
X123621034Y-119507000D01*
X123529972Y-119507000D01*
X123333336Y-119310364D01*
X123322993Y-119297761D01*
X123272714Y-119256498D01*
X123215350Y-119225837D01*
X123153107Y-119206955D01*
X123104592Y-119202177D01*
X123104590Y-119202177D01*
X123088377Y-119200580D01*
X123072164Y-119202177D01*
X122085566Y-119202177D01*
X122069351Y-119200580D01*
X122053136Y-119202177D01*
X122004621Y-119206955D01*
X121942378Y-119225837D01*
X121885014Y-119256498D01*
X121834735Y-119297761D01*
X121824396Y-119310359D01*
X120885201Y-120249555D01*
X120872603Y-120259894D01*
X120862266Y-120272490D01*
X120831339Y-120310173D01*
X120812463Y-120345490D01*
X120333266Y-119866294D01*
X120405804Y-119691174D01*
X120446800Y-119485071D01*
X120446800Y-119274929D01*
X120405804Y-119068826D01*
X120325386Y-118874681D01*
X120208638Y-118699955D01*
X120167683Y-118659000D01*
X121337679Y-118659000D01*
X121344545Y-118728710D01*
X121364878Y-118795741D01*
X121397898Y-118857517D01*
X121442336Y-118911664D01*
X121496483Y-118956102D01*
X121558259Y-118989122D01*
X121625290Y-119009455D01*
X121695000Y-119016321D01*
X122180700Y-119014600D01*
X122269600Y-118925700D01*
X122269600Y-117784400D01*
X122320400Y-117784400D01*
X122320400Y-118925700D01*
X122409300Y-119014600D01*
X122895000Y-119016321D01*
X122964710Y-119009455D01*
X123031741Y-118989122D01*
X123093517Y-118956102D01*
X123147664Y-118911664D01*
X123192102Y-118857517D01*
X123225122Y-118795741D01*
X123245455Y-118728710D01*
X123252321Y-118659000D01*
X123250600Y-117873300D01*
X123161700Y-117784400D01*
X122320400Y-117784400D01*
X122269600Y-117784400D01*
X121428300Y-117784400D01*
X121339400Y-117873300D01*
X121337679Y-118659000D01*
X120167683Y-118659000D01*
X120060045Y-118551362D01*
X119885319Y-118434614D01*
X119691174Y-118354196D01*
X119485071Y-118313200D01*
X119392469Y-118313200D01*
X119380000Y-118311972D01*
X118389000Y-118311972D01*
X118389000Y-118123641D01*
X118409185Y-117917777D01*
X118465012Y-117732870D01*
X118555688Y-117562332D01*
X118677762Y-117412653D01*
X118826590Y-117289532D01*
X118996493Y-117197666D01*
X119180997Y-117140552D01*
X119386054Y-117119000D01*
X121338249Y-117119000D01*
X121339400Y-117644700D01*
G04 #@! TA.AperFunction,Conductor*
D27*
G36*
X121339400Y-117644700D02*
G01*
X121428300Y-117733600D01*
X122269600Y-117733600D01*
X122269600Y-117713600D01*
X122320400Y-117713600D01*
X122320400Y-117733600D01*
X123161700Y-117733600D01*
X123250600Y-117644700D01*
X123251751Y-117119000D01*
X126938249Y-117119000D01*
X126939400Y-117644700D01*
X127028300Y-117733600D01*
X127869600Y-117733600D01*
X127869600Y-117713600D01*
X127920400Y-117713600D01*
X127920400Y-117733600D01*
X128761700Y-117733600D01*
X128850600Y-117644700D01*
X128851751Y-117119000D01*
X129735772Y-117119000D01*
X129735772Y-118334000D01*
X129740676Y-118383793D01*
X129755200Y-118431672D01*
X129778786Y-118475797D01*
X129810527Y-118514473D01*
X129849203Y-118546214D01*
X129893328Y-118569800D01*
X129941207Y-118584324D01*
X129991000Y-118589228D01*
X130110800Y-118589228D01*
X130110801Y-120678772D01*
X129991000Y-120678772D01*
X129941207Y-120683676D01*
X129893328Y-120698200D01*
X129849203Y-120721786D01*
X129810527Y-120753527D01*
X129778786Y-120792203D01*
X129755200Y-120836328D01*
X129740676Y-120884207D01*
X129735772Y-120934000D01*
X129735772Y-121821715D01*
X129713578Y-121812522D01*
X129615434Y-121793000D01*
X129515366Y-121793000D01*
X129417222Y-121812522D01*
X129324772Y-121850816D01*
X129241569Y-121906411D01*
X129170811Y-121977169D01*
X129115216Y-122060372D01*
X129076922Y-122152822D01*
X129057400Y-122250966D01*
X129057400Y-122351034D01*
X129076922Y-122449178D01*
X129115216Y-122541628D01*
X129170811Y-122624831D01*
X129241569Y-122695589D01*
X129324772Y-122751184D01*
X129417222Y-122789478D01*
X129515366Y-122809000D01*
X129615434Y-122809000D01*
X129661526Y-122799832D01*
X129637979Y-122835073D01*
X129581495Y-122971437D01*
X129552700Y-123116200D01*
X129552700Y-123201652D01*
X129510378Y-123184122D01*
X129412234Y-123164600D01*
X129312166Y-123164600D01*
X129214022Y-123184122D01*
X129121572Y-123222416D01*
X129114440Y-123227181D01*
X129086664Y-123193336D01*
X129032517Y-123148898D01*
X128970741Y-123115878D01*
X128903710Y-123095545D01*
X128834000Y-123088679D01*
X128638300Y-123090400D01*
X128549400Y-123179300D01*
X128549400Y-123700600D01*
X128569400Y-123700600D01*
X128569400Y-123751400D01*
X128549400Y-123751400D01*
X128549400Y-123771400D01*
X128498600Y-123771400D01*
X128498600Y-123751400D01*
X127947300Y-123751400D01*
X127858400Y-123840300D01*
X127857691Y-123908524D01*
X127852741Y-123905878D01*
X127785710Y-123885545D01*
X127716000Y-123878679D01*
X127392800Y-123880400D01*
X127303900Y-123969300D01*
X127303900Y-124337600D01*
X127323900Y-124337600D01*
X127323900Y-124384400D01*
X127303900Y-124384400D01*
X127303900Y-124406400D01*
X127253100Y-124406400D01*
X127253100Y-124384400D01*
X127233100Y-124384400D01*
X127233100Y-124337600D01*
X127253100Y-124337600D01*
X127253100Y-123969300D01*
X127164200Y-123880400D01*
X126971228Y-123879372D01*
X126971228Y-123446000D01*
X127856679Y-123446000D01*
X127858400Y-123611700D01*
X127947300Y-123700600D01*
X128498600Y-123700600D01*
X128498600Y-123179300D01*
X128409700Y-123090400D01*
X128214000Y-123088679D01*
X128144290Y-123095545D01*
X128077259Y-123115878D01*
X128015483Y-123148898D01*
X127961336Y-123193336D01*
X127916898Y-123247483D01*
X127883878Y-123309259D01*
X127863545Y-123376290D01*
X127856679Y-123446000D01*
X126971228Y-123446000D01*
X126971228Y-123298500D01*
X126968679Y-123272621D01*
X127031776Y-123272621D01*
X127047989Y-123274218D01*
X127064202Y-123272621D01*
X127064204Y-123272621D01*
X127112719Y-123267843D01*
X127174962Y-123248961D01*
X127232326Y-123218300D01*
X127282605Y-123177037D01*
X127292948Y-123164434D01*
X128085625Y-122371759D01*
X128098216Y-122361426D01*
X128113523Y-122342775D01*
X128139479Y-122311148D01*
X128167190Y-122259302D01*
X128170140Y-122253783D01*
X128189022Y-122191540D01*
X128193800Y-122143025D01*
X128193800Y-122143024D01*
X128195397Y-122126811D01*
X128193800Y-122110598D01*
X128193800Y-121901818D01*
X128258189Y-121837429D01*
X128313784Y-121754226D01*
X128352078Y-121661776D01*
X128371600Y-121563632D01*
X128371600Y-121463564D01*
X128352078Y-121365420D01*
X128313784Y-121272970D01*
X128258189Y-121189767D01*
X128187431Y-121119009D01*
X128104228Y-121063414D01*
X128077556Y-121052366D01*
X128746019Y-120383904D01*
X128758616Y-120373566D01*
X128799879Y-120323287D01*
X128830540Y-120265923D01*
X128849422Y-120203680D01*
X128854200Y-120155165D01*
X128854200Y-120155164D01*
X128855797Y-120138950D01*
X128854200Y-120122735D01*
X128854200Y-119514228D01*
X128918589Y-119449839D01*
X128974184Y-119366636D01*
X129012478Y-119274186D01*
X129032000Y-119176042D01*
X129032000Y-119075974D01*
X129012478Y-118977830D01*
X128974184Y-118885380D01*
X128918589Y-118802177D01*
X128847831Y-118731419D01*
X128845172Y-118729642D01*
X128845455Y-118728710D01*
X128852321Y-118659000D01*
X128850600Y-117873300D01*
X128761700Y-117784400D01*
X127920400Y-117784400D01*
X127920400Y-117804400D01*
X127869600Y-117804400D01*
X127869600Y-117784400D01*
X127028300Y-117784400D01*
X126939400Y-117873300D01*
X126937679Y-118659000D01*
X126944545Y-118728710D01*
X126964878Y-118795741D01*
X126964914Y-118795808D01*
X125619207Y-118795808D01*
X125602992Y-118794211D01*
X125586777Y-118795808D01*
X125538262Y-118800586D01*
X125476019Y-118819468D01*
X125418655Y-118850129D01*
X125368376Y-118891392D01*
X125358037Y-118903990D01*
X124031638Y-120230390D01*
X124059478Y-120163178D01*
X124079000Y-120065034D01*
X124079000Y-119964966D01*
X124059478Y-119866822D01*
X124021184Y-119774372D01*
X123965589Y-119691169D01*
X123894831Y-119620411D01*
X123811628Y-119564816D01*
X123719178Y-119526522D01*
X123621034Y-119507000D01*
X123529972Y-119507000D01*
X123333336Y-119310364D01*
X123322993Y-119297761D01*
X123272714Y-119256498D01*
X123215350Y-119225837D01*
X123153107Y-119206955D01*
X123104592Y-119202177D01*
X123104590Y-119202177D01*
X123088377Y-119200580D01*
X123072164Y-119202177D01*
X122085566Y-119202177D01*
X122069351Y-119200580D01*
X122053136Y-119202177D01*
X122004621Y-119206955D01*
X121942378Y-119225837D01*
X121885014Y-119256498D01*
X121834735Y-119297761D01*
X121824396Y-119310359D01*
X120885201Y-120249555D01*
X120872603Y-120259894D01*
X120862266Y-120272490D01*
X120831339Y-120310173D01*
X120812463Y-120345490D01*
X120333266Y-119866294D01*
X120405804Y-119691174D01*
X120446800Y-119485071D01*
X120446800Y-119274929D01*
X120405804Y-119068826D01*
X120325386Y-118874681D01*
X120208638Y-118699955D01*
X120167683Y-118659000D01*
X121337679Y-118659000D01*
X121344545Y-118728710D01*
X121364878Y-118795741D01*
X121397898Y-118857517D01*
X121442336Y-118911664D01*
X121496483Y-118956102D01*
X121558259Y-118989122D01*
X121625290Y-119009455D01*
X121695000Y-119016321D01*
X122180700Y-119014600D01*
X122269600Y-118925700D01*
X122269600Y-117784400D01*
X122320400Y-117784400D01*
X122320400Y-118925700D01*
X122409300Y-119014600D01*
X122895000Y-119016321D01*
X122964710Y-119009455D01*
X123031741Y-118989122D01*
X123093517Y-118956102D01*
X123147664Y-118911664D01*
X123192102Y-118857517D01*
X123225122Y-118795741D01*
X123245455Y-118728710D01*
X123252321Y-118659000D01*
X123250600Y-117873300D01*
X123161700Y-117784400D01*
X122320400Y-117784400D01*
X122269600Y-117784400D01*
X121428300Y-117784400D01*
X121339400Y-117873300D01*
X121337679Y-118659000D01*
X120167683Y-118659000D01*
X120060045Y-118551362D01*
X119885319Y-118434614D01*
X119691174Y-118354196D01*
X119485071Y-118313200D01*
X119392469Y-118313200D01*
X119380000Y-118311972D01*
X118389000Y-118311972D01*
X118389000Y-118123641D01*
X118409185Y-117917777D01*
X118465012Y-117732870D01*
X118555688Y-117562332D01*
X118677762Y-117412653D01*
X118826590Y-117289532D01*
X118996493Y-117197666D01*
X119180997Y-117140552D01*
X119386054Y-117119000D01*
X121338249Y-117119000D01*
X121339400Y-117644700D01*
G37*
G04 #@! TD.AperFunction*
D26*
X128035666Y-124313890D02*
X128025380Y-124326423D01*
X128020476Y-124335598D01*
X127984702Y-124335598D01*
X128016601Y-124303699D01*
X128035666Y-124313890D01*
G04 #@! TA.AperFunction,Conductor*
D27*
G36*
X128035666Y-124313890D02*
G01*
X128025380Y-124326423D01*
X128020476Y-124335598D01*
X127984702Y-124335598D01*
X128016601Y-124303699D01*
X128035666Y-124313890D01*
G37*
G04 #@! TD.AperFunction*
D26*
X134812223Y-117139185D02*
X134997130Y-117195012D01*
X135167668Y-117285688D01*
X135317347Y-117407762D01*
X135440468Y-117556590D01*
X135532334Y-117726493D01*
X135589448Y-117910997D01*
X135611001Y-118116063D01*
X135611001Y-118311972D01*
X134620000Y-118311972D01*
X134607531Y-118313200D01*
X134514929Y-118313200D01*
X134308826Y-118354196D01*
X134114681Y-118434614D01*
X133939955Y-118551362D01*
X133791362Y-118699955D01*
X133674614Y-118874681D01*
X133594196Y-119068826D01*
X133553200Y-119274929D01*
X133553200Y-119485071D01*
X133594196Y-119691174D01*
X133674614Y-119885319D01*
X133791362Y-120060045D01*
X133939955Y-120208638D01*
X134114681Y-120325386D01*
X134308826Y-120405804D01*
X134514929Y-120446800D01*
X134607531Y-120446800D01*
X134620000Y-120448028D01*
X135611001Y-120448028D01*
X135611001Y-120851972D01*
X134620000Y-120851972D01*
X134607531Y-120853200D01*
X134514929Y-120853200D01*
X134308826Y-120894196D01*
X134114681Y-120974614D01*
X133939955Y-121091362D01*
X133791362Y-121239955D01*
X133674614Y-121414681D01*
X133594196Y-121608826D01*
X133553200Y-121814929D01*
X133553200Y-122025071D01*
X133594196Y-122231174D01*
X133666733Y-122406294D01*
X133213228Y-122859800D01*
X133086778Y-122859800D01*
X133085524Y-122855666D01*
X133049463Y-122788201D01*
X133000933Y-122729067D01*
X132941799Y-122680537D01*
X132874334Y-122644476D01*
X132801130Y-122622270D01*
X132725000Y-122614772D01*
X132455000Y-122614772D01*
X132378870Y-122622270D01*
X132305666Y-122644476D01*
X132238201Y-122680537D01*
X132179067Y-122729067D01*
X132130537Y-122788201D01*
X132094476Y-122855666D01*
X132080000Y-122903387D01*
X132065524Y-122855666D01*
X132029463Y-122788201D01*
X131980933Y-122729067D01*
X131921799Y-122680537D01*
X131854334Y-122644476D01*
X131781130Y-122622270D01*
X131705000Y-122614772D01*
X131435000Y-122614772D01*
X131358870Y-122622270D01*
X131285666Y-122644476D01*
X131218201Y-122680537D01*
X131159067Y-122729067D01*
X131110537Y-122788201D01*
X131074476Y-122855666D01*
X131052270Y-122928870D01*
X131044772Y-123005000D01*
X131044772Y-123083381D01*
X131022505Y-122971437D01*
X130966021Y-122835073D01*
X130884020Y-122712349D01*
X130779651Y-122607980D01*
X130656927Y-122525979D01*
X130520563Y-122469495D01*
X130375800Y-122440700D01*
X130228200Y-122440700D01*
X130189842Y-122448330D01*
X130198944Y-122439228D01*
X130891000Y-122439228D01*
X130940793Y-122434324D01*
X130988672Y-122419800D01*
X131032797Y-122396214D01*
X131071473Y-122364473D01*
X131103214Y-122325797D01*
X131126800Y-122281672D01*
X131139255Y-122240613D01*
X131140545Y-122253710D01*
X131160878Y-122320741D01*
X131193898Y-122382517D01*
X131238336Y-122436664D01*
X131292483Y-122481102D01*
X131354259Y-122514122D01*
X131421290Y-122534455D01*
X131491000Y-122541321D01*
X131826700Y-122539600D01*
X131915600Y-122450700D01*
X131915600Y-121584400D01*
X131966400Y-121584400D01*
X131966400Y-122450700D01*
X132055300Y-122539600D01*
X132391000Y-122541321D01*
X132460710Y-122534455D01*
X132527741Y-122514122D01*
X132589517Y-122481102D01*
X132643664Y-122436664D01*
X132688102Y-122382517D01*
X132721122Y-122320741D01*
X132741455Y-122253710D01*
X132748321Y-122184000D01*
X132746600Y-121673300D01*
X132657700Y-121584400D01*
X131966400Y-121584400D01*
X131915600Y-121584400D01*
X131895600Y-121584400D01*
X131895600Y-121533600D01*
X131915600Y-121533600D01*
X131915600Y-120667300D01*
X131966400Y-120667300D01*
X131966400Y-121533600D01*
X132657700Y-121533600D01*
X132746600Y-121444700D01*
X132748321Y-120934000D01*
X132741455Y-120864290D01*
X132721122Y-120797259D01*
X132688102Y-120735483D01*
X132643664Y-120681336D01*
X132589517Y-120636898D01*
X132527741Y-120603878D01*
X132460710Y-120583545D01*
X132391000Y-120576679D01*
X132055300Y-120578400D01*
X131966400Y-120667300D01*
X131915600Y-120667300D01*
X131826700Y-120578400D01*
X131491000Y-120576679D01*
X131421290Y-120583545D01*
X131354259Y-120603878D01*
X131292483Y-120636898D01*
X131238336Y-120681336D01*
X131193898Y-120735483D01*
X131160878Y-120797259D01*
X131140545Y-120864290D01*
X131139255Y-120877387D01*
X131126800Y-120836328D01*
X131103214Y-120792203D01*
X131071473Y-120753527D01*
X131032797Y-120721786D01*
X130988672Y-120698200D01*
X130940793Y-120683676D01*
X130891000Y-120678772D01*
X130771200Y-120678772D01*
X130771200Y-118589228D01*
X130891000Y-118589228D01*
X130940793Y-118584324D01*
X130988672Y-118569800D01*
X131032797Y-118546214D01*
X131071473Y-118514473D01*
X131103214Y-118475797D01*
X131126800Y-118431672D01*
X131139255Y-118390613D01*
X131140545Y-118403710D01*
X131160878Y-118470741D01*
X131193898Y-118532517D01*
X131238336Y-118586664D01*
X131292483Y-118631102D01*
X131354259Y-118664122D01*
X131421290Y-118684455D01*
X131491000Y-118691321D01*
X131826700Y-118689600D01*
X131915600Y-118600700D01*
X131915600Y-117734400D01*
X131966400Y-117734400D01*
X131966400Y-118600700D01*
X132055300Y-118689600D01*
X132391000Y-118691321D01*
X132460710Y-118684455D01*
X132527741Y-118664122D01*
X132589517Y-118631102D01*
X132643664Y-118586664D01*
X132688102Y-118532517D01*
X132721122Y-118470741D01*
X132741455Y-118403710D01*
X132748321Y-118334000D01*
X132746600Y-117823300D01*
X132657700Y-117734400D01*
X131966400Y-117734400D01*
X131915600Y-117734400D01*
X131895600Y-117734400D01*
X131895600Y-117683600D01*
X131915600Y-117683600D01*
X131915600Y-117663600D01*
X131966400Y-117663600D01*
X131966400Y-117683600D01*
X132657700Y-117683600D01*
X132746600Y-117594700D01*
X132748203Y-117119000D01*
X134606359Y-117119000D01*
X134812223Y-117139185D01*
G04 #@! TA.AperFunction,Conductor*
D27*
G36*
X134812223Y-117139185D02*
G01*
X134997130Y-117195012D01*
X135167668Y-117285688D01*
X135317347Y-117407762D01*
X135440468Y-117556590D01*
X135532334Y-117726493D01*
X135589448Y-117910997D01*
X135611001Y-118116063D01*
X135611001Y-118311972D01*
X134620000Y-118311972D01*
X134607531Y-118313200D01*
X134514929Y-118313200D01*
X134308826Y-118354196D01*
X134114681Y-118434614D01*
X133939955Y-118551362D01*
X133791362Y-118699955D01*
X133674614Y-118874681D01*
X133594196Y-119068826D01*
X133553200Y-119274929D01*
X133553200Y-119485071D01*
X133594196Y-119691174D01*
X133674614Y-119885319D01*
X133791362Y-120060045D01*
X133939955Y-120208638D01*
X134114681Y-120325386D01*
X134308826Y-120405804D01*
X134514929Y-120446800D01*
X134607531Y-120446800D01*
X134620000Y-120448028D01*
X135611001Y-120448028D01*
X135611001Y-120851972D01*
X134620000Y-120851972D01*
X134607531Y-120853200D01*
X134514929Y-120853200D01*
X134308826Y-120894196D01*
X134114681Y-120974614D01*
X133939955Y-121091362D01*
X133791362Y-121239955D01*
X133674614Y-121414681D01*
X133594196Y-121608826D01*
X133553200Y-121814929D01*
X133553200Y-122025071D01*
X133594196Y-122231174D01*
X133666733Y-122406294D01*
X133213228Y-122859800D01*
X133086778Y-122859800D01*
X133085524Y-122855666D01*
X133049463Y-122788201D01*
X133000933Y-122729067D01*
X132941799Y-122680537D01*
X132874334Y-122644476D01*
X132801130Y-122622270D01*
X132725000Y-122614772D01*
X132455000Y-122614772D01*
X132378870Y-122622270D01*
X132305666Y-122644476D01*
X132238201Y-122680537D01*
X132179067Y-122729067D01*
X132130537Y-122788201D01*
X132094476Y-122855666D01*
X132080000Y-122903387D01*
X132065524Y-122855666D01*
X132029463Y-122788201D01*
X131980933Y-122729067D01*
X131921799Y-122680537D01*
X131854334Y-122644476D01*
X131781130Y-122622270D01*
X131705000Y-122614772D01*
X131435000Y-122614772D01*
X131358870Y-122622270D01*
X131285666Y-122644476D01*
X131218201Y-122680537D01*
X131159067Y-122729067D01*
X131110537Y-122788201D01*
X131074476Y-122855666D01*
X131052270Y-122928870D01*
X131044772Y-123005000D01*
X131044772Y-123083381D01*
X131022505Y-122971437D01*
X130966021Y-122835073D01*
X130884020Y-122712349D01*
X130779651Y-122607980D01*
X130656927Y-122525979D01*
X130520563Y-122469495D01*
X130375800Y-122440700D01*
X130228200Y-122440700D01*
X130189842Y-122448330D01*
X130198944Y-122439228D01*
X130891000Y-122439228D01*
X130940793Y-122434324D01*
X130988672Y-122419800D01*
X131032797Y-122396214D01*
X131071473Y-122364473D01*
X131103214Y-122325797D01*
X131126800Y-122281672D01*
X131139255Y-122240613D01*
X131140545Y-122253710D01*
X131160878Y-122320741D01*
X131193898Y-122382517D01*
X131238336Y-122436664D01*
X131292483Y-122481102D01*
X131354259Y-122514122D01*
X131421290Y-122534455D01*
X131491000Y-122541321D01*
X131826700Y-122539600D01*
X131915600Y-122450700D01*
X131915600Y-121584400D01*
X131966400Y-121584400D01*
X131966400Y-122450700D01*
X132055300Y-122539600D01*
X132391000Y-122541321D01*
X132460710Y-122534455D01*
X132527741Y-122514122D01*
X132589517Y-122481102D01*
X132643664Y-122436664D01*
X132688102Y-122382517D01*
X132721122Y-122320741D01*
X132741455Y-122253710D01*
X132748321Y-122184000D01*
X132746600Y-121673300D01*
X132657700Y-121584400D01*
X131966400Y-121584400D01*
X131915600Y-121584400D01*
X131895600Y-121584400D01*
X131895600Y-121533600D01*
X131915600Y-121533600D01*
X131915600Y-120667300D01*
X131966400Y-120667300D01*
X131966400Y-121533600D01*
X132657700Y-121533600D01*
X132746600Y-121444700D01*
X132748321Y-120934000D01*
X132741455Y-120864290D01*
X132721122Y-120797259D01*
X132688102Y-120735483D01*
X132643664Y-120681336D01*
X132589517Y-120636898D01*
X132527741Y-120603878D01*
X132460710Y-120583545D01*
X132391000Y-120576679D01*
X132055300Y-120578400D01*
X131966400Y-120667300D01*
X131915600Y-120667300D01*
X131826700Y-120578400D01*
X131491000Y-120576679D01*
X131421290Y-120583545D01*
X131354259Y-120603878D01*
X131292483Y-120636898D01*
X131238336Y-120681336D01*
X131193898Y-120735483D01*
X131160878Y-120797259D01*
X131140545Y-120864290D01*
X131139255Y-120877387D01*
X131126800Y-120836328D01*
X131103214Y-120792203D01*
X131071473Y-120753527D01*
X131032797Y-120721786D01*
X130988672Y-120698200D01*
X130940793Y-120683676D01*
X130891000Y-120678772D01*
X130771200Y-120678772D01*
X130771200Y-118589228D01*
X130891000Y-118589228D01*
X130940793Y-118584324D01*
X130988672Y-118569800D01*
X131032797Y-118546214D01*
X131071473Y-118514473D01*
X131103214Y-118475797D01*
X131126800Y-118431672D01*
X131139255Y-118390613D01*
X131140545Y-118403710D01*
X131160878Y-118470741D01*
X131193898Y-118532517D01*
X131238336Y-118586664D01*
X131292483Y-118631102D01*
X131354259Y-118664122D01*
X131421290Y-118684455D01*
X131491000Y-118691321D01*
X131826700Y-118689600D01*
X131915600Y-118600700D01*
X131915600Y-117734400D01*
X131966400Y-117734400D01*
X131966400Y-118600700D01*
X132055300Y-118689600D01*
X132391000Y-118691321D01*
X132460710Y-118684455D01*
X132527741Y-118664122D01*
X132589517Y-118631102D01*
X132643664Y-118586664D01*
X132688102Y-118532517D01*
X132721122Y-118470741D01*
X132741455Y-118403710D01*
X132748321Y-118334000D01*
X132746600Y-117823300D01*
X132657700Y-117734400D01*
X131966400Y-117734400D01*
X131915600Y-117734400D01*
X131895600Y-117734400D01*
X131895600Y-117683600D01*
X131915600Y-117683600D01*
X131915600Y-117663600D01*
X131966400Y-117663600D01*
X131966400Y-117683600D01*
X132657700Y-117683600D01*
X132746600Y-117594700D01*
X132748203Y-117119000D01*
X134606359Y-117119000D01*
X134812223Y-117139185D01*
G37*
G04 #@! TD.AperFunction*
D26*
X127692163Y-120028589D02*
X127775366Y-120084184D01*
X127867816Y-120122478D01*
X127965960Y-120142000D01*
X128053977Y-120142000D01*
X127252100Y-120943878D01*
X127252321Y-120859000D01*
X127245455Y-120789290D01*
X127225122Y-120722259D01*
X127192102Y-120660483D01*
X127147664Y-120606336D01*
X127093517Y-120561898D01*
X127031741Y-120528878D01*
X126964710Y-120508545D01*
X126895000Y-120501679D01*
X126709300Y-120503400D01*
X126620400Y-120592300D01*
X126620400Y-121608600D01*
X126640400Y-121608600D01*
X126640400Y-121659400D01*
X126620400Y-121659400D01*
X126620400Y-121679400D01*
X126569600Y-121679400D01*
X126569600Y-121659400D01*
X126549600Y-121659400D01*
X126549600Y-121608600D01*
X126569600Y-121608600D01*
X126569600Y-120592300D01*
X126480700Y-120503400D01*
X126295000Y-120501679D01*
X126225290Y-120508545D01*
X126158259Y-120528878D01*
X126099890Y-120560077D01*
X126095649Y-120517015D01*
X126066601Y-120421257D01*
X126019429Y-120333005D01*
X125955948Y-120255652D01*
X125936565Y-120239745D01*
X125799831Y-120103011D01*
X125778972Y-120089073D01*
X125759595Y-120073171D01*
X125737491Y-120061356D01*
X125716628Y-120047416D01*
X125693443Y-120037812D01*
X125671343Y-120026000D01*
X125656942Y-120021632D01*
X125714374Y-119964200D01*
X127627774Y-119964200D01*
X127692163Y-120028589D01*
G04 #@! TA.AperFunction,Conductor*
D27*
G36*
X127692163Y-120028589D02*
G01*
X127775366Y-120084184D01*
X127867816Y-120122478D01*
X127965960Y-120142000D01*
X128053977Y-120142000D01*
X127252100Y-120943878D01*
X127252321Y-120859000D01*
X127245455Y-120789290D01*
X127225122Y-120722259D01*
X127192102Y-120660483D01*
X127147664Y-120606336D01*
X127093517Y-120561898D01*
X127031741Y-120528878D01*
X126964710Y-120508545D01*
X126895000Y-120501679D01*
X126709300Y-120503400D01*
X126620400Y-120592300D01*
X126620400Y-121608600D01*
X126640400Y-121608600D01*
X126640400Y-121659400D01*
X126620400Y-121659400D01*
X126620400Y-121679400D01*
X126569600Y-121679400D01*
X126569600Y-121659400D01*
X126549600Y-121659400D01*
X126549600Y-121608600D01*
X126569600Y-121608600D01*
X126569600Y-120592300D01*
X126480700Y-120503400D01*
X126295000Y-120501679D01*
X126225290Y-120508545D01*
X126158259Y-120528878D01*
X126099890Y-120560077D01*
X126095649Y-120517015D01*
X126066601Y-120421257D01*
X126019429Y-120333005D01*
X125955948Y-120255652D01*
X125936565Y-120239745D01*
X125799831Y-120103011D01*
X125778972Y-120089073D01*
X125759595Y-120073171D01*
X125737491Y-120061356D01*
X125716628Y-120047416D01*
X125693443Y-120037812D01*
X125671343Y-120026000D01*
X125656942Y-120021632D01*
X125714374Y-119964200D01*
X127627774Y-119964200D01*
X127692163Y-120028589D01*
G37*
G04 #@! TD.AperFunction*
G04 #@! TD*
M02*
