G04 #@! TF.GenerationSoftware,KiCad,Pcbnew,5.1.9-73d0e3b20d~88~ubuntu16.04.1*
G04 #@! TF.CreationDate,2021-02-23T03:34:03+00:00*
G04 #@! TF.ProjectId,kuiic,6b756969-632e-46b6-9963-61645f706362,rev?*
G04 #@! TF.SameCoordinates,Original*
G04 #@! TF.FileFunction,Legend,Top*
G04 #@! TF.FilePolarity,Positive*
%FSLAX46Y46*%
G04 Gerber Fmt 4.6, Leading zero omitted, Abs format (unit mm)*
G04 Created by KiCad (PCBNEW 5.1.9-73d0e3b20d~88~ubuntu16.04.1) date 2021-02-23 03:34:03*
%MOMM*%
%LPD*%
G01*
G04 APERTURE LIST*
%ADD10C,0.120000*%
%ADD11C,0.002540*%
%ADD12C,0.150000*%
G04 APERTURE END LIST*
D10*
X133604000Y-133731000D02*
X134239000Y-133731000D01*
X133604000Y-131191000D02*
X134239000Y-131191000D01*
X133604000Y-128651000D02*
X134239000Y-128651000D01*
X133604000Y-135509000D02*
X133604000Y-128651000D01*
D11*
G36*
X120523000Y-133350000D02*
G01*
X120269000Y-133350000D01*
X120269000Y-130810000D01*
X120523000Y-130810000D01*
X120523000Y-133350000D01*
G37*
X120523000Y-133350000D02*
X120269000Y-133350000D01*
X120269000Y-130810000D01*
X120523000Y-130810000D01*
X120523000Y-133350000D01*
D12*
X133167380Y-133405238D02*
X132167380Y-133405238D01*
X133167380Y-132833809D02*
X132595952Y-133262380D01*
X132167380Y-132833809D02*
X132738809Y-133405238D01*
X132167380Y-132500476D02*
X132167380Y-131881428D01*
X132548333Y-132214761D01*
X132548333Y-132071904D01*
X132595952Y-131976666D01*
X132643571Y-131929047D01*
X132738809Y-131881428D01*
X132976904Y-131881428D01*
X133072142Y-131929047D01*
X133119761Y-131976666D01*
X133167380Y-132071904D01*
X133167380Y-132357619D01*
X133119761Y-132452857D01*
X133072142Y-132500476D01*
X132262619Y-131500476D02*
X132215000Y-131452857D01*
X132167380Y-131357619D01*
X132167380Y-131119523D01*
X132215000Y-131024285D01*
X132262619Y-130976666D01*
X132357857Y-130929047D01*
X132453095Y-130929047D01*
X132595952Y-130976666D01*
X133167380Y-131548095D01*
X133167380Y-130929047D01*
X133167380Y-130024285D02*
X133167380Y-130500476D01*
X132167380Y-130500476D01*
X132262619Y-129738571D02*
X132215000Y-129690952D01*
X132167380Y-129595714D01*
X132167380Y-129357619D01*
X132215000Y-129262380D01*
X132262619Y-129214761D01*
X132357857Y-129167142D01*
X132453095Y-129167142D01*
X132595952Y-129214761D01*
X133167380Y-129786190D01*
X133167380Y-129167142D01*
X132643571Y-128405238D02*
X132691190Y-128262380D01*
X132738809Y-128214761D01*
X132834047Y-128167142D01*
X132976904Y-128167142D01*
X133072142Y-128214761D01*
X133119761Y-128262380D01*
X133167380Y-128357619D01*
X133167380Y-128738571D01*
X132167380Y-128738571D01*
X132167380Y-128405238D01*
X132215000Y-128310000D01*
X132262619Y-128262380D01*
X132357857Y-128214761D01*
X132453095Y-128214761D01*
X132548333Y-128262380D01*
X132595952Y-128310000D01*
X132643571Y-128405238D01*
X132643571Y-128738571D01*
D10*
X133604000Y-125222000D02*
X133985000Y-125222000D01*
X133604000Y-121158000D02*
X133604000Y-125222000D01*
X133985000Y-121158000D02*
X133604000Y-121158000D01*
D12*
X132619904Y-136437666D02*
X133096095Y-136437666D01*
X132524666Y-136723380D02*
X132858000Y-135723380D01*
X133191333Y-136723380D01*
X133524666Y-136723380D02*
X133524666Y-135723380D01*
X133762761Y-135723380D01*
X133905619Y-135771000D01*
X134000857Y-135866238D01*
X134048476Y-135961476D01*
X134096095Y-136151952D01*
X134096095Y-136294809D01*
X134048476Y-136485285D01*
X134000857Y-136580523D01*
X133905619Y-136675761D01*
X133762761Y-136723380D01*
X133524666Y-136723380D01*
X135096095Y-136628142D02*
X135048476Y-136675761D01*
X134905619Y-136723380D01*
X134810380Y-136723380D01*
X134667523Y-136675761D01*
X134572285Y-136580523D01*
X134524666Y-136485285D01*
X134477047Y-136294809D01*
X134477047Y-136151952D01*
X134524666Y-135961476D01*
X134572285Y-135866238D01*
X134667523Y-135771000D01*
X134810380Y-135723380D01*
X134905619Y-135723380D01*
X135048476Y-135771000D01*
X135096095Y-135818619D01*
D10*
X120650000Y-127762000D02*
X120015000Y-127762000D01*
X120650000Y-118618000D02*
X120015000Y-118618000D01*
X120650000Y-120650000D02*
X120650000Y-118618000D01*
X120650000Y-127762000D02*
X120650000Y-125730000D01*
D12*
X119316523Y-135723380D02*
X118840333Y-135723380D01*
X118792714Y-136199571D01*
X118840333Y-136151952D01*
X118935571Y-136104333D01*
X119173666Y-136104333D01*
X119268904Y-136151952D01*
X119316523Y-136199571D01*
X119364142Y-136294809D01*
X119364142Y-136532904D01*
X119316523Y-136628142D01*
X119268904Y-136675761D01*
X119173666Y-136723380D01*
X118935571Y-136723380D01*
X118840333Y-136675761D01*
X118792714Y-136628142D01*
X119649857Y-135723380D02*
X119983190Y-136723380D01*
X120316523Y-135723380D01*
X120523095Y-128611380D02*
X121142142Y-128611380D01*
X120808809Y-128992333D01*
X120951666Y-128992333D01*
X121046904Y-129039952D01*
X121094523Y-129087571D01*
X121142142Y-129182809D01*
X121142142Y-129420904D01*
X121094523Y-129516142D01*
X121046904Y-129563761D01*
X120951666Y-129611380D01*
X120665952Y-129611380D01*
X120570714Y-129563761D01*
X120523095Y-129516142D01*
X121427857Y-128611380D02*
X121761190Y-129611380D01*
X122094523Y-128611380D01*
D11*
G36*
X120269000Y-131191000D02*
G01*
X118110000Y-131191000D01*
X118110000Y-130810000D01*
X120269000Y-130810000D01*
X120269000Y-131191000D01*
G37*
X120269000Y-131191000D02*
X118110000Y-131191000D01*
X118110000Y-130810000D01*
X120269000Y-130810000D01*
X120269000Y-131191000D01*
G36*
X120269000Y-133350000D02*
G01*
X118110000Y-133350000D01*
X118110000Y-132969000D01*
X120269000Y-132969000D01*
X120269000Y-133350000D01*
G37*
X120269000Y-133350000D02*
X118110000Y-133350000D01*
X118110000Y-132969000D01*
X120269000Y-132969000D01*
X120269000Y-133350000D01*
D12*
X120975428Y-121475714D02*
X120975428Y-121142380D01*
X120451619Y-121142380D02*
X121451619Y-121142380D01*
X121451619Y-121618571D01*
X120451619Y-122142380D02*
X120499238Y-122047142D01*
X120594476Y-121999523D01*
X121451619Y-121999523D01*
X120499238Y-122904285D02*
X120451619Y-122809047D01*
X120451619Y-122618571D01*
X120499238Y-122523333D01*
X120594476Y-122475714D01*
X120975428Y-122475714D01*
X121070666Y-122523333D01*
X121118285Y-122618571D01*
X121118285Y-122809047D01*
X121070666Y-122904285D01*
X120975428Y-122951904D01*
X120880190Y-122951904D01*
X120784952Y-122475714D01*
X120451619Y-123285238D02*
X121118285Y-123809047D01*
X121118285Y-123285238D02*
X120451619Y-123809047D01*
X120451619Y-124190000D02*
X121451619Y-124190000D01*
X121451619Y-124856666D02*
X121451619Y-125047142D01*
X121404000Y-125142380D01*
X121308761Y-125237619D01*
X121118285Y-125285238D01*
X120784952Y-125285238D01*
X120594476Y-125237619D01*
X120499238Y-125142380D01*
X120451619Y-125047142D01*
X120451619Y-124856666D01*
X120499238Y-124761428D01*
X120594476Y-124666190D01*
X120784952Y-124618571D01*
X121118285Y-124618571D01*
X121308761Y-124666190D01*
X121404000Y-124761428D01*
X121451619Y-124856666D01*
X119165809Y-118181380D02*
X119165809Y-117181380D01*
X119594380Y-117276619D02*
X119642000Y-117229000D01*
X119737238Y-117181380D01*
X119975333Y-117181380D01*
X120070571Y-117229000D01*
X120118190Y-117276619D01*
X120165809Y-117371857D01*
X120165809Y-117467095D01*
X120118190Y-117609952D01*
X119546761Y-118181380D01*
X120165809Y-118181380D01*
X121165809Y-118086142D02*
X121118190Y-118133761D01*
X120975333Y-118181380D01*
X120880095Y-118181380D01*
X120737238Y-118133761D01*
X120642000Y-118038523D01*
X120594380Y-117943285D01*
X120546761Y-117752809D01*
X120546761Y-117609952D01*
X120594380Y-117419476D01*
X120642000Y-117324238D01*
X120737238Y-117229000D01*
X120880095Y-117181380D01*
X120975333Y-117181380D01*
X121118190Y-117229000D01*
X121165809Y-117276619D01*
X123928333Y-120181619D02*
X123833095Y-120134000D01*
X123737857Y-120038761D01*
X123595000Y-119895904D01*
X123499761Y-119848285D01*
X123404523Y-119848285D01*
X123452142Y-120086380D02*
X123356904Y-120038761D01*
X123261666Y-119943523D01*
X123214047Y-119753047D01*
X123214047Y-119419714D01*
X123261666Y-119229238D01*
X123356904Y-119134000D01*
X123452142Y-119086380D01*
X123642619Y-119086380D01*
X123737857Y-119134000D01*
X123833095Y-119229238D01*
X123880714Y-119419714D01*
X123880714Y-119753047D01*
X123833095Y-119943523D01*
X123737857Y-120038761D01*
X123642619Y-120086380D01*
X123452142Y-120086380D01*
X124214047Y-119086380D02*
X124452142Y-120086380D01*
X124642619Y-119372095D01*
X124833095Y-120086380D01*
X125071190Y-119086380D01*
X125452142Y-120086380D02*
X125452142Y-119086380D01*
X125928333Y-120086380D02*
X125928333Y-119086380D01*
X126975952Y-119991142D02*
X126928333Y-120038761D01*
X126785476Y-120086380D01*
X126690238Y-120086380D01*
X126547380Y-120038761D01*
X126452142Y-119943523D01*
X126404523Y-119848285D01*
X126356904Y-119657809D01*
X126356904Y-119514952D01*
X126404523Y-119324476D01*
X126452142Y-119229238D01*
X126547380Y-119134000D01*
X126690238Y-119086380D01*
X126785476Y-119086380D01*
X126928333Y-119134000D01*
X126975952Y-119181619D01*
X133589780Y-118181380D02*
X133256447Y-117705190D01*
X133018352Y-118181380D02*
X133018352Y-117181380D01*
X133399304Y-117181380D01*
X133494542Y-117229000D01*
X133542161Y-117276619D01*
X133589780Y-117371857D01*
X133589780Y-117514714D01*
X133542161Y-117609952D01*
X133494542Y-117657571D01*
X133399304Y-117705190D01*
X133018352Y-117705190D01*
X133970733Y-118133761D02*
X134113590Y-118181380D01*
X134351685Y-118181380D01*
X134446923Y-118133761D01*
X134494542Y-118086142D01*
X134542161Y-117990904D01*
X134542161Y-117895666D01*
X134494542Y-117800428D01*
X134446923Y-117752809D01*
X134351685Y-117705190D01*
X134161209Y-117657571D01*
X134065971Y-117609952D01*
X134018352Y-117562333D01*
X133970733Y-117467095D01*
X133970733Y-117371857D01*
X134018352Y-117276619D01*
X134065971Y-117229000D01*
X134161209Y-117181380D01*
X134399304Y-117181380D01*
X134542161Y-117229000D01*
X134827876Y-117181380D02*
X135399304Y-117181380D01*
X135113590Y-118181380D02*
X135113590Y-117181380D01*
D10*
G04 #@! TO.C,R6*
X122934759Y-130123200D02*
X123242041Y-130123200D01*
X122934759Y-129363200D02*
X123242041Y-129363200D01*
G04 #@! TO.C,D2*
X120712000Y-132923000D02*
X120712000Y-133523000D01*
G04 #@! TO.C,R3*
X129693641Y-125350000D02*
X129386359Y-125350000D01*
X129693641Y-126110000D02*
X129386359Y-126110000D01*
G04 #@! TO.C,J1*
X127035000Y-116949000D02*
X123155000Y-116949000D01*
X121985000Y-121419000D02*
X123035000Y-121419000D01*
X121985000Y-118919000D02*
X121985000Y-121419000D01*
X127155000Y-121419000D02*
X127155000Y-122409000D01*
X128205000Y-121419000D02*
X127155000Y-121419000D01*
X128205000Y-118919000D02*
X128205000Y-121419000D01*
G04 #@! TO.C,SW1*
X131091000Y-117734000D02*
X131291000Y-117734000D01*
X132741000Y-121534000D02*
X132741000Y-117734000D01*
X129641000Y-117734000D02*
X129641000Y-121534000D01*
X131091000Y-121534000D02*
X131291000Y-121534000D01*
G04 #@! TO.C,D1*
X132976000Y-127115000D02*
X132976000Y-125615000D01*
X131576000Y-126715000D02*
X132076000Y-126365000D01*
X132076000Y-126365000D02*
X131576000Y-126015000D01*
X131576000Y-126015000D02*
X131576000Y-126715000D01*
G04 #@! TO.C,U1*
X122231000Y-128246000D02*
X122231000Y-128721000D01*
X127451000Y-123501000D02*
X126976000Y-123501000D01*
X127451000Y-123976000D02*
X127451000Y-123501000D01*
X127451000Y-128721000D02*
X126976000Y-128721000D01*
X127451000Y-128246000D02*
X127451000Y-128721000D01*
X122231000Y-123501000D02*
X122706000Y-123501000D01*
X122231000Y-123976000D02*
X122231000Y-123501000D01*
G04 #@! TO.C,R7*
X129566641Y-129287000D02*
X129259359Y-129287000D01*
X129566641Y-130047000D02*
X129259359Y-130047000D01*
G04 #@! TO.C,R5*
X132233641Y-124207000D02*
X131926359Y-124207000D01*
X132233641Y-124967000D02*
X131926359Y-124967000D01*
G04 #@! TO.C,R4*
X132233641Y-122810000D02*
X131926359Y-122810000D01*
X132233641Y-123570000D02*
X131926359Y-123570000D01*
G04 #@! TO.C,R2*
X130201641Y-124207000D02*
X129894359Y-124207000D01*
X130201641Y-124967000D02*
X129894359Y-124967000D01*
G04 #@! TO.C,R1*
X129693641Y-126620000D02*
X129386359Y-126620000D01*
X129693641Y-127380000D02*
X129386359Y-127380000D01*
G04 #@! TO.C,J3*
X122420000Y-133151000D02*
X122420000Y-135071000D01*
X131580000Y-135071000D02*
X131580000Y-133151000D01*
X131580000Y-137081000D02*
X131580000Y-138786000D01*
X122420000Y-138786000D02*
X122420000Y-137081000D01*
X131580000Y-138786000D02*
X122420000Y-138786000D01*
G04 #@! TO.C,C3*
X121922000Y-135522580D02*
X121922000Y-135241420D01*
X120902000Y-135522580D02*
X120902000Y-135241420D01*
G04 #@! TO.C,C2*
X128884000Y-124313836D02*
X128884000Y-124098164D01*
X128164000Y-124313836D02*
X128164000Y-124098164D01*
G04 #@! TO.C,C1*
X120902000Y-130923420D02*
X120902000Y-131204580D01*
X121922000Y-130923420D02*
X121922000Y-131204580D01*
G04 #@! TO.C,J1*
D12*
X124761666Y-117308380D02*
X124761666Y-118022666D01*
X124714047Y-118165523D01*
X124618809Y-118260761D01*
X124475952Y-118308380D01*
X124380714Y-118308380D01*
X125761666Y-118308380D02*
X125190238Y-118308380D01*
X125475952Y-118308380D02*
X125475952Y-117308380D01*
X125380714Y-117451238D01*
X125285476Y-117546476D01*
X125190238Y-117594095D01*
G04 #@! TO.C,SW1*
X129857666Y-120165761D02*
X130000523Y-120213380D01*
X130238619Y-120213380D01*
X130333857Y-120165761D01*
X130381476Y-120118142D01*
X130429095Y-120022904D01*
X130429095Y-119927666D01*
X130381476Y-119832428D01*
X130333857Y-119784809D01*
X130238619Y-119737190D01*
X130048142Y-119689571D01*
X129952904Y-119641952D01*
X129905285Y-119594333D01*
X129857666Y-119499095D01*
X129857666Y-119403857D01*
X129905285Y-119308619D01*
X129952904Y-119261000D01*
X130048142Y-119213380D01*
X130286238Y-119213380D01*
X130429095Y-119261000D01*
X130762428Y-119213380D02*
X131000523Y-120213380D01*
X131191000Y-119499095D01*
X131381476Y-120213380D01*
X131619571Y-119213380D01*
X132524333Y-120213380D02*
X131952904Y-120213380D01*
X132238619Y-120213380D02*
X132238619Y-119213380D01*
X132143380Y-119356238D01*
X132048142Y-119451476D01*
X131952904Y-119499095D01*
G04 #@! TO.C,J3*
X126666666Y-135596380D02*
X126666666Y-136310666D01*
X126619047Y-136453523D01*
X126523809Y-136548761D01*
X126380952Y-136596380D01*
X126285714Y-136596380D01*
X127047619Y-135596380D02*
X127666666Y-135596380D01*
X127333333Y-135977333D01*
X127476190Y-135977333D01*
X127571428Y-136024952D01*
X127619047Y-136072571D01*
X127666666Y-136167809D01*
X127666666Y-136405904D01*
X127619047Y-136501142D01*
X127571428Y-136548761D01*
X127476190Y-136596380D01*
X127190476Y-136596380D01*
X127095238Y-136548761D01*
X127047619Y-136501142D01*
G04 #@! TD*
M02*
