G04 #@! TF.GenerationSoftware,KiCad,Pcbnew,5.1.9-73d0e3b20d~88~ubuntu16.04.1*
G04 #@! TF.CreationDate,2021-02-23T03:34:03+00:00*
G04 #@! TF.ProjectId,kuiic,6b756969-632e-46b6-9963-61645f706362,rev?*
G04 #@! TF.SameCoordinates,Original*
G04 #@! TF.FileFunction,Copper,L2,Bot*
G04 #@! TF.FilePolarity,Positive*
%FSLAX46Y46*%
G04 Gerber Fmt 4.6, Leading zero omitted, Abs format (unit mm)*
G04 Created by KiCad (PCBNEW 5.1.9-73d0e3b20d~88~ubuntu16.04.1) date 2021-02-23 03:34:03*
%MOMM*%
%LPD*%
G01*
G04 APERTURE LIST*
G04 #@! TA.AperFunction,ConnectorPad*
%ADD10C,0.787400*%
G04 #@! TD*
G04 #@! TA.AperFunction,ComponentPad*
%ADD11R,2.540000X1.625600*%
G04 #@! TD*
G04 #@! TA.AperFunction,ComponentPad*
%ADD12C,1.625600*%
G04 #@! TD*
G04 #@! TA.AperFunction,ComponentPad*
%ADD13O,1.625600X1.625600*%
G04 #@! TD*
G04 #@! TA.AperFunction,ComponentPad*
%ADD14R,1.625600X1.625600*%
G04 #@! TD*
G04 #@! TA.AperFunction,ComponentPad*
%ADD15O,1.000000X2.100000*%
G04 #@! TD*
G04 #@! TA.AperFunction,ComponentPad*
%ADD16O,1.000000X1.600000*%
G04 #@! TD*
G04 #@! TA.AperFunction,ViaPad*
%ADD17C,0.508000*%
G04 #@! TD*
G04 #@! TA.AperFunction,Conductor*
%ADD18C,0.508000*%
G04 #@! TD*
G04 #@! TA.AperFunction,Conductor*
%ADD19C,0.152400*%
G04 #@! TD*
G04 #@! TA.AperFunction,Conductor*
%ADD20C,0.304800*%
G04 #@! TD*
G04 #@! TA.AperFunction,Conductor*
%ADD21C,0.203200*%
G04 #@! TD*
G04 #@! TA.AperFunction,Conductor*
%ADD22C,0.100000*%
G04 #@! TD*
G04 APERTURE END LIST*
G04 #@! TO.P,U2,8*
G04 #@! TO.N,/3V3*
G04 #@! TA.AperFunction,SMDPad,CuDef*
G36*
G01*
X122786000Y-127387000D02*
X123086000Y-127387000D01*
G75*
G02*
X123236000Y-127537000I0J-150000D01*
G01*
X123236000Y-128837000D01*
G75*
G02*
X123086000Y-128987000I-150000J0D01*
G01*
X122786000Y-128987000D01*
G75*
G02*
X122636000Y-128837000I0J150000D01*
G01*
X122636000Y-127537000D01*
G75*
G02*
X122786000Y-127387000I150000J0D01*
G01*
G37*
G04 #@! TD.AperFunction*
G04 #@! TO.P,U2,7*
G04 #@! TA.AperFunction,SMDPad,CuDef*
G36*
G01*
X124056000Y-127387000D02*
X124356000Y-127387000D01*
G75*
G02*
X124506000Y-127537000I0J-150000D01*
G01*
X124506000Y-128837000D01*
G75*
G02*
X124356000Y-128987000I-150000J0D01*
G01*
X124056000Y-128987000D01*
G75*
G02*
X123906000Y-128837000I0J150000D01*
G01*
X123906000Y-127537000D01*
G75*
G02*
X124056000Y-127387000I150000J0D01*
G01*
G37*
G04 #@! TD.AperFunction*
G04 #@! TO.P,U2,6*
G04 #@! TO.N,/SCK*
G04 #@! TA.AperFunction,SMDPad,CuDef*
G36*
G01*
X125326000Y-127387000D02*
X125626000Y-127387000D01*
G75*
G02*
X125776000Y-127537000I0J-150000D01*
G01*
X125776000Y-128837000D01*
G75*
G02*
X125626000Y-128987000I-150000J0D01*
G01*
X125326000Y-128987000D01*
G75*
G02*
X125176000Y-128837000I0J150000D01*
G01*
X125176000Y-127537000D01*
G75*
G02*
X125326000Y-127387000I150000J0D01*
G01*
G37*
G04 #@! TD.AperFunction*
G04 #@! TO.P,U2,5*
G04 #@! TO.N,/MOSI*
G04 #@! TA.AperFunction,SMDPad,CuDef*
G36*
G01*
X126596000Y-127387000D02*
X126896000Y-127387000D01*
G75*
G02*
X127046000Y-127537000I0J-150000D01*
G01*
X127046000Y-128837000D01*
G75*
G02*
X126896000Y-128987000I-150000J0D01*
G01*
X126596000Y-128987000D01*
G75*
G02*
X126446000Y-128837000I0J150000D01*
G01*
X126446000Y-127537000D01*
G75*
G02*
X126596000Y-127387000I150000J0D01*
G01*
G37*
G04 #@! TD.AperFunction*
G04 #@! TO.P,U2,4*
G04 #@! TO.N,GND*
G04 #@! TA.AperFunction,SMDPad,CuDef*
G36*
G01*
X126596000Y-120187000D02*
X126896000Y-120187000D01*
G75*
G02*
X127046000Y-120337000I0J-150000D01*
G01*
X127046000Y-121637000D01*
G75*
G02*
X126896000Y-121787000I-150000J0D01*
G01*
X126596000Y-121787000D01*
G75*
G02*
X126446000Y-121637000I0J150000D01*
G01*
X126446000Y-120337000D01*
G75*
G02*
X126596000Y-120187000I150000J0D01*
G01*
G37*
G04 #@! TD.AperFunction*
G04 #@! TO.P,U2,3*
G04 #@! TO.N,/3V3*
G04 #@! TA.AperFunction,SMDPad,CuDef*
G36*
G01*
X125326000Y-120187000D02*
X125626000Y-120187000D01*
G75*
G02*
X125776000Y-120337000I0J-150000D01*
G01*
X125776000Y-121637000D01*
G75*
G02*
X125626000Y-121787000I-150000J0D01*
G01*
X125326000Y-121787000D01*
G75*
G02*
X125176000Y-121637000I0J150000D01*
G01*
X125176000Y-120337000D01*
G75*
G02*
X125326000Y-120187000I150000J0D01*
G01*
G37*
G04 #@! TD.AperFunction*
G04 #@! TO.P,U2,2*
G04 #@! TO.N,/MISO*
G04 #@! TA.AperFunction,SMDPad,CuDef*
G36*
G01*
X124056000Y-120187000D02*
X124356000Y-120187000D01*
G75*
G02*
X124506000Y-120337000I0J-150000D01*
G01*
X124506000Y-121637000D01*
G75*
G02*
X124356000Y-121787000I-150000J0D01*
G01*
X124056000Y-121787000D01*
G75*
G02*
X123906000Y-121637000I0J150000D01*
G01*
X123906000Y-120337000D01*
G75*
G02*
X124056000Y-120187000I150000J0D01*
G01*
G37*
G04 #@! TD.AperFunction*
G04 #@! TO.P,U2,1*
G04 #@! TO.N,/CS#*
G04 #@! TA.AperFunction,SMDPad,CuDef*
G36*
G01*
X122786000Y-120187000D02*
X123086000Y-120187000D01*
G75*
G02*
X123236000Y-120337000I0J-150000D01*
G01*
X123236000Y-121637000D01*
G75*
G02*
X123086000Y-121787000I-150000J0D01*
G01*
X122786000Y-121787000D01*
G75*
G02*
X122636000Y-121637000I0J150000D01*
G01*
X122636000Y-120337000D01*
G75*
G02*
X122786000Y-120187000I150000J0D01*
G01*
G37*
G04 #@! TD.AperFunction*
G04 #@! TD*
D10*
G04 #@! TO.P,J2,6*
G04 #@! TO.N,/NMI#*
X129667000Y-127000000D03*
G04 #@! TO.P,J2,5*
G04 #@! TO.N,GND*
X130937000Y-127000000D03*
G04 #@! TO.P,J2,4*
G04 #@! TO.N,/SWC*
X129667000Y-125730000D03*
G04 #@! TO.P,J2,3*
G04 #@! TO.N,/RST#*
X130937000Y-125730000D03*
G04 #@! TO.P,J2,2*
G04 #@! TO.N,/SWD*
X129667000Y-124460000D03*
G04 #@! TO.P,J2,1*
G04 #@! TO.N,/3V3*
X130937000Y-124460000D03*
G04 #@! TD*
D11*
G04 #@! TO.P,J5,4*
G04 #@! TO.N,/C3*
X135890000Y-127000000D03*
G04 #@! TO.P,J5,7*
G04 #@! TO.N,/TX*
X135890000Y-119380000D03*
G04 #@! TO.P,J5,3*
G04 #@! TO.N,/C2*
X135890000Y-129540000D03*
G04 #@! TO.P,J5,1*
G04 #@! TO.N,/AN*
X135890000Y-134620000D03*
G04 #@! TO.P,J5,5*
G04 #@! TO.N,/SDA*
X135890000Y-124460000D03*
G04 #@! TO.P,J5,2*
G04 #@! TO.N,/C1*
X135890000Y-132080000D03*
G04 #@! TO.P,J5,6*
G04 #@! TO.N,/SCL*
X135890000Y-121920000D03*
D12*
G04 #@! TO.P,J5,1*
G04 #@! TO.N,/AN*
X134620000Y-134620000D03*
D13*
G04 #@! TO.P,J5,2*
G04 #@! TO.N,/C1*
X134620000Y-132080000D03*
G04 #@! TO.P,J5,3*
G04 #@! TO.N,/C2*
X134620000Y-129540000D03*
G04 #@! TO.P,J5,4*
G04 #@! TO.N,/C3*
X134620000Y-127000000D03*
G04 #@! TO.P,J5,5*
G04 #@! TO.N,/SDA*
X134620000Y-124460000D03*
G04 #@! TO.P,J5,6*
G04 #@! TO.N,/SCL*
X134620000Y-121920000D03*
G04 #@! TO.P,J5,7*
G04 #@! TO.N,/TX*
X134620000Y-119380000D03*
G04 #@! TD*
D11*
G04 #@! TO.P,J4,4*
G04 #@! TO.N,/FX7*
X118110000Y-127000000D03*
G04 #@! TO.P,J4,7*
G04 #@! TO.N,/+5V*
X118110000Y-134620000D03*
G04 #@! TO.P,J4,3*
G04 #@! TO.N,/FX6*
X118110000Y-124460000D03*
G04 #@! TO.P,J4,1*
G04 #@! TO.N,/FX4*
X118110000Y-119380000D03*
G04 #@! TO.P,J4,5*
G04 #@! TO.N,/3V3*
X118110000Y-129540000D03*
G04 #@! TO.P,J4,2*
G04 #@! TO.N,/FX5*
X118110000Y-121920000D03*
G04 #@! TO.P,J4,6*
G04 #@! TO.N,GND*
X118110000Y-132080000D03*
D12*
G04 #@! TO.P,J4,1*
G04 #@! TO.N,/FX4*
X119380000Y-119380000D03*
D13*
G04 #@! TO.P,J4,2*
G04 #@! TO.N,/FX5*
X119380000Y-121920000D03*
G04 #@! TO.P,J4,3*
G04 #@! TO.N,/FX6*
X119380000Y-124460000D03*
G04 #@! TO.P,J4,4*
G04 #@! TO.N,/FX7*
X119380000Y-127000000D03*
G04 #@! TO.P,J4,5*
G04 #@! TO.N,/3V3*
X119380000Y-129540000D03*
D14*
G04 #@! TO.P,J4,6*
G04 #@! TO.N,GND*
X119380000Y-132080000D03*
D13*
G04 #@! TO.P,J4,7*
G04 #@! TO.N,/+5V*
X119380000Y-134620000D03*
G04 #@! TD*
D15*
G04 #@! TO.P,J3,S1*
G04 #@! TO.N,GND*
X122680000Y-131896000D03*
X131320000Y-131896000D03*
D16*
X122680000Y-136076000D03*
X131320000Y-136076000D03*
G04 #@! TD*
D17*
G04 #@! TO.N,GND*
X126746000Y-120497600D03*
X122682000Y-133858000D03*
X128524000Y-122936000D03*
X132613400Y-129235200D03*
X126111000Y-124841000D03*
X129387602Y-118160802D03*
X123952000Y-118237000D03*
X132969000Y-118999000D03*
X121285000Y-128879600D03*
X127127000Y-129413000D03*
X120650000Y-117983000D03*
X134620000Y-117856000D03*
G04 #@! TO.N,/3V3*
X125476000Y-120497600D03*
X125222000Y-129413000D03*
X129362200Y-123672600D03*
G04 #@! TO.N,/+5V*
X125881661Y-129381722D03*
G04 #@! TO.N,/NMI#*
X128016000Y-125272800D03*
G04 #@! TO.N,/SWD*
X128343651Y-125846189D03*
G04 #@! TO.N,/SWC*
X128320800Y-127152400D03*
G04 #@! TO.N,/RST#*
X129565400Y-122301000D03*
X127863600Y-121513598D03*
G04 #@! TO.N,/SDA*
X128015994Y-119634000D03*
G04 #@! TO.N,/SCL*
X128524000Y-119126008D03*
G04 #@! TO.N,/D-*
X124589959Y-129605619D03*
X125308800Y-132334000D03*
G04 #@! TO.N,/TX*
X120523000Y-128524000D03*
G04 #@! TO.N,/C3*
X121792996Y-120523000D03*
G04 #@! TO.N,/C2*
X122301000Y-120014978D03*
G04 #@! TO.N,/C1*
X124091000Y-122924002D03*
G04 #@! TO.N,/AN*
X127660400Y-130048000D03*
G04 #@! TO.N,/MISO*
X123571000Y-120015000D03*
G04 #@! TO.N,/MOSI*
X122171441Y-123065559D03*
G04 #@! TO.N,/SCK*
X122145240Y-123825076D03*
G04 #@! TO.N,/CS#*
X121818400Y-121412000D03*
G04 #@! TD*
D18*
G04 #@! TO.N,GND*
X122680000Y-133856000D02*
X122682000Y-133858000D01*
D19*
X122680000Y-131769000D02*
X122680000Y-133856000D01*
D18*
X126746000Y-120987000D02*
X126746000Y-120497600D01*
X131320000Y-131142200D02*
X131320000Y-131769000D01*
D19*
X130937000Y-127000000D02*
X131445000Y-127508000D01*
D18*
X132613400Y-128168400D02*
X132613400Y-129235200D01*
X131953000Y-127508000D02*
X132613400Y-128168400D01*
D19*
X131445000Y-127508000D02*
X131953000Y-127508000D01*
X126746000Y-122428000D02*
X126746000Y-120987000D01*
D18*
X127254000Y-122936000D02*
X126746000Y-122428000D01*
X128524000Y-122936000D02*
X127254000Y-122936000D01*
D20*
G04 #@! TO.N,/3V3*
X124206000Y-128397000D02*
X125222000Y-129413000D01*
X124206000Y-128187000D02*
X124206000Y-128397000D01*
D18*
X121691400Y-129540000D02*
X119380000Y-129540000D01*
X122936000Y-128295400D02*
X121691400Y-129540000D01*
X122936000Y-128187000D02*
X122936000Y-128295400D01*
X122936000Y-128187000D02*
X124206000Y-128187000D01*
X125476000Y-121787000D02*
X125476000Y-120987000D01*
X129362200Y-123672600D02*
X126485998Y-123672600D01*
X126485998Y-123672600D02*
X125476000Y-122662602D01*
X125374399Y-122224801D02*
X125476000Y-122123200D01*
X122021599Y-122224801D02*
X125374399Y-122224801D01*
X121386600Y-122859800D02*
X122021599Y-122224801D01*
X121386600Y-126111000D02*
X121386600Y-122859800D01*
X122936000Y-127660400D02*
X121386600Y-126111000D01*
X122936000Y-128187000D02*
X122936000Y-127660400D01*
X125476000Y-122123200D02*
X125476000Y-121787000D01*
X125476000Y-122662602D02*
X125476000Y-122123200D01*
D19*
X129527299Y-123837699D02*
X129362200Y-123672600D01*
X129965705Y-123837699D02*
X129527299Y-123837699D01*
X130156206Y-124028200D02*
X129965705Y-123837699D01*
X130505200Y-124028200D02*
X130156206Y-124028200D01*
X130937000Y-124460000D02*
X130505200Y-124028200D01*
D18*
G04 #@! TO.N,/+5V*
X123977400Y-134620000D02*
X119380000Y-134620000D01*
X126009400Y-129509461D02*
X126009400Y-132588000D01*
X126009400Y-132588000D02*
X123977400Y-134620000D01*
X125881661Y-129381722D02*
X126009400Y-129509461D01*
D19*
G04 #@! TO.N,/NMI#*
X128559813Y-127635000D02*
X129194813Y-127000000D01*
X128116075Y-127635000D02*
X128559813Y-127635000D01*
X127762001Y-127280926D02*
X128116075Y-127635000D01*
X129194813Y-127000000D02*
X129667000Y-127000000D01*
X127762001Y-125526799D02*
X127762001Y-127280926D01*
X128016000Y-125272800D02*
X127762001Y-125526799D01*
G04 #@! TO.N,/SWD*
X129667000Y-124522840D02*
X129667000Y-124460000D01*
X128343651Y-125846189D02*
X129667000Y-124522840D01*
G04 #@! TO.N,/SWC*
X128320800Y-127076200D02*
X128320800Y-127152400D01*
X129667000Y-125730000D02*
X128320800Y-127076200D01*
G04 #@! TO.N,/RST#*
X131559301Y-123375927D02*
X130484374Y-122301000D01*
X131559301Y-125107699D02*
X131559301Y-123375927D01*
X130937000Y-125730000D02*
X131559301Y-125107699D01*
X129413000Y-122301000D02*
X129565400Y-122301000D01*
X130484374Y-122301000D02*
X129413000Y-122301000D01*
X129413000Y-122301000D02*
X128651002Y-122301000D01*
X128651002Y-122301000D02*
X127863600Y-121513598D01*
G04 #@! TO.N,/SDA*
X129794000Y-119634000D02*
X128015994Y-119634000D01*
X134620000Y-124460000D02*
X129794000Y-119634000D01*
G04 #@! TO.N,/SCL*
X131826008Y-119126008D02*
X128524000Y-119126008D01*
X134620000Y-121920000D02*
X131826008Y-119126008D01*
G04 #@! TO.N,/D-*
X125308800Y-130324460D02*
X125308800Y-132334000D01*
X124589959Y-129605619D02*
X125308800Y-130324460D01*
G04 #@! TO.N,/TX*
X120523000Y-128524000D02*
X120523000Y-119126000D01*
X120523000Y-119126000D02*
X122148600Y-117500400D01*
X132740400Y-117500400D02*
X134620000Y-119380000D01*
X122148600Y-117500400D02*
X132740400Y-117500400D01*
G04 #@! TO.N,/C3*
X121792996Y-119811804D02*
X121792996Y-120523000D01*
X122729744Y-118875056D02*
X121792996Y-119811804D01*
X126542800Y-118875056D02*
X122729744Y-118875056D01*
X127860544Y-120192800D02*
X126542800Y-118875056D01*
X133350000Y-124079000D02*
X129463800Y-120192800D01*
X133350000Y-125730000D02*
X133350000Y-124079000D01*
X129463800Y-120192800D02*
X127860544Y-120192800D01*
X134620000Y-127000000D02*
X133350000Y-125730000D01*
G04 #@! TO.N,/C2*
X122808977Y-119507001D02*
X122301000Y-120014978D01*
X128902678Y-121666000D02*
X126743679Y-119507001D01*
X130479800Y-121666000D02*
X128902678Y-121666000D01*
X131953000Y-123139200D02*
X130479800Y-121666000D01*
X126743679Y-119507001D02*
X122808977Y-119507001D01*
X131953000Y-126776710D02*
X131953000Y-123139200D01*
X134620000Y-129443710D02*
X131953000Y-126776710D01*
X134620000Y-129540000D02*
X134620000Y-129443710D01*
G04 #@! TO.N,/C1*
X132207000Y-129667000D02*
X134620000Y-132080000D01*
X129616200Y-129667000D02*
X132207000Y-129667000D01*
X124091000Y-124141800D02*
X129616200Y-129667000D01*
X124091000Y-122924002D02*
X124091000Y-124141800D01*
G04 #@! TO.N,/AN*
X130606800Y-134620000D02*
X134620000Y-134620000D01*
X127660400Y-131673600D02*
X130606800Y-134620000D01*
X127660400Y-130048000D02*
X127660400Y-131673600D01*
G04 #@! TO.N,/MISO*
X124206000Y-120650000D02*
X123571000Y-120015000D01*
X124206000Y-120987000D02*
X124206000Y-120650000D01*
G04 #@! TO.N,/MOSI*
X122171475Y-123065559D02*
X122171441Y-123065559D01*
X126746000Y-127640084D02*
X122171475Y-123065559D01*
X126746000Y-128187000D02*
X126746000Y-127640084D01*
G04 #@! TO.N,/SCK*
X122145240Y-124355040D02*
X122145240Y-123825076D01*
X125476000Y-127685800D02*
X122145240Y-124355040D01*
X125476000Y-128187000D02*
X125476000Y-127685800D01*
G04 #@! TO.N,/CS#*
X122243400Y-120987000D02*
X121818400Y-121412000D01*
X122936000Y-120987000D02*
X122243400Y-120987000D01*
G04 #@! TD*
D21*
G04 #@! TO.N,GND*
X129371245Y-129889018D02*
X129381584Y-129901616D01*
X129405238Y-129921028D01*
X129431863Y-129942879D01*
X129489227Y-129973540D01*
X129551470Y-129992422D01*
X129616200Y-129998797D01*
X129632415Y-129997200D01*
X132070228Y-129997200D01*
X133666733Y-131593707D01*
X133594196Y-131768826D01*
X133553200Y-131974929D01*
X133553200Y-132185071D01*
X133594196Y-132391174D01*
X133674614Y-132585319D01*
X133791362Y-132760045D01*
X133939955Y-132908638D01*
X134114681Y-133025386D01*
X134308826Y-133105804D01*
X134514929Y-133146800D01*
X134607531Y-133146800D01*
X134620000Y-133148028D01*
X135611000Y-133148028D01*
X135611000Y-133551972D01*
X134620000Y-133551972D01*
X134607531Y-133553200D01*
X134514929Y-133553200D01*
X134308826Y-133594196D01*
X134114681Y-133674614D01*
X133939955Y-133791362D01*
X133791362Y-133939955D01*
X133674614Y-134114681D01*
X133602077Y-134289800D01*
X130743573Y-134289800D01*
X128792746Y-132338973D01*
X129311000Y-132338973D01*
X129311000Y-132453027D01*
X129333250Y-132564888D01*
X129376896Y-132670260D01*
X129440261Y-132765091D01*
X129520909Y-132845739D01*
X129615740Y-132909104D01*
X129721112Y-132952750D01*
X129832973Y-132975000D01*
X129947027Y-132975000D01*
X130058888Y-132952750D01*
X130164260Y-132909104D01*
X130259091Y-132845739D01*
X130339739Y-132765091D01*
X130403104Y-132670260D01*
X130446750Y-132564888D01*
X130464771Y-132474287D01*
X130485795Y-132637831D01*
X130539248Y-132796890D01*
X130622705Y-132942465D01*
X130732959Y-133068961D01*
X130865772Y-133171517D01*
X131016041Y-133246192D01*
X131161126Y-133286720D01*
X131294600Y-133212279D01*
X131294600Y-131921400D01*
X131345400Y-131921400D01*
X131345400Y-133212279D01*
X131478874Y-133286720D01*
X131623959Y-133246192D01*
X131774228Y-133171517D01*
X131907041Y-133068961D01*
X132017295Y-132942465D01*
X132100752Y-132796890D01*
X132154205Y-132637831D01*
X132175600Y-132471400D01*
X132175600Y-131921400D01*
X131345400Y-131921400D01*
X131294600Y-131921400D01*
X130464400Y-131921400D01*
X130464400Y-132315847D01*
X130446750Y-132227112D01*
X130403104Y-132121740D01*
X130339739Y-132026909D01*
X130259091Y-131946261D01*
X130164260Y-131882896D01*
X130058888Y-131839250D01*
X129947027Y-131817000D01*
X129832973Y-131817000D01*
X129721112Y-131839250D01*
X129615740Y-131882896D01*
X129520909Y-131946261D01*
X129440261Y-132026909D01*
X129376896Y-132121740D01*
X129333250Y-132227112D01*
X129311000Y-132338973D01*
X128792746Y-132338973D01*
X127990600Y-131536828D01*
X127990600Y-131320600D01*
X130464400Y-131320600D01*
X130464400Y-131870600D01*
X131294600Y-131870600D01*
X131294600Y-130579721D01*
X131345400Y-130579721D01*
X131345400Y-131870600D01*
X132175600Y-131870600D01*
X132175600Y-131320600D01*
X132154205Y-131154169D01*
X132100752Y-130995110D01*
X132017295Y-130849535D01*
X131907041Y-130723039D01*
X131774228Y-130620483D01*
X131623959Y-130545808D01*
X131478874Y-130505280D01*
X131345400Y-130579721D01*
X131294600Y-130579721D01*
X131161126Y-130505280D01*
X131016041Y-130545808D01*
X130865772Y-130620483D01*
X130732959Y-130723039D01*
X130622705Y-130849535D01*
X130539248Y-130995110D01*
X130485795Y-131154169D01*
X130464400Y-131320600D01*
X127990600Y-131320600D01*
X127990600Y-130436220D01*
X128054989Y-130371831D01*
X128110584Y-130288628D01*
X128148878Y-130196178D01*
X128168400Y-130098034D01*
X128168400Y-129997966D01*
X128148878Y-129899822D01*
X128110584Y-129807372D01*
X128054989Y-129724169D01*
X127984231Y-129653411D01*
X127901028Y-129597816D01*
X127808578Y-129559522D01*
X127710434Y-129540000D01*
X127610366Y-129540000D01*
X127512222Y-129559522D01*
X127419772Y-129597816D01*
X127336569Y-129653411D01*
X127265811Y-129724169D01*
X127210216Y-129807372D01*
X127171922Y-129899822D01*
X127152400Y-129997966D01*
X127152400Y-130098034D01*
X127171922Y-130196178D01*
X127210216Y-130288628D01*
X127265811Y-130371831D01*
X127330200Y-130436220D01*
X127330201Y-131657377D01*
X127328603Y-131673600D01*
X127334979Y-131738329D01*
X127353861Y-131800573D01*
X127384521Y-131857937D01*
X127394914Y-131870600D01*
X127425785Y-131908216D01*
X127438383Y-131918555D01*
X130361845Y-134842018D01*
X130372184Y-134854616D01*
X130422463Y-134895879D01*
X130479827Y-134926540D01*
X130542070Y-134945422D01*
X130590585Y-134950200D01*
X130590587Y-134950200D01*
X130606800Y-134951797D01*
X130623013Y-134950200D01*
X131107714Y-134950200D01*
X131016041Y-134975808D01*
X130865772Y-135050483D01*
X130732959Y-135153039D01*
X130622705Y-135279535D01*
X130539248Y-135425110D01*
X130485795Y-135584169D01*
X130464400Y-135750600D01*
X130464400Y-136050600D01*
X131294600Y-136050600D01*
X131294600Y-136030600D01*
X131345400Y-136030600D01*
X131345400Y-136050600D01*
X132175600Y-136050600D01*
X132175600Y-135750600D01*
X132154205Y-135584169D01*
X132100752Y-135425110D01*
X132017295Y-135279535D01*
X131907041Y-135153039D01*
X131774228Y-135050483D01*
X131623959Y-134975808D01*
X131532286Y-134950200D01*
X133602077Y-134950200D01*
X133674614Y-135125319D01*
X133791362Y-135300045D01*
X133939955Y-135448638D01*
X134114681Y-135565386D01*
X134308826Y-135645804D01*
X134514929Y-135686800D01*
X134607531Y-135686800D01*
X134620000Y-135688028D01*
X135611000Y-135688028D01*
X135611000Y-135876359D01*
X135590815Y-136082223D01*
X135534988Y-136267130D01*
X135444310Y-136437670D01*
X135322235Y-136587349D01*
X135173410Y-136710468D01*
X135003511Y-136802332D01*
X134819003Y-136859448D01*
X134613946Y-136881000D01*
X132009856Y-136881000D01*
X132017295Y-136872465D01*
X132100752Y-136726890D01*
X132154205Y-136567831D01*
X132175600Y-136401400D01*
X132175600Y-136101400D01*
X131345400Y-136101400D01*
X131345400Y-136121400D01*
X131294600Y-136121400D01*
X131294600Y-136101400D01*
X130464400Y-136101400D01*
X130464400Y-136401400D01*
X130485795Y-136567831D01*
X130539248Y-136726890D01*
X130622705Y-136872465D01*
X130630144Y-136881000D01*
X123369856Y-136881000D01*
X123377295Y-136872465D01*
X123460752Y-136726890D01*
X123514205Y-136567831D01*
X123535600Y-136401400D01*
X123535600Y-136101400D01*
X122705400Y-136101400D01*
X122705400Y-136121400D01*
X122654600Y-136121400D01*
X122654600Y-136101400D01*
X121824400Y-136101400D01*
X121824400Y-136401400D01*
X121845795Y-136567831D01*
X121899248Y-136726890D01*
X121982705Y-136872465D01*
X121990144Y-136881000D01*
X119393641Y-136881000D01*
X119187777Y-136860815D01*
X119002870Y-136804988D01*
X118832330Y-136714310D01*
X118682651Y-136592235D01*
X118559532Y-136443410D01*
X118467668Y-136273511D01*
X118410552Y-136089003D01*
X118389000Y-135883946D01*
X118389000Y-135688028D01*
X119380000Y-135688028D01*
X119392469Y-135686800D01*
X119485071Y-135686800D01*
X119691174Y-135645804D01*
X119885319Y-135565386D01*
X120060045Y-135448638D01*
X120208638Y-135300045D01*
X120323595Y-135128000D01*
X122125385Y-135128000D01*
X122092959Y-135153039D01*
X121982705Y-135279535D01*
X121899248Y-135425110D01*
X121845795Y-135584169D01*
X121824400Y-135750600D01*
X121824400Y-136050600D01*
X122654600Y-136050600D01*
X122654600Y-136030600D01*
X122705400Y-136030600D01*
X122705400Y-136050600D01*
X123535600Y-136050600D01*
X123535600Y-135750600D01*
X123514205Y-135584169D01*
X123460752Y-135425110D01*
X123377295Y-135279535D01*
X123267041Y-135153039D01*
X123234615Y-135128000D01*
X123952456Y-135128000D01*
X123977400Y-135130457D01*
X124002344Y-135128000D01*
X124002347Y-135128000D01*
X124076985Y-135120649D01*
X124172743Y-135091601D01*
X124260995Y-135044429D01*
X124338348Y-134980948D01*
X124354255Y-134961565D01*
X126350971Y-132964850D01*
X126370348Y-132948948D01*
X126416427Y-132892800D01*
X126433829Y-132871596D01*
X126481000Y-132783344D01*
X126481001Y-132783343D01*
X126510049Y-132687585D01*
X126517400Y-132612947D01*
X126517400Y-132612944D01*
X126519857Y-132588000D01*
X126517400Y-132563056D01*
X126517400Y-129534404D01*
X126519857Y-129509460D01*
X126515284Y-129463034D01*
X126510049Y-129409876D01*
X126481001Y-129314118D01*
X126433829Y-129225866D01*
X126407108Y-129193306D01*
X126440926Y-129211382D01*
X126516944Y-129234442D01*
X126596000Y-129242228D01*
X126896000Y-129242228D01*
X126975056Y-129234442D01*
X127051074Y-129211382D01*
X127121133Y-129173935D01*
X127182539Y-129123539D01*
X127232935Y-129062133D01*
X127270382Y-128992074D01*
X127293442Y-128916056D01*
X127301228Y-128837000D01*
X127301228Y-127819001D01*
X129371245Y-129889018D01*
G04 #@! TA.AperFunction,Conductor*
D22*
G36*
X129371245Y-129889018D02*
G01*
X129381584Y-129901616D01*
X129405238Y-129921028D01*
X129431863Y-129942879D01*
X129489227Y-129973540D01*
X129551470Y-129992422D01*
X129616200Y-129998797D01*
X129632415Y-129997200D01*
X132070228Y-129997200D01*
X133666733Y-131593707D01*
X133594196Y-131768826D01*
X133553200Y-131974929D01*
X133553200Y-132185071D01*
X133594196Y-132391174D01*
X133674614Y-132585319D01*
X133791362Y-132760045D01*
X133939955Y-132908638D01*
X134114681Y-133025386D01*
X134308826Y-133105804D01*
X134514929Y-133146800D01*
X134607531Y-133146800D01*
X134620000Y-133148028D01*
X135611000Y-133148028D01*
X135611000Y-133551972D01*
X134620000Y-133551972D01*
X134607531Y-133553200D01*
X134514929Y-133553200D01*
X134308826Y-133594196D01*
X134114681Y-133674614D01*
X133939955Y-133791362D01*
X133791362Y-133939955D01*
X133674614Y-134114681D01*
X133602077Y-134289800D01*
X130743573Y-134289800D01*
X128792746Y-132338973D01*
X129311000Y-132338973D01*
X129311000Y-132453027D01*
X129333250Y-132564888D01*
X129376896Y-132670260D01*
X129440261Y-132765091D01*
X129520909Y-132845739D01*
X129615740Y-132909104D01*
X129721112Y-132952750D01*
X129832973Y-132975000D01*
X129947027Y-132975000D01*
X130058888Y-132952750D01*
X130164260Y-132909104D01*
X130259091Y-132845739D01*
X130339739Y-132765091D01*
X130403104Y-132670260D01*
X130446750Y-132564888D01*
X130464771Y-132474287D01*
X130485795Y-132637831D01*
X130539248Y-132796890D01*
X130622705Y-132942465D01*
X130732959Y-133068961D01*
X130865772Y-133171517D01*
X131016041Y-133246192D01*
X131161126Y-133286720D01*
X131294600Y-133212279D01*
X131294600Y-131921400D01*
X131345400Y-131921400D01*
X131345400Y-133212279D01*
X131478874Y-133286720D01*
X131623959Y-133246192D01*
X131774228Y-133171517D01*
X131907041Y-133068961D01*
X132017295Y-132942465D01*
X132100752Y-132796890D01*
X132154205Y-132637831D01*
X132175600Y-132471400D01*
X132175600Y-131921400D01*
X131345400Y-131921400D01*
X131294600Y-131921400D01*
X130464400Y-131921400D01*
X130464400Y-132315847D01*
X130446750Y-132227112D01*
X130403104Y-132121740D01*
X130339739Y-132026909D01*
X130259091Y-131946261D01*
X130164260Y-131882896D01*
X130058888Y-131839250D01*
X129947027Y-131817000D01*
X129832973Y-131817000D01*
X129721112Y-131839250D01*
X129615740Y-131882896D01*
X129520909Y-131946261D01*
X129440261Y-132026909D01*
X129376896Y-132121740D01*
X129333250Y-132227112D01*
X129311000Y-132338973D01*
X128792746Y-132338973D01*
X127990600Y-131536828D01*
X127990600Y-131320600D01*
X130464400Y-131320600D01*
X130464400Y-131870600D01*
X131294600Y-131870600D01*
X131294600Y-130579721D01*
X131345400Y-130579721D01*
X131345400Y-131870600D01*
X132175600Y-131870600D01*
X132175600Y-131320600D01*
X132154205Y-131154169D01*
X132100752Y-130995110D01*
X132017295Y-130849535D01*
X131907041Y-130723039D01*
X131774228Y-130620483D01*
X131623959Y-130545808D01*
X131478874Y-130505280D01*
X131345400Y-130579721D01*
X131294600Y-130579721D01*
X131161126Y-130505280D01*
X131016041Y-130545808D01*
X130865772Y-130620483D01*
X130732959Y-130723039D01*
X130622705Y-130849535D01*
X130539248Y-130995110D01*
X130485795Y-131154169D01*
X130464400Y-131320600D01*
X127990600Y-131320600D01*
X127990600Y-130436220D01*
X128054989Y-130371831D01*
X128110584Y-130288628D01*
X128148878Y-130196178D01*
X128168400Y-130098034D01*
X128168400Y-129997966D01*
X128148878Y-129899822D01*
X128110584Y-129807372D01*
X128054989Y-129724169D01*
X127984231Y-129653411D01*
X127901028Y-129597816D01*
X127808578Y-129559522D01*
X127710434Y-129540000D01*
X127610366Y-129540000D01*
X127512222Y-129559522D01*
X127419772Y-129597816D01*
X127336569Y-129653411D01*
X127265811Y-129724169D01*
X127210216Y-129807372D01*
X127171922Y-129899822D01*
X127152400Y-129997966D01*
X127152400Y-130098034D01*
X127171922Y-130196178D01*
X127210216Y-130288628D01*
X127265811Y-130371831D01*
X127330200Y-130436220D01*
X127330201Y-131657377D01*
X127328603Y-131673600D01*
X127334979Y-131738329D01*
X127353861Y-131800573D01*
X127384521Y-131857937D01*
X127394914Y-131870600D01*
X127425785Y-131908216D01*
X127438383Y-131918555D01*
X130361845Y-134842018D01*
X130372184Y-134854616D01*
X130422463Y-134895879D01*
X130479827Y-134926540D01*
X130542070Y-134945422D01*
X130590585Y-134950200D01*
X130590587Y-134950200D01*
X130606800Y-134951797D01*
X130623013Y-134950200D01*
X131107714Y-134950200D01*
X131016041Y-134975808D01*
X130865772Y-135050483D01*
X130732959Y-135153039D01*
X130622705Y-135279535D01*
X130539248Y-135425110D01*
X130485795Y-135584169D01*
X130464400Y-135750600D01*
X130464400Y-136050600D01*
X131294600Y-136050600D01*
X131294600Y-136030600D01*
X131345400Y-136030600D01*
X131345400Y-136050600D01*
X132175600Y-136050600D01*
X132175600Y-135750600D01*
X132154205Y-135584169D01*
X132100752Y-135425110D01*
X132017295Y-135279535D01*
X131907041Y-135153039D01*
X131774228Y-135050483D01*
X131623959Y-134975808D01*
X131532286Y-134950200D01*
X133602077Y-134950200D01*
X133674614Y-135125319D01*
X133791362Y-135300045D01*
X133939955Y-135448638D01*
X134114681Y-135565386D01*
X134308826Y-135645804D01*
X134514929Y-135686800D01*
X134607531Y-135686800D01*
X134620000Y-135688028D01*
X135611000Y-135688028D01*
X135611000Y-135876359D01*
X135590815Y-136082223D01*
X135534988Y-136267130D01*
X135444310Y-136437670D01*
X135322235Y-136587349D01*
X135173410Y-136710468D01*
X135003511Y-136802332D01*
X134819003Y-136859448D01*
X134613946Y-136881000D01*
X132009856Y-136881000D01*
X132017295Y-136872465D01*
X132100752Y-136726890D01*
X132154205Y-136567831D01*
X132175600Y-136401400D01*
X132175600Y-136101400D01*
X131345400Y-136101400D01*
X131345400Y-136121400D01*
X131294600Y-136121400D01*
X131294600Y-136101400D01*
X130464400Y-136101400D01*
X130464400Y-136401400D01*
X130485795Y-136567831D01*
X130539248Y-136726890D01*
X130622705Y-136872465D01*
X130630144Y-136881000D01*
X123369856Y-136881000D01*
X123377295Y-136872465D01*
X123460752Y-136726890D01*
X123514205Y-136567831D01*
X123535600Y-136401400D01*
X123535600Y-136101400D01*
X122705400Y-136101400D01*
X122705400Y-136121400D01*
X122654600Y-136121400D01*
X122654600Y-136101400D01*
X121824400Y-136101400D01*
X121824400Y-136401400D01*
X121845795Y-136567831D01*
X121899248Y-136726890D01*
X121982705Y-136872465D01*
X121990144Y-136881000D01*
X119393641Y-136881000D01*
X119187777Y-136860815D01*
X119002870Y-136804988D01*
X118832330Y-136714310D01*
X118682651Y-136592235D01*
X118559532Y-136443410D01*
X118467668Y-136273511D01*
X118410552Y-136089003D01*
X118389000Y-135883946D01*
X118389000Y-135688028D01*
X119380000Y-135688028D01*
X119392469Y-135686800D01*
X119485071Y-135686800D01*
X119691174Y-135645804D01*
X119885319Y-135565386D01*
X120060045Y-135448638D01*
X120208638Y-135300045D01*
X120323595Y-135128000D01*
X122125385Y-135128000D01*
X122092959Y-135153039D01*
X121982705Y-135279535D01*
X121899248Y-135425110D01*
X121845795Y-135584169D01*
X121824400Y-135750600D01*
X121824400Y-136050600D01*
X122654600Y-136050600D01*
X122654600Y-136030600D01*
X122705400Y-136030600D01*
X122705400Y-136050600D01*
X123535600Y-136050600D01*
X123535600Y-135750600D01*
X123514205Y-135584169D01*
X123460752Y-135425110D01*
X123377295Y-135279535D01*
X123267041Y-135153039D01*
X123234615Y-135128000D01*
X123952456Y-135128000D01*
X123977400Y-135130457D01*
X124002344Y-135128000D01*
X124002347Y-135128000D01*
X124076985Y-135120649D01*
X124172743Y-135091601D01*
X124260995Y-135044429D01*
X124338348Y-134980948D01*
X124354255Y-134961565D01*
X126350971Y-132964850D01*
X126370348Y-132948948D01*
X126416427Y-132892800D01*
X126433829Y-132871596D01*
X126481000Y-132783344D01*
X126481001Y-132783343D01*
X126510049Y-132687585D01*
X126517400Y-132612947D01*
X126517400Y-132612944D01*
X126519857Y-132588000D01*
X126517400Y-132563056D01*
X126517400Y-129534404D01*
X126519857Y-129509460D01*
X126515284Y-129463034D01*
X126510049Y-129409876D01*
X126481001Y-129314118D01*
X126433829Y-129225866D01*
X126407108Y-129193306D01*
X126440926Y-129211382D01*
X126516944Y-129234442D01*
X126596000Y-129242228D01*
X126896000Y-129242228D01*
X126975056Y-129234442D01*
X127051074Y-129211382D01*
X127121133Y-129173935D01*
X127182539Y-129123539D01*
X127232935Y-129062133D01*
X127270382Y-128992074D01*
X127293442Y-128916056D01*
X127301228Y-128837000D01*
X127301228Y-127819001D01*
X129371245Y-129889018D01*
G37*
G04 #@! TD.AperFunction*
D21*
X123650772Y-128837000D02*
X123658558Y-128916056D01*
X123681618Y-128992074D01*
X123719065Y-129062133D01*
X123769461Y-129123539D01*
X123830867Y-129173935D01*
X123900926Y-129211382D01*
X123976944Y-129234442D01*
X124056000Y-129242228D01*
X124234930Y-129242228D01*
X124195370Y-129281788D01*
X124139775Y-129364991D01*
X124101481Y-129457441D01*
X124081959Y-129555585D01*
X124081959Y-129655653D01*
X124101481Y-129753797D01*
X124139775Y-129846247D01*
X124195370Y-129929450D01*
X124266128Y-130000208D01*
X124349331Y-130055803D01*
X124441781Y-130094097D01*
X124539925Y-130113619D01*
X124630987Y-130113619D01*
X124978600Y-130461233D01*
X124978601Y-131945779D01*
X124914211Y-132010169D01*
X124858616Y-132093372D01*
X124820322Y-132185822D01*
X124800800Y-132283966D01*
X124800800Y-132384034D01*
X124820322Y-132482178D01*
X124858616Y-132574628D01*
X124914211Y-132657831D01*
X124984969Y-132728589D01*
X125068172Y-132784184D01*
X125086998Y-132791982D01*
X123766980Y-134112000D01*
X120323595Y-134112000D01*
X120208638Y-133939955D01*
X120060045Y-133791362D01*
X119885319Y-133674614D01*
X119691174Y-133594196D01*
X119485071Y-133553200D01*
X119392469Y-133553200D01*
X119380000Y-133551972D01*
X118389000Y-133551972D01*
X118389000Y-133248645D01*
X118554723Y-133248892D01*
X118567200Y-133250121D01*
X118873392Y-133249367D01*
X119380000Y-133250121D01*
X119397473Y-133248400D01*
X119405402Y-133248400D01*
X119405402Y-133247619D01*
X119449710Y-133243255D01*
X119479975Y-133234075D01*
X119494300Y-133248400D01*
X120192800Y-133250121D01*
X120262510Y-133243255D01*
X120329541Y-133222922D01*
X120391317Y-133189902D01*
X120445464Y-133145464D01*
X120489902Y-133091317D01*
X120522922Y-133029541D01*
X120543255Y-132962510D01*
X120550121Y-132892800D01*
X120548400Y-132194300D01*
X120459500Y-132105400D01*
X119334600Y-132105400D01*
X119334600Y-132054600D01*
X120459500Y-132054600D01*
X120548400Y-131965700D01*
X120548509Y-131921400D01*
X121824400Y-131921400D01*
X121824400Y-132471400D01*
X121845795Y-132637831D01*
X121899248Y-132796890D01*
X121982705Y-132942465D01*
X122092959Y-133068961D01*
X122225772Y-133171517D01*
X122376041Y-133246192D01*
X122521126Y-133286720D01*
X122654600Y-133212279D01*
X122654600Y-131921400D01*
X122705400Y-131921400D01*
X122705400Y-133212279D01*
X122838874Y-133286720D01*
X122983959Y-133246192D01*
X123134228Y-133171517D01*
X123267041Y-133068961D01*
X123377295Y-132942465D01*
X123460752Y-132796890D01*
X123514205Y-132637831D01*
X123535229Y-132474287D01*
X123553250Y-132564888D01*
X123596896Y-132670260D01*
X123660261Y-132765091D01*
X123740909Y-132845739D01*
X123835740Y-132909104D01*
X123941112Y-132952750D01*
X124052973Y-132975000D01*
X124167027Y-132975000D01*
X124278888Y-132952750D01*
X124384260Y-132909104D01*
X124479091Y-132845739D01*
X124559739Y-132765091D01*
X124623104Y-132670260D01*
X124666750Y-132564888D01*
X124689000Y-132453027D01*
X124689000Y-132338973D01*
X124666750Y-132227112D01*
X124623104Y-132121740D01*
X124559739Y-132026909D01*
X124479091Y-131946261D01*
X124384260Y-131882896D01*
X124278888Y-131839250D01*
X124167027Y-131817000D01*
X124052973Y-131817000D01*
X123941112Y-131839250D01*
X123835740Y-131882896D01*
X123740909Y-131946261D01*
X123660261Y-132026909D01*
X123596896Y-132121740D01*
X123553250Y-132227112D01*
X123535600Y-132315847D01*
X123535600Y-131921400D01*
X122705400Y-131921400D01*
X122654600Y-131921400D01*
X121824400Y-131921400D01*
X120548509Y-131921400D01*
X120549989Y-131320600D01*
X121824400Y-131320600D01*
X121824400Y-131870600D01*
X122654600Y-131870600D01*
X122654600Y-130579721D01*
X122705400Y-130579721D01*
X122705400Y-131870600D01*
X123535600Y-131870600D01*
X123535600Y-131320600D01*
X123514205Y-131154169D01*
X123460752Y-130995110D01*
X123377295Y-130849535D01*
X123267041Y-130723039D01*
X123134228Y-130620483D01*
X122983959Y-130545808D01*
X122838874Y-130505280D01*
X122705400Y-130579721D01*
X122654600Y-130579721D01*
X122521126Y-130505280D01*
X122376041Y-130545808D01*
X122225772Y-130620483D01*
X122092959Y-130723039D01*
X121982705Y-130849535D01*
X121899248Y-130995110D01*
X121845795Y-131154169D01*
X121824400Y-131320600D01*
X120549989Y-131320600D01*
X120550121Y-131267200D01*
X120543255Y-131197490D01*
X120522922Y-131130459D01*
X120489902Y-131068683D01*
X120445464Y-131014536D01*
X120391317Y-130970098D01*
X120329541Y-130937078D01*
X120262510Y-130916745D01*
X120192800Y-130909879D01*
X119494300Y-130911600D01*
X119479975Y-130925925D01*
X119449710Y-130916745D01*
X119405402Y-130912381D01*
X119405402Y-130911600D01*
X119397473Y-130911600D01*
X119380000Y-130909879D01*
X118873392Y-130910633D01*
X118567200Y-130909879D01*
X118554723Y-130911108D01*
X118389000Y-130911355D01*
X118389000Y-130608028D01*
X119380000Y-130608028D01*
X119392469Y-130606800D01*
X119485071Y-130606800D01*
X119691174Y-130565804D01*
X119885319Y-130485386D01*
X120060045Y-130368638D01*
X120208638Y-130220045D01*
X120323595Y-130048000D01*
X121666456Y-130048000D01*
X121691400Y-130050457D01*
X121716344Y-130048000D01*
X121716347Y-130048000D01*
X121790985Y-130040649D01*
X121886743Y-130011601D01*
X121974995Y-129964429D01*
X122052348Y-129900948D01*
X122068255Y-129881565D01*
X122714622Y-129235198D01*
X122786000Y-129242228D01*
X123086000Y-129242228D01*
X123165056Y-129234442D01*
X123241074Y-129211382D01*
X123311133Y-129173935D01*
X123372539Y-129123539D01*
X123422935Y-129062133D01*
X123460382Y-128992074D01*
X123483442Y-128916056D01*
X123491228Y-128837000D01*
X123491228Y-128695000D01*
X123650772Y-128695000D01*
X123650772Y-128837000D01*
G04 #@! TA.AperFunction,Conductor*
D22*
G36*
X123650772Y-128837000D02*
G01*
X123658558Y-128916056D01*
X123681618Y-128992074D01*
X123719065Y-129062133D01*
X123769461Y-129123539D01*
X123830867Y-129173935D01*
X123900926Y-129211382D01*
X123976944Y-129234442D01*
X124056000Y-129242228D01*
X124234930Y-129242228D01*
X124195370Y-129281788D01*
X124139775Y-129364991D01*
X124101481Y-129457441D01*
X124081959Y-129555585D01*
X124081959Y-129655653D01*
X124101481Y-129753797D01*
X124139775Y-129846247D01*
X124195370Y-129929450D01*
X124266128Y-130000208D01*
X124349331Y-130055803D01*
X124441781Y-130094097D01*
X124539925Y-130113619D01*
X124630987Y-130113619D01*
X124978600Y-130461233D01*
X124978601Y-131945779D01*
X124914211Y-132010169D01*
X124858616Y-132093372D01*
X124820322Y-132185822D01*
X124800800Y-132283966D01*
X124800800Y-132384034D01*
X124820322Y-132482178D01*
X124858616Y-132574628D01*
X124914211Y-132657831D01*
X124984969Y-132728589D01*
X125068172Y-132784184D01*
X125086998Y-132791982D01*
X123766980Y-134112000D01*
X120323595Y-134112000D01*
X120208638Y-133939955D01*
X120060045Y-133791362D01*
X119885319Y-133674614D01*
X119691174Y-133594196D01*
X119485071Y-133553200D01*
X119392469Y-133553200D01*
X119380000Y-133551972D01*
X118389000Y-133551972D01*
X118389000Y-133248645D01*
X118554723Y-133248892D01*
X118567200Y-133250121D01*
X118873392Y-133249367D01*
X119380000Y-133250121D01*
X119397473Y-133248400D01*
X119405402Y-133248400D01*
X119405402Y-133247619D01*
X119449710Y-133243255D01*
X119479975Y-133234075D01*
X119494300Y-133248400D01*
X120192800Y-133250121D01*
X120262510Y-133243255D01*
X120329541Y-133222922D01*
X120391317Y-133189902D01*
X120445464Y-133145464D01*
X120489902Y-133091317D01*
X120522922Y-133029541D01*
X120543255Y-132962510D01*
X120550121Y-132892800D01*
X120548400Y-132194300D01*
X120459500Y-132105400D01*
X119334600Y-132105400D01*
X119334600Y-132054600D01*
X120459500Y-132054600D01*
X120548400Y-131965700D01*
X120548509Y-131921400D01*
X121824400Y-131921400D01*
X121824400Y-132471400D01*
X121845795Y-132637831D01*
X121899248Y-132796890D01*
X121982705Y-132942465D01*
X122092959Y-133068961D01*
X122225772Y-133171517D01*
X122376041Y-133246192D01*
X122521126Y-133286720D01*
X122654600Y-133212279D01*
X122654600Y-131921400D01*
X122705400Y-131921400D01*
X122705400Y-133212279D01*
X122838874Y-133286720D01*
X122983959Y-133246192D01*
X123134228Y-133171517D01*
X123267041Y-133068961D01*
X123377295Y-132942465D01*
X123460752Y-132796890D01*
X123514205Y-132637831D01*
X123535229Y-132474287D01*
X123553250Y-132564888D01*
X123596896Y-132670260D01*
X123660261Y-132765091D01*
X123740909Y-132845739D01*
X123835740Y-132909104D01*
X123941112Y-132952750D01*
X124052973Y-132975000D01*
X124167027Y-132975000D01*
X124278888Y-132952750D01*
X124384260Y-132909104D01*
X124479091Y-132845739D01*
X124559739Y-132765091D01*
X124623104Y-132670260D01*
X124666750Y-132564888D01*
X124689000Y-132453027D01*
X124689000Y-132338973D01*
X124666750Y-132227112D01*
X124623104Y-132121740D01*
X124559739Y-132026909D01*
X124479091Y-131946261D01*
X124384260Y-131882896D01*
X124278888Y-131839250D01*
X124167027Y-131817000D01*
X124052973Y-131817000D01*
X123941112Y-131839250D01*
X123835740Y-131882896D01*
X123740909Y-131946261D01*
X123660261Y-132026909D01*
X123596896Y-132121740D01*
X123553250Y-132227112D01*
X123535600Y-132315847D01*
X123535600Y-131921400D01*
X122705400Y-131921400D01*
X122654600Y-131921400D01*
X121824400Y-131921400D01*
X120548509Y-131921400D01*
X120549989Y-131320600D01*
X121824400Y-131320600D01*
X121824400Y-131870600D01*
X122654600Y-131870600D01*
X122654600Y-130579721D01*
X122705400Y-130579721D01*
X122705400Y-131870600D01*
X123535600Y-131870600D01*
X123535600Y-131320600D01*
X123514205Y-131154169D01*
X123460752Y-130995110D01*
X123377295Y-130849535D01*
X123267041Y-130723039D01*
X123134228Y-130620483D01*
X122983959Y-130545808D01*
X122838874Y-130505280D01*
X122705400Y-130579721D01*
X122654600Y-130579721D01*
X122521126Y-130505280D01*
X122376041Y-130545808D01*
X122225772Y-130620483D01*
X122092959Y-130723039D01*
X121982705Y-130849535D01*
X121899248Y-130995110D01*
X121845795Y-131154169D01*
X121824400Y-131320600D01*
X120549989Y-131320600D01*
X120550121Y-131267200D01*
X120543255Y-131197490D01*
X120522922Y-131130459D01*
X120489902Y-131068683D01*
X120445464Y-131014536D01*
X120391317Y-130970098D01*
X120329541Y-130937078D01*
X120262510Y-130916745D01*
X120192800Y-130909879D01*
X119494300Y-130911600D01*
X119479975Y-130925925D01*
X119449710Y-130916745D01*
X119405402Y-130912381D01*
X119405402Y-130911600D01*
X119397473Y-130911600D01*
X119380000Y-130909879D01*
X118873392Y-130910633D01*
X118567200Y-130909879D01*
X118554723Y-130911108D01*
X118389000Y-130911355D01*
X118389000Y-130608028D01*
X119380000Y-130608028D01*
X119392469Y-130606800D01*
X119485071Y-130606800D01*
X119691174Y-130565804D01*
X119885319Y-130485386D01*
X120060045Y-130368638D01*
X120208638Y-130220045D01*
X120323595Y-130048000D01*
X121666456Y-130048000D01*
X121691400Y-130050457D01*
X121716344Y-130048000D01*
X121716347Y-130048000D01*
X121790985Y-130040649D01*
X121886743Y-130011601D01*
X121974995Y-129964429D01*
X122052348Y-129900948D01*
X122068255Y-129881565D01*
X122714622Y-129235198D01*
X122786000Y-129242228D01*
X123086000Y-129242228D01*
X123165056Y-129234442D01*
X123241074Y-129211382D01*
X123311133Y-129173935D01*
X123372539Y-129123539D01*
X123422935Y-129062133D01*
X123460382Y-128992074D01*
X123483442Y-128916056D01*
X123491228Y-128837000D01*
X123491228Y-128695000D01*
X123650772Y-128695000D01*
X123650772Y-128837000D01*
G37*
G04 #@! TD.AperFunction*
D21*
X131622800Y-126694113D02*
X131565338Y-126585164D01*
X131560713Y-126578243D01*
X131424154Y-126548767D01*
X130972921Y-127000000D01*
X131424154Y-127451233D01*
X131560713Y-127421757D01*
X131631009Y-127291974D01*
X131674635Y-127150969D01*
X131689915Y-127004162D01*
X131687031Y-126973122D01*
X131688069Y-126974387D01*
X131718384Y-127011326D01*
X131730987Y-127021669D01*
X133702405Y-128993088D01*
X133674614Y-129034681D01*
X133594196Y-129228826D01*
X133553200Y-129434929D01*
X133553200Y-129645071D01*
X133594196Y-129851174D01*
X133674614Y-130045319D01*
X133791362Y-130220045D01*
X133939955Y-130368638D01*
X134114681Y-130485386D01*
X134308826Y-130565804D01*
X134514929Y-130606800D01*
X134607531Y-130606800D01*
X134620000Y-130608028D01*
X135611000Y-130608028D01*
X135611000Y-131011972D01*
X134620000Y-131011972D01*
X134607531Y-131013200D01*
X134514929Y-131013200D01*
X134308826Y-131054196D01*
X134133707Y-131126733D01*
X132451959Y-129444987D01*
X132441616Y-129432384D01*
X132391337Y-129391121D01*
X132333973Y-129360460D01*
X132271730Y-129341578D01*
X132223215Y-129336800D01*
X132223213Y-129336800D01*
X132207000Y-129335203D01*
X132190787Y-129336800D01*
X129752973Y-129336800D01*
X129422918Y-129006745D01*
X129504563Y-128990505D01*
X129640927Y-128934021D01*
X129763651Y-128852020D01*
X129868020Y-128747651D01*
X129950021Y-128624927D01*
X130006505Y-128488563D01*
X130035300Y-128343800D01*
X130035300Y-128196200D01*
X130006505Y-128051437D01*
X129950021Y-127915073D01*
X129868020Y-127792349D01*
X129763651Y-127687980D01*
X129703367Y-127647700D01*
X129730793Y-127647700D01*
X129855927Y-127622809D01*
X129973801Y-127573984D01*
X130079885Y-127503101D01*
X130095832Y-127487154D01*
X130485767Y-127487154D01*
X130515243Y-127623713D01*
X130645026Y-127694009D01*
X130786031Y-127737635D01*
X130790254Y-127738075D01*
X130735980Y-127792349D01*
X130653979Y-127915073D01*
X130597495Y-128051437D01*
X130568700Y-128196200D01*
X130568700Y-128343800D01*
X130597495Y-128488563D01*
X130653979Y-128624927D01*
X130735980Y-128747651D01*
X130840349Y-128852020D01*
X130963073Y-128934021D01*
X131099437Y-128990505D01*
X131244200Y-129019300D01*
X131391800Y-129019300D01*
X131536563Y-128990505D01*
X131672927Y-128934021D01*
X131795651Y-128852020D01*
X131900020Y-128747651D01*
X131982021Y-128624927D01*
X132038505Y-128488563D01*
X132067300Y-128343800D01*
X132067300Y-128196200D01*
X132038505Y-128051437D01*
X131982021Y-127915073D01*
X131900020Y-127792349D01*
X131795651Y-127687980D01*
X131672927Y-127605979D01*
X131536563Y-127549495D01*
X131391800Y-127520700D01*
X131380992Y-127520700D01*
X131388233Y-127487154D01*
X130937000Y-127035921D01*
X130485767Y-127487154D01*
X130095832Y-127487154D01*
X130170101Y-127412885D01*
X130240984Y-127306801D01*
X130245690Y-127295440D01*
X130308662Y-127414836D01*
X130313287Y-127421757D01*
X130449846Y-127451233D01*
X130901079Y-127000000D01*
X130449846Y-126548767D01*
X130313287Y-126578243D01*
X130245334Y-126703701D01*
X130240984Y-126693199D01*
X130170101Y-126587115D01*
X130079885Y-126496899D01*
X129973801Y-126426016D01*
X129855927Y-126377191D01*
X129794639Y-126365000D01*
X129855927Y-126352809D01*
X129973801Y-126303984D01*
X130079885Y-126233101D01*
X130170101Y-126142885D01*
X130240984Y-126036801D01*
X130289809Y-125918927D01*
X130302000Y-125857639D01*
X130314191Y-125918927D01*
X130363016Y-126036801D01*
X130433899Y-126142885D01*
X130524115Y-126233101D01*
X130630199Y-126303984D01*
X130641560Y-126308690D01*
X130522164Y-126371662D01*
X130515243Y-126376287D01*
X130485767Y-126512846D01*
X130937000Y-126964079D01*
X131388233Y-126512846D01*
X131358757Y-126376287D01*
X131233299Y-126308334D01*
X131243801Y-126303984D01*
X131349885Y-126233101D01*
X131440101Y-126142885D01*
X131510984Y-126036801D01*
X131559809Y-125918927D01*
X131584700Y-125793793D01*
X131584700Y-125666207D01*
X131565299Y-125568673D01*
X131622800Y-125511172D01*
X131622800Y-126694113D01*
G04 #@! TA.AperFunction,Conductor*
D22*
G36*
X131622800Y-126694113D02*
G01*
X131565338Y-126585164D01*
X131560713Y-126578243D01*
X131424154Y-126548767D01*
X130972921Y-127000000D01*
X131424154Y-127451233D01*
X131560713Y-127421757D01*
X131631009Y-127291974D01*
X131674635Y-127150969D01*
X131689915Y-127004162D01*
X131687031Y-126973122D01*
X131688069Y-126974387D01*
X131718384Y-127011326D01*
X131730987Y-127021669D01*
X133702405Y-128993088D01*
X133674614Y-129034681D01*
X133594196Y-129228826D01*
X133553200Y-129434929D01*
X133553200Y-129645071D01*
X133594196Y-129851174D01*
X133674614Y-130045319D01*
X133791362Y-130220045D01*
X133939955Y-130368638D01*
X134114681Y-130485386D01*
X134308826Y-130565804D01*
X134514929Y-130606800D01*
X134607531Y-130606800D01*
X134620000Y-130608028D01*
X135611000Y-130608028D01*
X135611000Y-131011972D01*
X134620000Y-131011972D01*
X134607531Y-131013200D01*
X134514929Y-131013200D01*
X134308826Y-131054196D01*
X134133707Y-131126733D01*
X132451959Y-129444987D01*
X132441616Y-129432384D01*
X132391337Y-129391121D01*
X132333973Y-129360460D01*
X132271730Y-129341578D01*
X132223215Y-129336800D01*
X132223213Y-129336800D01*
X132207000Y-129335203D01*
X132190787Y-129336800D01*
X129752973Y-129336800D01*
X129422918Y-129006745D01*
X129504563Y-128990505D01*
X129640927Y-128934021D01*
X129763651Y-128852020D01*
X129868020Y-128747651D01*
X129950021Y-128624927D01*
X130006505Y-128488563D01*
X130035300Y-128343800D01*
X130035300Y-128196200D01*
X130006505Y-128051437D01*
X129950021Y-127915073D01*
X129868020Y-127792349D01*
X129763651Y-127687980D01*
X129703367Y-127647700D01*
X129730793Y-127647700D01*
X129855927Y-127622809D01*
X129973801Y-127573984D01*
X130079885Y-127503101D01*
X130095832Y-127487154D01*
X130485767Y-127487154D01*
X130515243Y-127623713D01*
X130645026Y-127694009D01*
X130786031Y-127737635D01*
X130790254Y-127738075D01*
X130735980Y-127792349D01*
X130653979Y-127915073D01*
X130597495Y-128051437D01*
X130568700Y-128196200D01*
X130568700Y-128343800D01*
X130597495Y-128488563D01*
X130653979Y-128624927D01*
X130735980Y-128747651D01*
X130840349Y-128852020D01*
X130963073Y-128934021D01*
X131099437Y-128990505D01*
X131244200Y-129019300D01*
X131391800Y-129019300D01*
X131536563Y-128990505D01*
X131672927Y-128934021D01*
X131795651Y-128852020D01*
X131900020Y-128747651D01*
X131982021Y-128624927D01*
X132038505Y-128488563D01*
X132067300Y-128343800D01*
X132067300Y-128196200D01*
X132038505Y-128051437D01*
X131982021Y-127915073D01*
X131900020Y-127792349D01*
X131795651Y-127687980D01*
X131672927Y-127605979D01*
X131536563Y-127549495D01*
X131391800Y-127520700D01*
X131380992Y-127520700D01*
X131388233Y-127487154D01*
X130937000Y-127035921D01*
X130485767Y-127487154D01*
X130095832Y-127487154D01*
X130170101Y-127412885D01*
X130240984Y-127306801D01*
X130245690Y-127295440D01*
X130308662Y-127414836D01*
X130313287Y-127421757D01*
X130449846Y-127451233D01*
X130901079Y-127000000D01*
X130449846Y-126548767D01*
X130313287Y-126578243D01*
X130245334Y-126703701D01*
X130240984Y-126693199D01*
X130170101Y-126587115D01*
X130079885Y-126496899D01*
X129973801Y-126426016D01*
X129855927Y-126377191D01*
X129794639Y-126365000D01*
X129855927Y-126352809D01*
X129973801Y-126303984D01*
X130079885Y-126233101D01*
X130170101Y-126142885D01*
X130240984Y-126036801D01*
X130289809Y-125918927D01*
X130302000Y-125857639D01*
X130314191Y-125918927D01*
X130363016Y-126036801D01*
X130433899Y-126142885D01*
X130524115Y-126233101D01*
X130630199Y-126303984D01*
X130641560Y-126308690D01*
X130522164Y-126371662D01*
X130515243Y-126376287D01*
X130485767Y-126512846D01*
X130937000Y-126964079D01*
X131388233Y-126512846D01*
X131358757Y-126376287D01*
X131233299Y-126308334D01*
X131243801Y-126303984D01*
X131349885Y-126233101D01*
X131440101Y-126142885D01*
X131510984Y-126036801D01*
X131559809Y-125918927D01*
X131584700Y-125793793D01*
X131584700Y-125666207D01*
X131565299Y-125568673D01*
X131622800Y-125511172D01*
X131622800Y-126694113D01*
G37*
G04 #@! TD.AperFunction*
D21*
X133666733Y-118893706D02*
X133594196Y-119068826D01*
X133553200Y-119274929D01*
X133553200Y-119485071D01*
X133594196Y-119691174D01*
X133674614Y-119885319D01*
X133791362Y-120060045D01*
X133939955Y-120208638D01*
X134114681Y-120325386D01*
X134308826Y-120405804D01*
X134514929Y-120446800D01*
X134607531Y-120446800D01*
X134620000Y-120448028D01*
X135611001Y-120448028D01*
X135611001Y-120851972D01*
X134620000Y-120851972D01*
X134607531Y-120853200D01*
X134514929Y-120853200D01*
X134308826Y-120894196D01*
X134133707Y-120966733D01*
X132070967Y-118903995D01*
X132060624Y-118891392D01*
X132010345Y-118850129D01*
X131952981Y-118819468D01*
X131890738Y-118800586D01*
X131842223Y-118795808D01*
X131842221Y-118795808D01*
X131826008Y-118794211D01*
X131809795Y-118795808D01*
X128912220Y-118795808D01*
X128847831Y-118731419D01*
X128764628Y-118675824D01*
X128672178Y-118637530D01*
X128574034Y-118618008D01*
X128473966Y-118618008D01*
X128375822Y-118637530D01*
X128283372Y-118675824D01*
X128200169Y-118731419D01*
X128129411Y-118802177D01*
X128073816Y-118885380D01*
X128035522Y-118977830D01*
X128016000Y-119075974D01*
X128016000Y-119126000D01*
X127965960Y-119126000D01*
X127867816Y-119145522D01*
X127775366Y-119183816D01*
X127692163Y-119239411D01*
X127621405Y-119310169D01*
X127565810Y-119393372D01*
X127554762Y-119420045D01*
X126787759Y-118653043D01*
X126777416Y-118640440D01*
X126727137Y-118599177D01*
X126669773Y-118568516D01*
X126607530Y-118549634D01*
X126559015Y-118544856D01*
X126559013Y-118544856D01*
X126542800Y-118543259D01*
X126526587Y-118544856D01*
X122745959Y-118544856D01*
X122729744Y-118543259D01*
X122713529Y-118544856D01*
X122665014Y-118549634D01*
X122602771Y-118568516D01*
X122545407Y-118599177D01*
X122495128Y-118640440D01*
X122484789Y-118653038D01*
X121570983Y-119566845D01*
X121558380Y-119577188D01*
X121530420Y-119611258D01*
X121517117Y-119627467D01*
X121513621Y-119634008D01*
X121486456Y-119684832D01*
X121467574Y-119747075D01*
X121464117Y-119782178D01*
X121461199Y-119811804D01*
X121462796Y-119828017D01*
X121462796Y-120134780D01*
X121398407Y-120199169D01*
X121342812Y-120282372D01*
X121304518Y-120374822D01*
X121284996Y-120472966D01*
X121284996Y-120573034D01*
X121304518Y-120671178D01*
X121342812Y-120763628D01*
X121398407Y-120846831D01*
X121469165Y-120917589D01*
X121552368Y-120973184D01*
X121557548Y-120975330D01*
X121494569Y-121017411D01*
X121423811Y-121088169D01*
X121368216Y-121171372D01*
X121329922Y-121263822D01*
X121310400Y-121361966D01*
X121310400Y-121462034D01*
X121329922Y-121560178D01*
X121368216Y-121652628D01*
X121423811Y-121735831D01*
X121494569Y-121806589D01*
X121577772Y-121862184D01*
X121640014Y-121887965D01*
X121045030Y-122482950D01*
X121025653Y-122498852D01*
X121009751Y-122518229D01*
X121009750Y-122518230D01*
X120962171Y-122576205D01*
X120931463Y-122633657D01*
X120915000Y-122664457D01*
X120892043Y-122740138D01*
X120885952Y-122760216D01*
X120876143Y-122859800D01*
X120878601Y-122884754D01*
X120878600Y-126086056D01*
X120876143Y-126111000D01*
X120878600Y-126135944D01*
X120878600Y-126135946D01*
X120885951Y-126210584D01*
X120914999Y-126306342D01*
X120962171Y-126394595D01*
X121025652Y-126471948D01*
X121045035Y-126487855D01*
X122380772Y-127823593D01*
X122380772Y-128132207D01*
X121480980Y-129032000D01*
X120573034Y-129032000D01*
X120671178Y-129012478D01*
X120763628Y-128974184D01*
X120846831Y-128918589D01*
X120917589Y-128847831D01*
X120973184Y-128764628D01*
X121011478Y-128672178D01*
X121031000Y-128574034D01*
X121031000Y-128473966D01*
X121011478Y-128375822D01*
X120973184Y-128283372D01*
X120917589Y-128200169D01*
X120853200Y-128135780D01*
X120853200Y-119262772D01*
X122285373Y-117830600D01*
X132603628Y-117830600D01*
X133666733Y-118893706D01*
G04 #@! TA.AperFunction,Conductor*
D22*
G36*
X133666733Y-118893706D02*
G01*
X133594196Y-119068826D01*
X133553200Y-119274929D01*
X133553200Y-119485071D01*
X133594196Y-119691174D01*
X133674614Y-119885319D01*
X133791362Y-120060045D01*
X133939955Y-120208638D01*
X134114681Y-120325386D01*
X134308826Y-120405804D01*
X134514929Y-120446800D01*
X134607531Y-120446800D01*
X134620000Y-120448028D01*
X135611001Y-120448028D01*
X135611001Y-120851972D01*
X134620000Y-120851972D01*
X134607531Y-120853200D01*
X134514929Y-120853200D01*
X134308826Y-120894196D01*
X134133707Y-120966733D01*
X132070967Y-118903995D01*
X132060624Y-118891392D01*
X132010345Y-118850129D01*
X131952981Y-118819468D01*
X131890738Y-118800586D01*
X131842223Y-118795808D01*
X131842221Y-118795808D01*
X131826008Y-118794211D01*
X131809795Y-118795808D01*
X128912220Y-118795808D01*
X128847831Y-118731419D01*
X128764628Y-118675824D01*
X128672178Y-118637530D01*
X128574034Y-118618008D01*
X128473966Y-118618008D01*
X128375822Y-118637530D01*
X128283372Y-118675824D01*
X128200169Y-118731419D01*
X128129411Y-118802177D01*
X128073816Y-118885380D01*
X128035522Y-118977830D01*
X128016000Y-119075974D01*
X128016000Y-119126000D01*
X127965960Y-119126000D01*
X127867816Y-119145522D01*
X127775366Y-119183816D01*
X127692163Y-119239411D01*
X127621405Y-119310169D01*
X127565810Y-119393372D01*
X127554762Y-119420045D01*
X126787759Y-118653043D01*
X126777416Y-118640440D01*
X126727137Y-118599177D01*
X126669773Y-118568516D01*
X126607530Y-118549634D01*
X126559015Y-118544856D01*
X126559013Y-118544856D01*
X126542800Y-118543259D01*
X126526587Y-118544856D01*
X122745959Y-118544856D01*
X122729744Y-118543259D01*
X122713529Y-118544856D01*
X122665014Y-118549634D01*
X122602771Y-118568516D01*
X122545407Y-118599177D01*
X122495128Y-118640440D01*
X122484789Y-118653038D01*
X121570983Y-119566845D01*
X121558380Y-119577188D01*
X121530420Y-119611258D01*
X121517117Y-119627467D01*
X121513621Y-119634008D01*
X121486456Y-119684832D01*
X121467574Y-119747075D01*
X121464117Y-119782178D01*
X121461199Y-119811804D01*
X121462796Y-119828017D01*
X121462796Y-120134780D01*
X121398407Y-120199169D01*
X121342812Y-120282372D01*
X121304518Y-120374822D01*
X121284996Y-120472966D01*
X121284996Y-120573034D01*
X121304518Y-120671178D01*
X121342812Y-120763628D01*
X121398407Y-120846831D01*
X121469165Y-120917589D01*
X121552368Y-120973184D01*
X121557548Y-120975330D01*
X121494569Y-121017411D01*
X121423811Y-121088169D01*
X121368216Y-121171372D01*
X121329922Y-121263822D01*
X121310400Y-121361966D01*
X121310400Y-121462034D01*
X121329922Y-121560178D01*
X121368216Y-121652628D01*
X121423811Y-121735831D01*
X121494569Y-121806589D01*
X121577772Y-121862184D01*
X121640014Y-121887965D01*
X121045030Y-122482950D01*
X121025653Y-122498852D01*
X121009751Y-122518229D01*
X121009750Y-122518230D01*
X120962171Y-122576205D01*
X120931463Y-122633657D01*
X120915000Y-122664457D01*
X120892043Y-122740138D01*
X120885952Y-122760216D01*
X120876143Y-122859800D01*
X120878601Y-122884754D01*
X120878600Y-126086056D01*
X120876143Y-126111000D01*
X120878600Y-126135944D01*
X120878600Y-126135946D01*
X120885951Y-126210584D01*
X120914999Y-126306342D01*
X120962171Y-126394595D01*
X121025652Y-126471948D01*
X121045035Y-126487855D01*
X122380772Y-127823593D01*
X122380772Y-128132207D01*
X121480980Y-129032000D01*
X120573034Y-129032000D01*
X120671178Y-129012478D01*
X120763628Y-128974184D01*
X120846831Y-128918589D01*
X120917589Y-128847831D01*
X120973184Y-128764628D01*
X121011478Y-128672178D01*
X121031000Y-128574034D01*
X121031000Y-128473966D01*
X121011478Y-128375822D01*
X120973184Y-128283372D01*
X120917589Y-128200169D01*
X120853200Y-128135780D01*
X120853200Y-119262772D01*
X122285373Y-117830600D01*
X132603628Y-117830600D01*
X133666733Y-118893706D01*
G37*
G04 #@! TD.AperFunction*
D21*
X124975351Y-122762186D02*
X125004399Y-122857944D01*
X125051571Y-122946197D01*
X125115052Y-123023550D01*
X125134435Y-123039457D01*
X126109143Y-124014165D01*
X126125050Y-124033548D01*
X126202403Y-124097029D01*
X126290655Y-124144201D01*
X126386413Y-124173249D01*
X126461051Y-124180600D01*
X126461054Y-124180600D01*
X126485998Y-124183057D01*
X126510942Y-124180600D01*
X129081666Y-124180600D01*
X129044191Y-124271073D01*
X129019300Y-124396207D01*
X129019300Y-124523793D01*
X129044191Y-124648927D01*
X129052904Y-124669963D01*
X128520035Y-125202833D01*
X128504478Y-125124622D01*
X128466184Y-125032172D01*
X128410589Y-124948969D01*
X128339831Y-124878211D01*
X128256628Y-124822616D01*
X128164178Y-124784322D01*
X128066034Y-124764800D01*
X127965966Y-124764800D01*
X127867822Y-124784322D01*
X127775372Y-124822616D01*
X127692169Y-124878211D01*
X127621411Y-124948969D01*
X127565816Y-125032172D01*
X127527522Y-125124622D01*
X127508000Y-125222766D01*
X127508000Y-125315804D01*
X127502429Y-125322593D01*
X127486122Y-125342462D01*
X127477972Y-125357711D01*
X127455461Y-125399827D01*
X127436579Y-125462070D01*
X127431801Y-125510584D01*
X127430204Y-125526799D01*
X127431801Y-125543012D01*
X127431802Y-127015629D01*
X124421200Y-124005028D01*
X124421200Y-123312222D01*
X124485589Y-123247833D01*
X124541184Y-123164630D01*
X124579478Y-123072180D01*
X124599000Y-122974036D01*
X124599000Y-122873968D01*
X124579478Y-122775824D01*
X124561657Y-122732801D01*
X124972457Y-122732801D01*
X124975351Y-122762186D01*
G04 #@! TA.AperFunction,Conductor*
D22*
G36*
X124975351Y-122762186D02*
G01*
X125004399Y-122857944D01*
X125051571Y-122946197D01*
X125115052Y-123023550D01*
X125134435Y-123039457D01*
X126109143Y-124014165D01*
X126125050Y-124033548D01*
X126202403Y-124097029D01*
X126290655Y-124144201D01*
X126386413Y-124173249D01*
X126461051Y-124180600D01*
X126461054Y-124180600D01*
X126485998Y-124183057D01*
X126510942Y-124180600D01*
X129081666Y-124180600D01*
X129044191Y-124271073D01*
X129019300Y-124396207D01*
X129019300Y-124523793D01*
X129044191Y-124648927D01*
X129052904Y-124669963D01*
X128520035Y-125202833D01*
X128504478Y-125124622D01*
X128466184Y-125032172D01*
X128410589Y-124948969D01*
X128339831Y-124878211D01*
X128256628Y-124822616D01*
X128164178Y-124784322D01*
X128066034Y-124764800D01*
X127965966Y-124764800D01*
X127867822Y-124784322D01*
X127775372Y-124822616D01*
X127692169Y-124878211D01*
X127621411Y-124948969D01*
X127565816Y-125032172D01*
X127527522Y-125124622D01*
X127508000Y-125222766D01*
X127508000Y-125315804D01*
X127502429Y-125322593D01*
X127486122Y-125342462D01*
X127477972Y-125357711D01*
X127455461Y-125399827D01*
X127436579Y-125462070D01*
X127431801Y-125510584D01*
X127430204Y-125526799D01*
X127431801Y-125543012D01*
X127431802Y-127015629D01*
X124421200Y-124005028D01*
X124421200Y-123312222D01*
X124485589Y-123247833D01*
X124541184Y-123164630D01*
X124579478Y-123072180D01*
X124599000Y-122974036D01*
X124599000Y-122873968D01*
X124579478Y-122775824D01*
X124561657Y-122732801D01*
X124972457Y-122732801D01*
X124975351Y-122762186D01*
G37*
G04 #@! TD.AperFunction*
D21*
X126309259Y-119856878D02*
X126247483Y-119889898D01*
X126193336Y-119934336D01*
X126148898Y-119988483D01*
X126115878Y-120050259D01*
X126095545Y-120117290D01*
X126088679Y-120187000D01*
X126090400Y-120872700D01*
X126179300Y-120961600D01*
X126720600Y-120961600D01*
X126720600Y-120941600D01*
X126771400Y-120941600D01*
X126771400Y-120961600D01*
X127312700Y-120961600D01*
X127401600Y-120872700D01*
X127402203Y-120632497D01*
X127781652Y-121011946D01*
X127715422Y-121025120D01*
X127622972Y-121063414D01*
X127539769Y-121119009D01*
X127469011Y-121189767D01*
X127413416Y-121272970D01*
X127402099Y-121300291D01*
X127401600Y-121101300D01*
X127312700Y-121012400D01*
X126771400Y-121012400D01*
X126771400Y-122053700D01*
X126860300Y-122142600D01*
X127046000Y-122144321D01*
X127115710Y-122137455D01*
X127182741Y-122117122D01*
X127244517Y-122084102D01*
X127298664Y-122039664D01*
X127343102Y-121985517D01*
X127376122Y-121923741D01*
X127396455Y-121856710D01*
X127403321Y-121787000D01*
X127403177Y-121729506D01*
X127413416Y-121754226D01*
X127469011Y-121837429D01*
X127539769Y-121908187D01*
X127622972Y-121963782D01*
X127715422Y-122002076D01*
X127813566Y-122021598D01*
X127904628Y-122021598D01*
X128406047Y-122523018D01*
X128416386Y-122535616D01*
X128453862Y-122566372D01*
X128466665Y-122576879D01*
X128524029Y-122607540D01*
X128586272Y-122626422D01*
X128651002Y-122632797D01*
X128667217Y-122631200D01*
X129177180Y-122631200D01*
X129241569Y-122695589D01*
X129324772Y-122751184D01*
X129417222Y-122789478D01*
X129515366Y-122809000D01*
X129615434Y-122809000D01*
X129661526Y-122799832D01*
X129637979Y-122835073D01*
X129581495Y-122971437D01*
X129552700Y-123116200D01*
X129552700Y-123199530D01*
X129533556Y-123193722D01*
X129510378Y-123184122D01*
X129485774Y-123179228D01*
X129461785Y-123171951D01*
X129436838Y-123169494D01*
X129412234Y-123164600D01*
X126696418Y-123164600D01*
X125984000Y-122452182D01*
X125984000Y-122148144D01*
X125986457Y-122123200D01*
X125984000Y-122098253D01*
X125984000Y-121822723D01*
X126000382Y-121792074D01*
X126001921Y-121787000D01*
X126088679Y-121787000D01*
X126095545Y-121856710D01*
X126115878Y-121923741D01*
X126148898Y-121985517D01*
X126193336Y-122039664D01*
X126247483Y-122084102D01*
X126309259Y-122117122D01*
X126376290Y-122137455D01*
X126446000Y-122144321D01*
X126631700Y-122142600D01*
X126720600Y-122053700D01*
X126720600Y-121012400D01*
X126179300Y-121012400D01*
X126090400Y-121101300D01*
X126088679Y-121787000D01*
X126001921Y-121787000D01*
X126023442Y-121716056D01*
X126031228Y-121637000D01*
X126031228Y-120337000D01*
X126023442Y-120257944D01*
X126000382Y-120181926D01*
X125962935Y-120111867D01*
X125912539Y-120050461D01*
X125851133Y-120000065D01*
X125781074Y-119962618D01*
X125705056Y-119939558D01*
X125626000Y-119931772D01*
X125326000Y-119931772D01*
X125246944Y-119939558D01*
X125170926Y-119962618D01*
X125100867Y-120000065D01*
X125039461Y-120050461D01*
X124989065Y-120111867D01*
X124951618Y-120181926D01*
X124928558Y-120257944D01*
X124920772Y-120337000D01*
X124920772Y-121637000D01*
X124928558Y-121716056D01*
X124928784Y-121716801D01*
X124753216Y-121716801D01*
X124753442Y-121716056D01*
X124761228Y-121637000D01*
X124761228Y-120337000D01*
X124753442Y-120257944D01*
X124730382Y-120181926D01*
X124692935Y-120111867D01*
X124642539Y-120050461D01*
X124581133Y-120000065D01*
X124511074Y-119962618D01*
X124435056Y-119939558D01*
X124356000Y-119931772D01*
X124072397Y-119931772D01*
X124059478Y-119866822D01*
X124047209Y-119837201D01*
X126374127Y-119837201D01*
X126309259Y-119856878D01*
G04 #@! TA.AperFunction,Conductor*
D22*
G36*
X126309259Y-119856878D02*
G01*
X126247483Y-119889898D01*
X126193336Y-119934336D01*
X126148898Y-119988483D01*
X126115878Y-120050259D01*
X126095545Y-120117290D01*
X126088679Y-120187000D01*
X126090400Y-120872700D01*
X126179300Y-120961600D01*
X126720600Y-120961600D01*
X126720600Y-120941600D01*
X126771400Y-120941600D01*
X126771400Y-120961600D01*
X127312700Y-120961600D01*
X127401600Y-120872700D01*
X127402203Y-120632497D01*
X127781652Y-121011946D01*
X127715422Y-121025120D01*
X127622972Y-121063414D01*
X127539769Y-121119009D01*
X127469011Y-121189767D01*
X127413416Y-121272970D01*
X127402099Y-121300291D01*
X127401600Y-121101300D01*
X127312700Y-121012400D01*
X126771400Y-121012400D01*
X126771400Y-122053700D01*
X126860300Y-122142600D01*
X127046000Y-122144321D01*
X127115710Y-122137455D01*
X127182741Y-122117122D01*
X127244517Y-122084102D01*
X127298664Y-122039664D01*
X127343102Y-121985517D01*
X127376122Y-121923741D01*
X127396455Y-121856710D01*
X127403321Y-121787000D01*
X127403177Y-121729506D01*
X127413416Y-121754226D01*
X127469011Y-121837429D01*
X127539769Y-121908187D01*
X127622972Y-121963782D01*
X127715422Y-122002076D01*
X127813566Y-122021598D01*
X127904628Y-122021598D01*
X128406047Y-122523018D01*
X128416386Y-122535616D01*
X128453862Y-122566372D01*
X128466665Y-122576879D01*
X128524029Y-122607540D01*
X128586272Y-122626422D01*
X128651002Y-122632797D01*
X128667217Y-122631200D01*
X129177180Y-122631200D01*
X129241569Y-122695589D01*
X129324772Y-122751184D01*
X129417222Y-122789478D01*
X129515366Y-122809000D01*
X129615434Y-122809000D01*
X129661526Y-122799832D01*
X129637979Y-122835073D01*
X129581495Y-122971437D01*
X129552700Y-123116200D01*
X129552700Y-123199530D01*
X129533556Y-123193722D01*
X129510378Y-123184122D01*
X129485774Y-123179228D01*
X129461785Y-123171951D01*
X129436838Y-123169494D01*
X129412234Y-123164600D01*
X126696418Y-123164600D01*
X125984000Y-122452182D01*
X125984000Y-122148144D01*
X125986457Y-122123200D01*
X125984000Y-122098253D01*
X125984000Y-121822723D01*
X126000382Y-121792074D01*
X126001921Y-121787000D01*
X126088679Y-121787000D01*
X126095545Y-121856710D01*
X126115878Y-121923741D01*
X126148898Y-121985517D01*
X126193336Y-122039664D01*
X126247483Y-122084102D01*
X126309259Y-122117122D01*
X126376290Y-122137455D01*
X126446000Y-122144321D01*
X126631700Y-122142600D01*
X126720600Y-122053700D01*
X126720600Y-121012400D01*
X126179300Y-121012400D01*
X126090400Y-121101300D01*
X126088679Y-121787000D01*
X126001921Y-121787000D01*
X126023442Y-121716056D01*
X126031228Y-121637000D01*
X126031228Y-120337000D01*
X126023442Y-120257944D01*
X126000382Y-120181926D01*
X125962935Y-120111867D01*
X125912539Y-120050461D01*
X125851133Y-120000065D01*
X125781074Y-119962618D01*
X125705056Y-119939558D01*
X125626000Y-119931772D01*
X125326000Y-119931772D01*
X125246944Y-119939558D01*
X125170926Y-119962618D01*
X125100867Y-120000065D01*
X125039461Y-120050461D01*
X124989065Y-120111867D01*
X124951618Y-120181926D01*
X124928558Y-120257944D01*
X124920772Y-120337000D01*
X124920772Y-121637000D01*
X124928558Y-121716056D01*
X124928784Y-121716801D01*
X124753216Y-121716801D01*
X124753442Y-121716056D01*
X124761228Y-121637000D01*
X124761228Y-120337000D01*
X124753442Y-120257944D01*
X124730382Y-120181926D01*
X124692935Y-120111867D01*
X124642539Y-120050461D01*
X124581133Y-120000065D01*
X124511074Y-119962618D01*
X124435056Y-119939558D01*
X124356000Y-119931772D01*
X124072397Y-119931772D01*
X124059478Y-119866822D01*
X124047209Y-119837201D01*
X126374127Y-119837201D01*
X126309259Y-119856878D01*
G37*
G04 #@! TD.AperFunction*
D21*
X134812223Y-117139185D02*
X134997130Y-117195012D01*
X135167668Y-117285688D01*
X135317347Y-117407762D01*
X135440468Y-117556590D01*
X135532334Y-117726493D01*
X135589448Y-117910997D01*
X135611001Y-118116063D01*
X135611001Y-118311972D01*
X134620000Y-118311972D01*
X134607531Y-118313200D01*
X134514929Y-118313200D01*
X134308826Y-118354196D01*
X134133706Y-118426733D01*
X132985359Y-117278387D01*
X132975016Y-117265784D01*
X132924737Y-117224521D01*
X132867373Y-117193860D01*
X132805130Y-117174978D01*
X132756615Y-117170200D01*
X132756613Y-117170200D01*
X132740400Y-117168603D01*
X132724187Y-117170200D01*
X122164815Y-117170200D01*
X122148600Y-117168603D01*
X122132385Y-117170200D01*
X122083870Y-117174978D01*
X122021627Y-117193860D01*
X121964263Y-117224521D01*
X121913984Y-117265784D01*
X121903645Y-117278382D01*
X120318161Y-118863867D01*
X120208638Y-118699955D01*
X120060045Y-118551362D01*
X119885319Y-118434614D01*
X119691174Y-118354196D01*
X119485071Y-118313200D01*
X119392469Y-118313200D01*
X119380000Y-118311972D01*
X118389000Y-118311972D01*
X118389000Y-118123641D01*
X118409185Y-117917777D01*
X118465012Y-117732870D01*
X118555688Y-117562332D01*
X118677762Y-117412653D01*
X118826590Y-117289532D01*
X118996493Y-117197666D01*
X119180997Y-117140552D01*
X119386054Y-117119000D01*
X134606359Y-117119000D01*
X134812223Y-117139185D01*
G04 #@! TA.AperFunction,Conductor*
D22*
G36*
X134812223Y-117139185D02*
G01*
X134997130Y-117195012D01*
X135167668Y-117285688D01*
X135317347Y-117407762D01*
X135440468Y-117556590D01*
X135532334Y-117726493D01*
X135589448Y-117910997D01*
X135611001Y-118116063D01*
X135611001Y-118311972D01*
X134620000Y-118311972D01*
X134607531Y-118313200D01*
X134514929Y-118313200D01*
X134308826Y-118354196D01*
X134133706Y-118426733D01*
X132985359Y-117278387D01*
X132975016Y-117265784D01*
X132924737Y-117224521D01*
X132867373Y-117193860D01*
X132805130Y-117174978D01*
X132756615Y-117170200D01*
X132756613Y-117170200D01*
X132740400Y-117168603D01*
X132724187Y-117170200D01*
X122164815Y-117170200D01*
X122148600Y-117168603D01*
X122132385Y-117170200D01*
X122083870Y-117174978D01*
X122021627Y-117193860D01*
X121964263Y-117224521D01*
X121913984Y-117265784D01*
X121903645Y-117278382D01*
X120318161Y-118863867D01*
X120208638Y-118699955D01*
X120060045Y-118551362D01*
X119885319Y-118434614D01*
X119691174Y-118354196D01*
X119485071Y-118313200D01*
X119392469Y-118313200D01*
X119380000Y-118311972D01*
X118389000Y-118311972D01*
X118389000Y-118123641D01*
X118409185Y-117917777D01*
X118465012Y-117732870D01*
X118555688Y-117562332D01*
X118677762Y-117412653D01*
X118826590Y-117289532D01*
X118996493Y-117197666D01*
X119180997Y-117140552D01*
X119386054Y-117119000D01*
X134606359Y-117119000D01*
X134812223Y-117139185D01*
G37*
G04 #@! TD.AperFunction*
G04 #@! TD*
M02*
