G04 #@! TF.GenerationSoftware,KiCad,Pcbnew,5.1.9-73d0e3b20d~88~ubuntu16.04.1*
G04 #@! TF.CreationDate,2021-02-23T03:34:03+00:00*
G04 #@! TF.ProjectId,kuiic,6b756969-632e-46b6-9963-61645f706362,rev?*
G04 #@! TF.SameCoordinates,Original*
G04 #@! TF.FileFunction,Legend,Bot*
G04 #@! TF.FilePolarity,Positive*
%FSLAX46Y46*%
G04 Gerber Fmt 4.6, Leading zero omitted, Abs format (unit mm)*
G04 Created by KiCad (PCBNEW 5.1.9-73d0e3b20d~88~ubuntu16.04.1) date 2021-02-23 03:34:03*
%MOMM*%
%LPD*%
G01*
G04 APERTURE LIST*
%ADD10C,0.150000*%
%ADD11C,0.120000*%
%ADD12C,0.002540*%
%ADD13C,0.203200*%
%ADD14C,0.010000*%
G04 APERTURE END LIST*
D10*
X132095238Y-118562380D02*
X132095238Y-117562380D01*
X131523809Y-118562380D02*
X131952380Y-117990952D01*
X131523809Y-117562380D02*
X132095238Y-118133809D01*
X131190476Y-117562380D02*
X130571428Y-117562380D01*
X130904761Y-117943333D01*
X130761904Y-117943333D01*
X130666666Y-117990952D01*
X130619047Y-118038571D01*
X130571428Y-118133809D01*
X130571428Y-118371904D01*
X130619047Y-118467142D01*
X130666666Y-118514761D01*
X130761904Y-118562380D01*
X131047619Y-118562380D01*
X131142857Y-118514761D01*
X131190476Y-118467142D01*
X130190476Y-117657619D02*
X130142857Y-117610000D01*
X130047619Y-117562380D01*
X129809523Y-117562380D01*
X129714285Y-117610000D01*
X129666666Y-117657619D01*
X129619047Y-117752857D01*
X129619047Y-117848095D01*
X129666666Y-117990952D01*
X130238095Y-118562380D01*
X129619047Y-118562380D01*
X128714285Y-118562380D02*
X129190476Y-118562380D01*
X129190476Y-117562380D01*
X127619047Y-117562380D02*
X127619047Y-118371904D01*
X127571428Y-118467142D01*
X127523809Y-118514761D01*
X127428571Y-118562380D01*
X127238095Y-118562380D01*
X127142857Y-118514761D01*
X127095238Y-118467142D01*
X127047619Y-118371904D01*
X127047619Y-117562380D01*
X126619047Y-118514761D02*
X126476190Y-118562380D01*
X126238095Y-118562380D01*
X126142857Y-118514761D01*
X126095238Y-118467142D01*
X126047619Y-118371904D01*
X126047619Y-118276666D01*
X126095238Y-118181428D01*
X126142857Y-118133809D01*
X126238095Y-118086190D01*
X126428571Y-118038571D01*
X126523809Y-117990952D01*
X126571428Y-117943333D01*
X126619047Y-117848095D01*
X126619047Y-117752857D01*
X126571428Y-117657619D01*
X126523809Y-117610000D01*
X126428571Y-117562380D01*
X126190476Y-117562380D01*
X126047619Y-117610000D01*
X125285714Y-118038571D02*
X125142857Y-118086190D01*
X125095238Y-118133809D01*
X125047619Y-118229047D01*
X125047619Y-118371904D01*
X125095238Y-118467142D01*
X125142857Y-118514761D01*
X125238095Y-118562380D01*
X125619047Y-118562380D01*
X125619047Y-117562380D01*
X125285714Y-117562380D01*
X125190476Y-117610000D01*
X125142857Y-117657619D01*
X125095238Y-117752857D01*
X125095238Y-117848095D01*
X125142857Y-117943333D01*
X125190476Y-117990952D01*
X125285714Y-118038571D01*
X125619047Y-118038571D01*
X123857142Y-118562380D02*
X123857142Y-117562380D01*
X123428571Y-117657619D02*
X123380952Y-117610000D01*
X123285714Y-117562380D01*
X123047619Y-117562380D01*
X122952380Y-117610000D01*
X122904761Y-117657619D01*
X122857142Y-117752857D01*
X122857142Y-117848095D01*
X122904761Y-117990952D01*
X123476190Y-118562380D01*
X122857142Y-118562380D01*
X121857142Y-118467142D02*
X121904761Y-118514761D01*
X122047619Y-118562380D01*
X122142857Y-118562380D01*
X122285714Y-118514761D01*
X122380952Y-118419523D01*
X122428571Y-118324285D01*
X122476190Y-118133809D01*
X122476190Y-117990952D01*
X122428571Y-117800476D01*
X122380952Y-117705238D01*
X122285714Y-117610000D01*
X122142857Y-117562380D01*
X122047619Y-117562380D01*
X121904761Y-117610000D01*
X121857142Y-117657619D01*
X122308809Y-128674761D02*
X122165952Y-128722380D01*
X121927857Y-128722380D01*
X121832619Y-128674761D01*
X121785000Y-128627142D01*
X121737380Y-128531904D01*
X121737380Y-128436666D01*
X121785000Y-128341428D01*
X121832619Y-128293809D01*
X121927857Y-128246190D01*
X122118333Y-128198571D01*
X122213571Y-128150952D01*
X122261190Y-128103333D01*
X122308809Y-128008095D01*
X122308809Y-127912857D01*
X122261190Y-127817619D01*
X122213571Y-127770000D01*
X122118333Y-127722380D01*
X121880238Y-127722380D01*
X121737380Y-127770000D01*
X121308809Y-128722380D02*
X121308809Y-127722380D01*
X120927857Y-127722380D01*
X120832619Y-127770000D01*
X120785000Y-127817619D01*
X120737380Y-127912857D01*
X120737380Y-128055714D01*
X120785000Y-128150952D01*
X120832619Y-128198571D01*
X120927857Y-128246190D01*
X121308809Y-128246190D01*
X120308809Y-128722380D02*
X120308809Y-127722380D01*
D11*
X119634000Y-126111000D02*
X119888000Y-125857000D01*
X119634000Y-125349000D02*
X119888000Y-125603000D01*
D10*
X121594476Y-126182380D02*
X121594476Y-125182380D01*
X121356380Y-125182380D01*
X121213523Y-125230000D01*
X121118285Y-125325238D01*
X121070666Y-125420476D01*
X121023047Y-125610952D01*
X121023047Y-125753809D01*
X121070666Y-125944285D01*
X121118285Y-126039523D01*
X121213523Y-126134761D01*
X121356380Y-126182380D01*
X121594476Y-126182380D01*
X120642095Y-125896666D02*
X120165904Y-125896666D01*
X120737333Y-126182380D02*
X120404000Y-125182380D01*
X120070666Y-126182380D01*
D11*
X119634000Y-122809000D02*
X119888000Y-123063000D01*
X119888000Y-120523000D02*
X119634000Y-120269000D01*
D10*
X121070666Y-121007142D02*
X121118285Y-121054761D01*
X121261142Y-121102380D01*
X121356380Y-121102380D01*
X121499238Y-121054761D01*
X121594476Y-120959523D01*
X121642095Y-120864285D01*
X121689714Y-120673809D01*
X121689714Y-120530952D01*
X121642095Y-120340476D01*
X121594476Y-120245238D01*
X121499238Y-120150000D01*
X121356380Y-120102380D01*
X121261142Y-120102380D01*
X121118285Y-120150000D01*
X121070666Y-120197619D01*
X120689714Y-121054761D02*
X120546857Y-121102380D01*
X120308761Y-121102380D01*
X120213523Y-121054761D01*
X120165904Y-121007142D01*
X120118285Y-120911904D01*
X120118285Y-120816666D01*
X120165904Y-120721428D01*
X120213523Y-120673809D01*
X120308761Y-120626190D01*
X120499238Y-120578571D01*
X120594476Y-120530952D01*
X120642095Y-120483333D01*
X120689714Y-120388095D01*
X120689714Y-120292857D01*
X120642095Y-120197619D01*
X120594476Y-120150000D01*
X120499238Y-120102380D01*
X120261142Y-120102380D01*
X120118285Y-120150000D01*
X121094476Y-123547142D02*
X121142095Y-123594761D01*
X121284952Y-123642380D01*
X121380190Y-123642380D01*
X121523047Y-123594761D01*
X121618285Y-123499523D01*
X121665904Y-123404285D01*
X121713523Y-123213809D01*
X121713523Y-123070952D01*
X121665904Y-122880476D01*
X121618285Y-122785238D01*
X121523047Y-122690000D01*
X121380190Y-122642380D01*
X121284952Y-122642380D01*
X121142095Y-122690000D01*
X121094476Y-122737619D01*
X120665904Y-123642380D02*
X120665904Y-122642380D01*
X120094476Y-123642380D02*
X120523047Y-123070952D01*
X120094476Y-122642380D02*
X120665904Y-123213809D01*
X120856238Y-135723380D02*
X120522904Y-136723380D01*
X120189571Y-135723380D01*
X119856238Y-136723380D02*
X119856238Y-135723380D01*
X119380047Y-136723380D02*
X119380047Y-135723380D01*
X118808619Y-136723380D01*
X118808619Y-135723380D01*
D12*
G36*
X120523000Y-133350000D02*
G01*
X120269000Y-133350000D01*
X120269000Y-130810000D01*
X120523000Y-130810000D01*
X120523000Y-133350000D01*
G37*
X120523000Y-133350000D02*
X120269000Y-133350000D01*
X120269000Y-130810000D01*
X120523000Y-130810000D01*
X120523000Y-133350000D01*
D11*
X133858000Y-123190000D02*
X134239000Y-123571000D01*
X133858000Y-120650000D02*
X134239000Y-121031000D01*
D10*
X133651476Y-121054761D02*
X133508619Y-121102380D01*
X133270523Y-121102380D01*
X133175285Y-121054761D01*
X133127666Y-121007142D01*
X133080047Y-120911904D01*
X133080047Y-120816666D01*
X133127666Y-120721428D01*
X133175285Y-120673809D01*
X133270523Y-120626190D01*
X133461000Y-120578571D01*
X133556238Y-120530952D01*
X133603857Y-120483333D01*
X133651476Y-120388095D01*
X133651476Y-120292857D01*
X133603857Y-120197619D01*
X133556238Y-120150000D01*
X133461000Y-120102380D01*
X133222904Y-120102380D01*
X133080047Y-120150000D01*
X132080047Y-121007142D02*
X132127666Y-121054761D01*
X132270523Y-121102380D01*
X132365761Y-121102380D01*
X132508619Y-121054761D01*
X132603857Y-120959523D01*
X132651476Y-120864285D01*
X132699095Y-120673809D01*
X132699095Y-120530952D01*
X132651476Y-120340476D01*
X132603857Y-120245238D01*
X132508619Y-120150000D01*
X132365761Y-120102380D01*
X132270523Y-120102380D01*
X132127666Y-120150000D01*
X132080047Y-120197619D01*
X131175285Y-121102380D02*
X131651476Y-121102380D01*
X131651476Y-120102380D01*
X133675285Y-123594761D02*
X133532428Y-123642380D01*
X133294333Y-123642380D01*
X133199095Y-123594761D01*
X133151476Y-123547142D01*
X133103857Y-123451904D01*
X133103857Y-123356666D01*
X133151476Y-123261428D01*
X133199095Y-123213809D01*
X133294333Y-123166190D01*
X133484809Y-123118571D01*
X133580047Y-123070952D01*
X133627666Y-123023333D01*
X133675285Y-122928095D01*
X133675285Y-122832857D01*
X133627666Y-122737619D01*
X133580047Y-122690000D01*
X133484809Y-122642380D01*
X133246714Y-122642380D01*
X133103857Y-122690000D01*
X132675285Y-123642380D02*
X132675285Y-122642380D01*
X132437190Y-122642380D01*
X132294333Y-122690000D01*
X132199095Y-122785238D01*
X132151476Y-122880476D01*
X132103857Y-123070952D01*
X132103857Y-123213809D01*
X132151476Y-123404285D01*
X132199095Y-123499523D01*
X132294333Y-123594761D01*
X132437190Y-123642380D01*
X132675285Y-123642380D01*
X131722904Y-123356666D02*
X131246714Y-123356666D01*
X131818142Y-123642380D02*
X131484809Y-122642380D01*
X131151476Y-123642380D01*
X135175476Y-136723380D02*
X135175476Y-135723380D01*
X134937380Y-135723380D01*
X134794523Y-135771000D01*
X134699285Y-135866238D01*
X134651666Y-135961476D01*
X134604047Y-136151952D01*
X134604047Y-136294809D01*
X134651666Y-136485285D01*
X134699285Y-136580523D01*
X134794523Y-136675761D01*
X134937380Y-136723380D01*
X135175476Y-136723380D01*
X134223095Y-136437666D02*
X133746904Y-136437666D01*
X134318333Y-136723380D02*
X133985000Y-135723380D01*
X133651666Y-136723380D01*
X132746904Y-136628142D02*
X132794523Y-136675761D01*
X132937380Y-136723380D01*
X133032619Y-136723380D01*
X133175476Y-136675761D01*
X133270714Y-136580523D01*
X133318333Y-136485285D01*
X133365952Y-136294809D01*
X133365952Y-136151952D01*
X133318333Y-135961476D01*
X133270714Y-135866238D01*
X133175476Y-135771000D01*
X133032619Y-135723380D01*
X132937380Y-135723380D01*
X132794523Y-135771000D01*
X132746904Y-135818619D01*
D12*
G36*
X120269000Y-133350000D02*
G01*
X118110000Y-133350000D01*
X118110000Y-132969000D01*
X120269000Y-132969000D01*
X120269000Y-133350000D01*
G37*
X120269000Y-133350000D02*
X118110000Y-133350000D01*
X118110000Y-132969000D01*
X120269000Y-132969000D01*
X120269000Y-133350000D01*
G36*
X120269000Y-131191000D02*
G01*
X118110000Y-131191000D01*
X118110000Y-130810000D01*
X120269000Y-130810000D01*
X120269000Y-131191000D01*
G37*
X120269000Y-131191000D02*
X118110000Y-131191000D01*
X118110000Y-130810000D01*
X120269000Y-130810000D01*
X120269000Y-131191000D01*
D10*
X128928761Y-124372857D02*
X128976380Y-124515714D01*
X128976380Y-124753809D01*
X128928761Y-124849047D01*
X128881142Y-124896666D01*
X128785904Y-124944285D01*
X128690666Y-124944285D01*
X128595428Y-124896666D01*
X128547809Y-124849047D01*
X128500190Y-124753809D01*
X128452571Y-124563333D01*
X128404952Y-124468095D01*
X128357333Y-124420476D01*
X128262095Y-124372857D01*
X128166857Y-124372857D01*
X128071619Y-124420476D01*
X128024000Y-124468095D01*
X127976380Y-124563333D01*
X127976380Y-124801428D01*
X128024000Y-124944285D01*
X127976380Y-125277619D02*
X128976380Y-125515714D01*
X128262095Y-125706190D01*
X128976380Y-125896666D01*
X127976380Y-126134761D01*
X128976380Y-126515714D02*
X127976380Y-126515714D01*
X127976380Y-126753809D01*
X128024000Y-126896666D01*
X128119238Y-126991904D01*
X128214476Y-127039523D01*
X128404952Y-127087142D01*
X128547809Y-127087142D01*
X128738285Y-127039523D01*
X128833523Y-126991904D01*
X128928761Y-126896666D01*
X128976380Y-126753809D01*
X128976380Y-126515714D01*
X123078714Y-134691428D02*
X122316809Y-134691428D01*
X122697761Y-135072380D02*
X122697761Y-134310476D01*
X121364428Y-134072380D02*
X121840619Y-134072380D01*
X121888238Y-134548571D01*
X121840619Y-134500952D01*
X121745380Y-134453333D01*
X121507285Y-134453333D01*
X121412047Y-134500952D01*
X121364428Y-134548571D01*
X121316809Y-134643809D01*
X121316809Y-134881904D01*
X121364428Y-134977142D01*
X121412047Y-135024761D01*
X121507285Y-135072380D01*
X121745380Y-135072380D01*
X121840619Y-135024761D01*
X121888238Y-134977142D01*
X121031095Y-134072380D02*
X120697761Y-135072380D01*
X120364428Y-134072380D01*
X121785000Y-132841904D02*
X121832619Y-132937142D01*
X121832619Y-133080000D01*
X121785000Y-133222857D01*
X121689761Y-133318095D01*
X121594523Y-133365714D01*
X121404047Y-133413333D01*
X121261190Y-133413333D01*
X121070714Y-133365714D01*
X120975476Y-133318095D01*
X120880238Y-133222857D01*
X120832619Y-133080000D01*
X120832619Y-132984761D01*
X120880238Y-132841904D01*
X120927857Y-132794285D01*
X121261190Y-132794285D01*
X121261190Y-132984761D01*
X120832619Y-132365714D02*
X121832619Y-132365714D01*
X120832619Y-131794285D01*
X121832619Y-131794285D01*
X120832619Y-131318095D02*
X121832619Y-131318095D01*
X121832619Y-131080000D01*
X121785000Y-130937142D01*
X121689761Y-130841904D01*
X121594523Y-130794285D01*
X121404047Y-130746666D01*
X121261190Y-130746666D01*
X121070714Y-130794285D01*
X120975476Y-130841904D01*
X120880238Y-130937142D01*
X120832619Y-131080000D01*
X120832619Y-131318095D01*
X122904095Y-129373380D02*
X122285047Y-129373380D01*
X122618380Y-129754333D01*
X122475523Y-129754333D01*
X122380285Y-129801952D01*
X122332666Y-129849571D01*
X122285047Y-129944809D01*
X122285047Y-130182904D01*
X122332666Y-130278142D01*
X122380285Y-130325761D01*
X122475523Y-130373380D01*
X122761238Y-130373380D01*
X122856476Y-130325761D01*
X122904095Y-130278142D01*
X121999333Y-129373380D02*
X121666000Y-130373380D01*
X121332666Y-129373380D01*
X121094571Y-129373380D02*
X120475523Y-129373380D01*
X120808857Y-129754333D01*
X120666000Y-129754333D01*
X120570761Y-129801952D01*
X120523142Y-129849571D01*
X120475523Y-129944809D01*
X120475523Y-130182904D01*
X120523142Y-130278142D01*
X120570761Y-130325761D01*
X120666000Y-130373380D01*
X120951714Y-130373380D01*
X121046952Y-130325761D01*
X121094571Y-130278142D01*
X121896095Y-127452380D02*
X121896095Y-126452380D01*
X121658000Y-126452380D01*
X121515142Y-126500000D01*
X121419904Y-126595238D01*
X121372285Y-126690476D01*
X121324666Y-126880952D01*
X121324666Y-127023809D01*
X121372285Y-127214285D01*
X121419904Y-127309523D01*
X121515142Y-127404761D01*
X121658000Y-127452380D01*
X121896095Y-127452380D01*
X120991333Y-126452380D02*
X120324666Y-126452380D01*
X120753238Y-127452380D01*
X121896095Y-124912380D02*
X121896095Y-123912380D01*
X121658000Y-123912380D01*
X121515142Y-123960000D01*
X121419904Y-124055238D01*
X121372285Y-124150476D01*
X121324666Y-124340952D01*
X121324666Y-124483809D01*
X121372285Y-124674285D01*
X121419904Y-124769523D01*
X121515142Y-124864761D01*
X121658000Y-124912380D01*
X121896095Y-124912380D01*
X120467523Y-123912380D02*
X120658000Y-123912380D01*
X120753238Y-123960000D01*
X120800857Y-124007619D01*
X120896095Y-124150476D01*
X120943714Y-124340952D01*
X120943714Y-124721904D01*
X120896095Y-124817142D01*
X120848476Y-124864761D01*
X120753238Y-124912380D01*
X120562761Y-124912380D01*
X120467523Y-124864761D01*
X120419904Y-124817142D01*
X120372285Y-124721904D01*
X120372285Y-124483809D01*
X120419904Y-124388571D01*
X120467523Y-124340952D01*
X120562761Y-124293333D01*
X120753238Y-124293333D01*
X120848476Y-124340952D01*
X120896095Y-124388571D01*
X120943714Y-124483809D01*
X121896095Y-122372380D02*
X121896095Y-121372380D01*
X121658000Y-121372380D01*
X121515142Y-121420000D01*
X121419904Y-121515238D01*
X121372285Y-121610476D01*
X121324666Y-121800952D01*
X121324666Y-121943809D01*
X121372285Y-122134285D01*
X121419904Y-122229523D01*
X121515142Y-122324761D01*
X121658000Y-122372380D01*
X121896095Y-122372380D01*
X120419904Y-121372380D02*
X120896095Y-121372380D01*
X120943714Y-121848571D01*
X120896095Y-121800952D01*
X120800857Y-121753333D01*
X120562761Y-121753333D01*
X120467523Y-121800952D01*
X120419904Y-121848571D01*
X120372285Y-121943809D01*
X120372285Y-122181904D01*
X120419904Y-122277142D01*
X120467523Y-122324761D01*
X120562761Y-122372380D01*
X120800857Y-122372380D01*
X120896095Y-122324761D01*
X120943714Y-122277142D01*
X121896095Y-119832380D02*
X121896095Y-118832380D01*
X121658000Y-118832380D01*
X121515142Y-118880000D01*
X121419904Y-118975238D01*
X121372285Y-119070476D01*
X121324666Y-119260952D01*
X121324666Y-119403809D01*
X121372285Y-119594285D01*
X121419904Y-119689523D01*
X121515142Y-119784761D01*
X121658000Y-119832380D01*
X121896095Y-119832380D01*
X120467523Y-119165714D02*
X120467523Y-119832380D01*
X120705619Y-118784761D02*
X120943714Y-119499047D01*
X120324666Y-119499047D01*
X119546666Y-118308380D02*
X119880000Y-117832190D01*
X120118095Y-118308380D02*
X120118095Y-117308380D01*
X119737142Y-117308380D01*
X119641904Y-117356000D01*
X119594285Y-117403619D01*
X119546666Y-117498857D01*
X119546666Y-117641714D01*
X119594285Y-117736952D01*
X119641904Y-117784571D01*
X119737142Y-117832190D01*
X120118095Y-117832190D01*
X119213333Y-117308380D02*
X118546666Y-118308380D01*
X118546666Y-117308380D02*
X119213333Y-118308380D01*
X135381904Y-117308380D02*
X134810476Y-117308380D01*
X135096190Y-118308380D02*
X135096190Y-117308380D01*
X134572380Y-117308380D02*
X133905714Y-118308380D01*
X133905714Y-117308380D02*
X134572380Y-118308380D01*
X133405476Y-119308571D02*
X133072142Y-119308571D01*
X132929285Y-119832380D02*
X133405476Y-119832380D01*
X133405476Y-118832380D01*
X132929285Y-118832380D01*
X132310238Y-118832380D02*
X132215000Y-118832380D01*
X132119761Y-118880000D01*
X132072142Y-118927619D01*
X132024523Y-119022857D01*
X131976904Y-119213333D01*
X131976904Y-119451428D01*
X132024523Y-119641904D01*
X132072142Y-119737142D01*
X132119761Y-119784761D01*
X132215000Y-119832380D01*
X132310238Y-119832380D01*
X132405476Y-119784761D01*
X132453095Y-119737142D01*
X132500714Y-119641904D01*
X132548333Y-119451428D01*
X132548333Y-119213333D01*
X132500714Y-119022857D01*
X132453095Y-118927619D01*
X132405476Y-118880000D01*
X132310238Y-118832380D01*
X133119761Y-121848571D02*
X132976904Y-121896190D01*
X132929285Y-121943809D01*
X132881666Y-122039047D01*
X132881666Y-122181904D01*
X132929285Y-122277142D01*
X132976904Y-122324761D01*
X133072142Y-122372380D01*
X133453095Y-122372380D01*
X133453095Y-121372380D01*
X133119761Y-121372380D01*
X133024523Y-121420000D01*
X132976904Y-121467619D01*
X132929285Y-121562857D01*
X132929285Y-121658095D01*
X132976904Y-121753333D01*
X133024523Y-121800952D01*
X133119761Y-121848571D01*
X133453095Y-121848571D01*
X132262619Y-121372380D02*
X132167380Y-121372380D01*
X132072142Y-121420000D01*
X132024523Y-121467619D01*
X131976904Y-121562857D01*
X131929285Y-121753333D01*
X131929285Y-121991428D01*
X131976904Y-122181904D01*
X132024523Y-122277142D01*
X132072142Y-122324761D01*
X132167380Y-122372380D01*
X132262619Y-122372380D01*
X132357857Y-122324761D01*
X132405476Y-122277142D01*
X132453095Y-122181904D01*
X132500714Y-121991428D01*
X132500714Y-121753333D01*
X132453095Y-121562857D01*
X132405476Y-121467619D01*
X132357857Y-121420000D01*
X132262619Y-121372380D01*
X133119761Y-124388571D02*
X132976904Y-124436190D01*
X132929285Y-124483809D01*
X132881666Y-124579047D01*
X132881666Y-124721904D01*
X132929285Y-124817142D01*
X132976904Y-124864761D01*
X133072142Y-124912380D01*
X133453095Y-124912380D01*
X133453095Y-123912380D01*
X133119761Y-123912380D01*
X133024523Y-123960000D01*
X132976904Y-124007619D01*
X132929285Y-124102857D01*
X132929285Y-124198095D01*
X132976904Y-124293333D01*
X133024523Y-124340952D01*
X133119761Y-124388571D01*
X133453095Y-124388571D01*
X131929285Y-124912380D02*
X132500714Y-124912380D01*
X132215000Y-124912380D02*
X132215000Y-123912380D01*
X132310238Y-124055238D01*
X132405476Y-124150476D01*
X132500714Y-124198095D01*
X132881666Y-127357142D02*
X132929285Y-127404761D01*
X133072142Y-127452380D01*
X133167380Y-127452380D01*
X133310238Y-127404761D01*
X133405476Y-127309523D01*
X133453095Y-127214285D01*
X133500714Y-127023809D01*
X133500714Y-126880952D01*
X133453095Y-126690476D01*
X133405476Y-126595238D01*
X133310238Y-126500000D01*
X133167380Y-126452380D01*
X133072142Y-126452380D01*
X132929285Y-126500000D01*
X132881666Y-126547619D01*
X132548333Y-126452380D02*
X131929285Y-126452380D01*
X132262619Y-126833333D01*
X132119761Y-126833333D01*
X132024523Y-126880952D01*
X131976904Y-126928571D01*
X131929285Y-127023809D01*
X131929285Y-127261904D01*
X131976904Y-127357142D01*
X132024523Y-127404761D01*
X132119761Y-127452380D01*
X132405476Y-127452380D01*
X132500714Y-127404761D01*
X132548333Y-127357142D01*
X132881666Y-129897142D02*
X132929285Y-129944761D01*
X133072142Y-129992380D01*
X133167380Y-129992380D01*
X133310238Y-129944761D01*
X133405476Y-129849523D01*
X133453095Y-129754285D01*
X133500714Y-129563809D01*
X133500714Y-129420952D01*
X133453095Y-129230476D01*
X133405476Y-129135238D01*
X133310238Y-129040000D01*
X133167380Y-128992380D01*
X133072142Y-128992380D01*
X132929285Y-129040000D01*
X132881666Y-129087619D01*
X132500714Y-129087619D02*
X132453095Y-129040000D01*
X132357857Y-128992380D01*
X132119761Y-128992380D01*
X132024523Y-129040000D01*
X131976904Y-129087619D01*
X131929285Y-129182857D01*
X131929285Y-129278095D01*
X131976904Y-129420952D01*
X132548333Y-129992380D01*
X131929285Y-129992380D01*
X132881666Y-132437142D02*
X132929285Y-132484761D01*
X133072142Y-132532380D01*
X133167380Y-132532380D01*
X133310238Y-132484761D01*
X133405476Y-132389523D01*
X133453095Y-132294285D01*
X133500714Y-132103809D01*
X133500714Y-131960952D01*
X133453095Y-131770476D01*
X133405476Y-131675238D01*
X133310238Y-131580000D01*
X133167380Y-131532380D01*
X133072142Y-131532380D01*
X132929285Y-131580000D01*
X132881666Y-131627619D01*
X131929285Y-132532380D02*
X132500714Y-132532380D01*
X132215000Y-132532380D02*
X132215000Y-131532380D01*
X132310238Y-131675238D01*
X132405476Y-131770476D01*
X132500714Y-131818095D01*
X133500666Y-134548571D02*
X133167333Y-134548571D01*
X133024476Y-135072380D02*
X133500666Y-135072380D01*
X133500666Y-134072380D01*
X133024476Y-134072380D01*
X132691142Y-134072380D02*
X132072095Y-134072380D01*
X132405428Y-134453333D01*
X132262571Y-134453333D01*
X132167333Y-134500952D01*
X132119714Y-134548571D01*
X132072095Y-134643809D01*
X132072095Y-134881904D01*
X132119714Y-134977142D01*
X132167333Y-135024761D01*
X132262571Y-135072380D01*
X132548285Y-135072380D01*
X132643523Y-135024761D01*
X132691142Y-134977142D01*
X131453047Y-134072380D02*
X131357809Y-134072380D01*
X131262571Y-134120000D01*
X131214952Y-134167619D01*
X131167333Y-134262857D01*
X131119714Y-134453333D01*
X131119714Y-134691428D01*
X131167333Y-134881904D01*
X131214952Y-134977142D01*
X131262571Y-135024761D01*
X131357809Y-135072380D01*
X131453047Y-135072380D01*
X131548285Y-135024761D01*
X131595904Y-134977142D01*
X131643523Y-134881904D01*
X131691142Y-134691428D01*
X131691142Y-134453333D01*
X131643523Y-134262857D01*
X131595904Y-134167619D01*
X131548285Y-134120000D01*
X131453047Y-134072380D01*
D13*
X129237619Y-131892523D02*
X129237619Y-130622523D01*
X128511904Y-131892523D02*
X129056190Y-131166809D01*
X128511904Y-130622523D02*
X129237619Y-131348238D01*
X127967619Y-130622523D02*
X127967619Y-131650619D01*
X127907142Y-131771571D01*
X127846666Y-131832047D01*
X127725714Y-131892523D01*
X127483809Y-131892523D01*
X127362857Y-131832047D01*
X127302380Y-131771571D01*
X127241904Y-131650619D01*
X127241904Y-130622523D01*
X126637142Y-131892523D02*
X126637142Y-130622523D01*
X126032380Y-131892523D02*
X126032380Y-130622523D01*
X124701904Y-131771571D02*
X124762380Y-131832047D01*
X124943809Y-131892523D01*
X125064761Y-131892523D01*
X125246190Y-131832047D01*
X125367142Y-131711095D01*
X125427619Y-131590142D01*
X125488095Y-131348238D01*
X125488095Y-131166809D01*
X125427619Y-130924904D01*
X125367142Y-130803952D01*
X125246190Y-130683000D01*
X125064761Y-130622523D01*
X124943809Y-130622523D01*
X124762380Y-130683000D01*
X124701904Y-130743476D01*
D10*
X125864809Y-124039761D02*
X125721952Y-124087380D01*
X125483857Y-124087380D01*
X125388619Y-124039761D01*
X125341000Y-123992142D01*
X125293380Y-123896904D01*
X125293380Y-123801666D01*
X125341000Y-123706428D01*
X125388619Y-123658809D01*
X125483857Y-123611190D01*
X125674333Y-123563571D01*
X125769571Y-123515952D01*
X125817190Y-123468333D01*
X125864809Y-123373095D01*
X125864809Y-123277857D01*
X125817190Y-123182619D01*
X125769571Y-123135000D01*
X125674333Y-123087380D01*
X125436238Y-123087380D01*
X125293380Y-123135000D01*
X124864809Y-124087380D02*
X124864809Y-123087380D01*
X124483857Y-123087380D01*
X124388619Y-123135000D01*
X124341000Y-123182619D01*
X124293380Y-123277857D01*
X124293380Y-123420714D01*
X124341000Y-123515952D01*
X124388619Y-123563571D01*
X124483857Y-123611190D01*
X124864809Y-123611190D01*
X123864809Y-124087380D02*
X123864809Y-123087380D01*
X126269571Y-125213571D02*
X126602904Y-125213571D01*
X126602904Y-125737380D02*
X126602904Y-124737380D01*
X126126714Y-124737380D01*
X125602904Y-125737380D02*
X125698142Y-125689761D01*
X125745761Y-125594523D01*
X125745761Y-124737380D01*
X124793380Y-125737380D02*
X124793380Y-125213571D01*
X124841000Y-125118333D01*
X124936238Y-125070714D01*
X125126714Y-125070714D01*
X125221952Y-125118333D01*
X124793380Y-125689761D02*
X124888619Y-125737380D01*
X125126714Y-125737380D01*
X125221952Y-125689761D01*
X125269571Y-125594523D01*
X125269571Y-125499285D01*
X125221952Y-125404047D01*
X125126714Y-125356428D01*
X124888619Y-125356428D01*
X124793380Y-125308809D01*
X124364809Y-125689761D02*
X124269571Y-125737380D01*
X124079095Y-125737380D01*
X123983857Y-125689761D01*
X123936238Y-125594523D01*
X123936238Y-125546904D01*
X123983857Y-125451666D01*
X124079095Y-125404047D01*
X124221952Y-125404047D01*
X124317190Y-125356428D01*
X124364809Y-125261190D01*
X124364809Y-125213571D01*
X124317190Y-125118333D01*
X124221952Y-125070714D01*
X124079095Y-125070714D01*
X123983857Y-125118333D01*
X123507666Y-125737380D02*
X123507666Y-124737380D01*
X123079095Y-125737380D02*
X123079095Y-125213571D01*
X123126714Y-125118333D01*
X123221952Y-125070714D01*
X123364809Y-125070714D01*
X123460047Y-125118333D01*
X123507666Y-125165952D01*
D14*
G04 #@! TO.C,G\u002A\u002A\u002A*
G36*
X127846667Y-135458200D02*
G01*
X127707008Y-135597644D01*
X127574157Y-135729833D01*
X127450078Y-135852842D01*
X127336730Y-135964749D01*
X127236076Y-136063631D01*
X127150075Y-136147567D01*
X127080690Y-136214632D01*
X127029881Y-136262905D01*
X126999611Y-136290463D01*
X126991661Y-136296400D01*
X126977145Y-136284734D01*
X126940676Y-136251018D01*
X126884221Y-136197177D01*
X126809747Y-136125134D01*
X126719222Y-136036813D01*
X126614613Y-135934139D01*
X126497888Y-135819035D01*
X126371015Y-135693425D01*
X126235961Y-135559233D01*
X126138821Y-135462433D01*
X125302915Y-134628466D01*
X125313323Y-134763933D01*
X125342915Y-134962310D01*
X125399663Y-135164717D01*
X125480000Y-135360940D01*
X125580357Y-135540764D01*
X125589523Y-135554706D01*
X125733413Y-135741414D01*
X125898876Y-135904064D01*
X126082858Y-136041387D01*
X126282307Y-136152109D01*
X126494169Y-136234961D01*
X126715390Y-136288672D01*
X126942917Y-136311969D01*
X127173696Y-136303583D01*
X127330200Y-136279283D01*
X127490149Y-136240993D01*
X127628350Y-136194902D01*
X127756725Y-136136835D01*
X127794755Y-136116646D01*
X128001023Y-135985061D01*
X128183251Y-135829940D01*
X128340382Y-135652622D01*
X128471356Y-135454450D01*
X128575113Y-135236763D01*
X128637831Y-135049394D01*
X128656197Y-134979620D01*
X128668995Y-134919216D01*
X128677202Y-134859102D01*
X128681799Y-134790194D01*
X128683763Y-134703410D01*
X128684094Y-134620644D01*
X127846667Y-135458200D01*
G37*
X127846667Y-135458200D02*
X127707008Y-135597644D01*
X127574157Y-135729833D01*
X127450078Y-135852842D01*
X127336730Y-135964749D01*
X127236076Y-136063631D01*
X127150075Y-136147567D01*
X127080690Y-136214632D01*
X127029881Y-136262905D01*
X126999611Y-136290463D01*
X126991661Y-136296400D01*
X126977145Y-136284734D01*
X126940676Y-136251018D01*
X126884221Y-136197177D01*
X126809747Y-136125134D01*
X126719222Y-136036813D01*
X126614613Y-135934139D01*
X126497888Y-135819035D01*
X126371015Y-135693425D01*
X126235961Y-135559233D01*
X126138821Y-135462433D01*
X125302915Y-134628466D01*
X125313323Y-134763933D01*
X125342915Y-134962310D01*
X125399663Y-135164717D01*
X125480000Y-135360940D01*
X125580357Y-135540764D01*
X125589523Y-135554706D01*
X125733413Y-135741414D01*
X125898876Y-135904064D01*
X126082858Y-136041387D01*
X126282307Y-136152109D01*
X126494169Y-136234961D01*
X126715390Y-136288672D01*
X126942917Y-136311969D01*
X127173696Y-136303583D01*
X127330200Y-136279283D01*
X127490149Y-136240993D01*
X127628350Y-136194902D01*
X127756725Y-136136835D01*
X127794755Y-136116646D01*
X128001023Y-135985061D01*
X128183251Y-135829940D01*
X128340382Y-135652622D01*
X128471356Y-135454450D01*
X128575113Y-135236763D01*
X128637831Y-135049394D01*
X128656197Y-134979620D01*
X128668995Y-134919216D01*
X128677202Y-134859102D01*
X128681799Y-134790194D01*
X128683763Y-134703410D01*
X128684094Y-134620644D01*
X127846667Y-135458200D01*
G36*
X128684097Y-134620000D02*
G01*
X128684094Y-134620644D01*
X128684739Y-134619999D01*
X128684093Y-134619352D01*
X128684097Y-134620000D01*
G37*
X128684097Y-134620000D02*
X128684094Y-134620644D01*
X128684739Y-134619999D01*
X128684093Y-134619352D01*
X128684097Y-134620000D01*
G36*
X127838136Y-133771424D02*
G01*
X128684093Y-134619352D01*
X128683467Y-134513352D01*
X128680933Y-134431518D01*
X128675529Y-134365457D01*
X128666292Y-134306129D01*
X128652255Y-134244493D01*
X128638538Y-134193264D01*
X128558497Y-133963879D01*
X128451500Y-133752336D01*
X128319499Y-133560589D01*
X128164447Y-133390592D01*
X127988298Y-133244301D01*
X127793004Y-133123670D01*
X127580518Y-133030653D01*
X127431656Y-132985301D01*
X127340828Y-132964846D01*
X127243420Y-132947187D01*
X127155710Y-132935143D01*
X127127000Y-132932530D01*
X126991534Y-132922851D01*
X127838136Y-133771424D01*
G37*
X127838136Y-133771424D02*
X128684093Y-134619352D01*
X128683467Y-134513352D01*
X128680933Y-134431518D01*
X128675529Y-134365457D01*
X128666292Y-134306129D01*
X128652255Y-134244493D01*
X128638538Y-134193264D01*
X128558497Y-133963879D01*
X128451500Y-133752336D01*
X128319499Y-133560589D01*
X128164447Y-133390592D01*
X127988298Y-133244301D01*
X127793004Y-133123670D01*
X127580518Y-133030653D01*
X127431656Y-132985301D01*
X127340828Y-132964846D01*
X127243420Y-132947187D01*
X127155710Y-132935143D01*
X127127000Y-132932530D01*
X126991534Y-132922851D01*
X127838136Y-133771424D01*
G36*
X127299583Y-134921547D02*
G01*
X127001270Y-135220710D01*
X127001270Y-135488680D01*
X127431673Y-135043564D01*
X127854879Y-134620000D01*
X127600781Y-134620000D01*
X127299583Y-134921547D01*
G37*
X127299583Y-134921547D02*
X127001270Y-135220710D01*
X127001270Y-135488680D01*
X127431673Y-135043564D01*
X127854879Y-134620000D01*
X127600781Y-134620000D01*
X127299583Y-134921547D01*
G36*
X126864280Y-132932651D02*
G01*
X126751347Y-132947312D01*
X126623019Y-132973469D01*
X126492183Y-133007805D01*
X126371730Y-133047005D01*
X126289702Y-133080473D01*
X126085383Y-133193768D01*
X125899394Y-133333996D01*
X125734265Y-133498135D01*
X125592525Y-133683164D01*
X125476705Y-133886059D01*
X125389333Y-134103801D01*
X125365544Y-134184442D01*
X125350029Y-134249985D01*
X125335343Y-134325318D01*
X125322443Y-134403412D01*
X125312283Y-134477240D01*
X125305819Y-134539773D01*
X125304005Y-134583983D01*
X125307798Y-134602841D01*
X125308652Y-134603066D01*
X125322015Y-134591601D01*
X125355886Y-134559394D01*
X125406906Y-134509733D01*
X125471716Y-134445902D01*
X125546956Y-134371186D01*
X125603000Y-134315200D01*
X125890493Y-134027333D01*
X127000000Y-134027333D01*
X127000000Y-133858000D01*
X126060431Y-133858000D01*
X126525982Y-133390404D01*
X126991534Y-132922808D01*
X126864280Y-132932651D01*
G37*
X126864280Y-132932651D02*
X126751347Y-132947312D01*
X126623019Y-132973469D01*
X126492183Y-133007805D01*
X126371730Y-133047005D01*
X126289702Y-133080473D01*
X126085383Y-133193768D01*
X125899394Y-133333996D01*
X125734265Y-133498135D01*
X125592525Y-133683164D01*
X125476705Y-133886059D01*
X125389333Y-134103801D01*
X125365544Y-134184442D01*
X125350029Y-134249985D01*
X125335343Y-134325318D01*
X125322443Y-134403412D01*
X125312283Y-134477240D01*
X125305819Y-134539773D01*
X125304005Y-134583983D01*
X125307798Y-134602841D01*
X125308652Y-134603066D01*
X125322015Y-134591601D01*
X125355886Y-134559394D01*
X125406906Y-134509733D01*
X125471716Y-134445902D01*
X125546956Y-134371186D01*
X125603000Y-134315200D01*
X125890493Y-134027333D01*
X127000000Y-134027333D01*
X127000000Y-133858000D01*
X126060431Y-133858000D01*
X126525982Y-133390404D01*
X126991534Y-132922808D01*
X126864280Y-132932651D01*
D11*
G04 #@! TO.C,U2*
X122376000Y-121862000D02*
X122376000Y-120187000D01*
X122116000Y-121862000D02*
X122376000Y-121862000D01*
X122116000Y-124587000D02*
X122116000Y-121862000D01*
X122116000Y-127312000D02*
X122376000Y-127312000D01*
X122116000Y-124587000D02*
X122116000Y-127312000D01*
X127566000Y-121862000D02*
X127306000Y-121862000D01*
X127566000Y-124587000D02*
X127566000Y-121862000D01*
X127566000Y-127312000D02*
X127306000Y-127312000D01*
X127566000Y-124587000D02*
X127566000Y-127312000D01*
G04 #@! TO.C,J2*
X131572000Y-124460000D02*
X131572000Y-123825000D01*
X131572000Y-123825000D02*
X130937000Y-123825000D01*
G04 #@! TD*
M02*
